<svg xmlns="http://www.w3.org/2000/svg" width="9.8175" height="11.1040" viewBox="0 0 9.8175 11.1040"><defs><radialGradient id="b" cx="0.5" cy="0.5" r="0.5"><stop offset="0.000" stop-color="#000" stop-opacity="0.8400"/><stop offset="0.050" stop-color="#000" stop-opacity="0.8385"/><stop offset="0.100" stop-color="#000" stop-opacity="0.8341"/><stop offset="0.150" stop-color="#000" stop-opacity="0.8267"/><stop offset="0.200" stop-color="#000" stop-opacity="0.8163"/><stop offset="0.250" stop-color="#000" stop-opacity="0.8029"/><stop offset="0.300" stop-color="#000" stop-opacity="0.7863"/><stop offset="0.350" stop-color="#000" stop-opacity="0.7666"/><stop offset="0.400" stop-color="#000" stop-opacity="0.7435"/><stop offset="0.450" stop-color="#000" stop-opacity="0.7170"/><stop offset="0.500" stop-color="#000" stop-opacity="0.6868"/><stop offset="0.550" stop-color="#000" stop-opacity="0.6528"/><stop offset="0.600" stop-color="#000" stop-opacity="0.6146"/><stop offset="0.650" stop-color="#000" stop-opacity="0.5720"/><stop offset="0.700" stop-color="#000" stop-opacity="0.5243"/><stop offset="0.750" stop-color="#000" stop-opacity="0.4709"/><stop offset="0.800" stop-color="#000" stop-opacity="0.4109"/><stop offset="0.850" stop-color="#000" stop-opacity="0.3424"/><stop offset="0.900" stop-color="#000" stop-opacity="0.2627"/><stop offset="0.950" stop-color="#000" stop-opacity="0.1647"/><stop offset="1.000" stop-color="#000" stop-opacity="0.0000"/></radialGradient><radialGradient id="c" cx="0.5" cy="0.5" r="0.5"><stop offset="0.000" stop-color="#000" stop-opacity="1.0000"/><stop offset="0.050" stop-color="#000" stop-opacity="0.9982"/><stop offset="0.100" stop-color="#000" stop-opacity="0.9930"/><stop offset="0.150" stop-color="#000" stop-opacity="0.9842"/><stop offset="0.200" stop-color="#000" stop-opacity="0.9718"/><stop offset="0.250" stop-color="#000" stop-opacity="0.9558"/><stop offset="0.300" stop-color="#000" stop-opacity="0.9361"/><stop offset="0.350" stop-color="#000" stop-opacity="0.9126"/><stop offset="0.400" stop-color="#000" stop-opacity="0.8851"/><stop offset="0.450" stop-color="#000" stop-opacity="0.8535"/><stop offset="0.500" stop-color="#000" stop-opacity="0.8176"/><stop offset="0.550" stop-color="#000" stop-opacity="0.7771"/><stop offset="0.600" stop-color="#000" stop-opacity="0.7317"/><stop offset="0.650" stop-color="#000" stop-opacity="0.6809"/><stop offset="0.700" stop-color="#000" stop-opacity="0.6242"/><stop offset="0.750" stop-color="#000" stop-opacity="0.5606"/><stop offset="0.800" stop-color="#000" stop-opacity="0.4891"/><stop offset="0.850" stop-color="#000" stop-opacity="0.4076"/><stop offset="0.900" stop-color="#000" stop-opacity="0.3127"/><stop offset="0.950" stop-color="#000" stop-opacity="0.1960"/><stop offset="1.000" stop-color="#000" stop-opacity="0.0000"/></radialGradient><radialGradient id="s" cx="0.5" cy="0.5" r="0.5"><stop offset="0.000" stop-color="#000" stop-opacity="0.0000"/><stop offset="0.050" stop-color="#000" stop-opacity="0.0000"/><stop offset="0.100" stop-color="#000" stop-opacity="0.0000"/><stop offset="0.150" stop-color="#000" stop-opacity="0.0000"/><stop offset="0.200" stop-color="#000" stop-opacity="0.0000"/><stop offset="0.250" stop-color="#000" stop-opacity="0.0000"/><stop offset="0.300" stop-color="#000" stop-opacity="0.0000"/><stop offset="0.350" stop-color="#000" stop-opacity="0.0000"/><stop offset="0.400" stop-color="#000" stop-opacity="0.0000"/><stop offset="0.450" stop-color="#000" stop-opacity="0.0000"/><stop offset="0.500" stop-color="#000" stop-opacity="0.0000"/><stop offset="0.550" stop-color="#000" stop-opacity="0.0000"/><stop offset="0.600" stop-color="#000" stop-opacity="0.0000"/><stop offset="0.650" stop-color="#000" stop-opacity="0.0000"/><stop offset="0.700" stop-color="#000" stop-opacity="0.0000"/><stop offset="0.750" stop-color="#000" stop-opacity="0.0000"/><stop offset="0.800" stop-color="#000" stop-opacity="0.0000"/><stop offset="0.850" stop-color="#000" stop-opacity="0.0000"/><stop offset="0.900" stop-color="#000" stop-opacity="0.0000"/><stop offset="0.950" stop-color="#000" stop-opacity="0.0000"/><stop offset="1.000" stop-color="#000" stop-opacity="0.0000"/></radialGradient><filter id="p" x="-0.1" y="-0.1" width="1.2" height="1.2"><feGaussianBlur stdDeviation="0.04"/></filter></defs><g opacity="0.360" filter="url(#p)"><ellipse cx="-0.1600" cy="9.6774" rx="0.6051" ry="0.5536" fill="#000"/><ellipse cx="3.4778" cy="9.6228" rx="0.6007" ry="0.5594" fill="#000"/><ellipse cx="4.6475" cy="9.6390" rx="0.6042" ry="0.5654" fill="#000"/><ellipse cx="8.0768" cy="9.6482" rx="0.6120" ry="0.5779" fill="#000"/><ellipse cx="9.2593" cy="9.6228" rx="0.5980" ry="0.5654" fill="#000"/><ellipse cx="10.3396" cy="9.6375" rx="0.5814" ry="0.5497" fill="#000"/><ellipse cx="-0.0680" cy="8.6279" rx="0.5812" ry="0.5680" fill="#000"/><ellipse cx="3.3191" cy="8.6369" rx="0.5852" ry="0.5815" fill="#000"/><ellipse cx="4.4141" cy="8.6113" rx="0.5740" ry="0.5730" fill="#000"/><ellipse cx="7.6830" cy="8.6332" rx="0.5550" ry="0.5592" fill="#000"/><ellipse cx="8.7925" cy="8.6515" rx="0.5598" ry="0.5649" fill="#000"/><ellipse cx="9.8645" cy="8.6252" rx="0.5388" ry="0.5439" fill="#000"/><ellipse cx="-0.3667" cy="7.5769" rx="0.5651" ry="0.5743" fill="#000"/><ellipse cx="2.8662" cy="7.5692" rx="0.5495" ry="0.5677" fill="#000"/><ellipse cx="3.9320" cy="7.6175" rx="0.5435" ry="0.5640" fill="#000"/><ellipse cx="4.9654" cy="7.5765" rx="0.5175" ry="0.5391" fill="#000"/><ellipse cx="7.9924" cy="7.5732" rx="0.5325" ry="0.5592" fill="#000"/><ellipse cx="10.1235" cy="7.6199" rx="0.5226" ry="0.5495" fill="#000"/><ellipse cx="-0.0861" cy="6.5624" rx="0.5376" ry="0.5603" fill="#000"/><ellipse cx="3.0706" cy="6.5880" rx="0.5348" ry="0.5661" fill="#000"/><ellipse cx="4.0090" cy="6.5639" rx="0.5396" ry="0.5735" fill="#000"/><ellipse cx="8.1210" cy="6.5599" rx="0.4966" ry="0.5340" fill="#000"/><ellipse cx="9.0323" cy="6.5412" rx="0.4951" ry="0.5329" fill="#000"/><ellipse cx="10.0436" cy="6.5626" rx="0.5186" ry="0.5584" fill="#000"/><ellipse cx="-0.6001" cy="5.5639" rx="0.6019" ry="0.6302" fill="#000"/><ellipse cx="2.5539" cy="5.5574" rx="0.5845" ry="0.6219" fill="#000"/><ellipse cx="3.5938" cy="5.5537" rx="0.6003" ry="0.6417" fill="#000"/><ellipse cx="4.5994" cy="5.5375" rx="0.5937" ry="0.6372" fill="#000"/><ellipse cx="7.6035" cy="5.5526" rx="0.5618" ry="0.6082" fill="#000"/><ellipse cx="8.5982" cy="5.5417" rx="0.5752" ry="0.6235" fill="#000"/><ellipse cx="9.5384" cy="5.5544" rx="0.5561" ry="0.6032" fill="#000"/><ellipse cx="-0.5081" cy="4.4769" rx="0.5335" ry="0.5545" fill="#000"/><ellipse cx="2.6888" cy="4.4781" rx="0.5355" ry="0.5656" fill="#000"/><ellipse cx="3.7507" cy="4.5338" rx="0.5315" ry="0.5641" fill="#000"/><ellipse cx="4.7678" cy="4.5203" rx="0.5346" ry="0.5696" fill="#000"/><ellipse cx="7.8122" cy="4.4749" rx="0.5059" ry="0.5435" fill="#000"/><ellipse cx="8.7692" cy="4.5242" rx="0.5223" ry="0.5618" fill="#000"/><ellipse cx="9.8088" cy="4.4828" rx="0.5291" ry="0.5694" fill="#000"/><ellipse cx="-0.3380" cy="3.4684" rx="0.5637" ry="0.5724" fill="#000"/><ellipse cx="2.8234" cy="3.4773" rx="0.5262" ry="0.5429" fill="#000"/><ellipse cx="4.9218" cy="3.4587" rx="0.5182" ry="0.5393" fill="#000"/><ellipse cx="5.9985" cy="3.4434" rx="0.5272" ry="0.5506" fill="#000"/><ellipse cx="7.0242" cy="3.4514" rx="0.5312" ry="0.5562" fill="#000"/><ellipse cx="7.9880" cy="3.4875" rx="0.5217" ry="0.5473" fill="#000"/><ellipse cx="9.0011" cy="3.4579" rx="0.5398" ry="0.5669" fill="#000"/><ellipse cx="10.0344" cy="3.4512" rx="0.5413" ry="0.5687" fill="#000"/><ellipse cx="-0.0715" cy="2.4458" rx="0.5849" ry="0.5700" fill="#000"/><ellipse cx="4.4453" cy="2.4532" rx="0.5451" ry="0.5426" fill="#000"/><ellipse cx="5.4977" cy="2.4620" rx="0.5612" ry="0.5607" fill="#000"/><ellipse cx="7.7054" cy="2.4432" rx="0.5519" ry="0.5545" fill="#000"/><ellipse cx="8.7548" cy="2.4380" rx="0.5497" ry="0.5531" fill="#000"/><ellipse cx="9.7807" cy="2.4614" rx="0.5387" ry="0.5423" fill="#000"/><ellipse cx="-0.1443" cy="1.3849" rx="0.6185" ry="0.5645" fill="#000"/><ellipse cx="2.2775" cy="1.4320" rx="0.6152" ry="0.5685" fill="#000"/><ellipse cx="3.4678" cy="1.3865" rx="0.6025" ry="0.5597" fill="#000"/><ellipse cx="4.6226" cy="1.4299" rx="0.6183" ry="0.5771" fill="#000"/><ellipse cx="8.1284" cy="1.4246" rx="0.5813" ry="0.5476" fill="#000"/><ellipse cx="9.2592" cy="1.4387" rx="0.5958" ry="0.5619" fill="#000"/><ellipse cx="10.3532" cy="1.3902" rx="0.6065" ry="0.5720" fill="#000"/></g><ellipse cx="-0.1600" cy="9.6774" rx="0.5403" ry="0.4943" fill="url(#b)"/><ellipse cx="3.4778" cy="9.6228" rx="0.5363" ry="0.4995" fill="url(#b)"/><ellipse cx="4.6475" cy="9.6390" rx="0.5395" ry="0.5048" fill="url(#b)"/><ellipse cx="8.0768" cy="9.6482" rx="0.5464" ry="0.5160" fill="url(#b)"/><ellipse cx="9.2593" cy="9.6228" rx="0.5339" ry="0.5048" fill="url(#b)"/><ellipse cx="-0.0680" cy="8.6279" rx="0.5189" ry="0.5072" fill="url(#b)"/><ellipse cx="3.3191" cy="8.6369" rx="0.5225" ry="0.5192" fill="url(#b)"/><ellipse cx="4.4141" cy="8.6113" rx="0.5125" ry="0.5116" fill="url(#b)"/><ellipse cx="7.6830" cy="8.6332" rx="0.4955" ry="0.4993" fill="url(#b)"/><ellipse cx="8.7925" cy="8.6515" rx="0.4998" ry="0.5044" fill="url(#b)"/><ellipse cx="9.8645" cy="8.6252" rx="0.4810" ry="0.4857" fill="url(#b)"/><ellipse cx="-0.3667" cy="7.5769" rx="0.5045" ry="0.5128" fill="url(#b)"/><ellipse cx="2.8662" cy="7.5692" rx="0.4906" ry="0.5068" fill="url(#b)"/><ellipse cx="3.9320" cy="7.6175" rx="0.4853" ry="0.5036" fill="url(#b)"/><ellipse cx="4.9654" cy="7.5765" rx="0.4620" ry="0.4814" fill="url(#b)"/><ellipse cx="7.9924" cy="7.5732" rx="0.4755" ry="0.4993" fill="url(#b)"/><ellipse cx="10.1235" cy="7.6199" rx="0.4666" ry="0.4906" fill="url(#b)"/><ellipse cx="-0.0861" cy="6.5624" rx="0.4800" ry="0.5003" fill="url(#b)"/><ellipse cx="3.0706" cy="6.5880" rx="0.4775" ry="0.5055" fill="url(#b)"/><ellipse cx="4.0090" cy="6.5639" rx="0.4818" ry="0.5121" fill="url(#b)"/><ellipse cx="8.1210" cy="6.5599" rx="0.4434" ry="0.4768" fill="url(#b)"/><ellipse cx="9.0323" cy="6.5412" rx="0.4421" ry="0.4758" fill="url(#b)"/><ellipse cx="10.0436" cy="6.5626" rx="0.4630" ry="0.4985" fill="url(#b)"/><ellipse cx="2.5539" cy="5.5574" rx="0.5218" ry="0.5552" fill="url(#c)"/><ellipse cx="3.5938" cy="5.5537" rx="0.5360" ry="0.5729" fill="url(#c)"/><ellipse cx="4.5994" cy="5.5375" rx="0.5301" ry="0.5689" fill="url(#c)"/><ellipse cx="7.6035" cy="5.5526" rx="0.5016" ry="0.5430" fill="url(#c)"/><ellipse cx="8.5982" cy="5.5417" rx="0.5136" ry="0.5567" fill="url(#c)"/><ellipse cx="9.5384" cy="5.5544" rx="0.4965" ry="0.5386" fill="url(#c)"/><ellipse cx="2.6888" cy="4.4781" rx="0.4781" ry="0.5050" fill="url(#b)"/><ellipse cx="3.7507" cy="4.5338" rx="0.4746" ry="0.5036" fill="url(#b)"/><ellipse cx="4.7678" cy="4.5203" rx="0.4773" ry="0.5085" fill="url(#b)"/><ellipse cx="7.8122" cy="4.4749" rx="0.4517" ry="0.4853" fill="url(#b)"/><ellipse cx="8.7692" cy="4.5242" rx="0.4663" ry="0.5016" fill="url(#b)"/><ellipse cx="9.8088" cy="4.4828" rx="0.4724" ry="0.5084" fill="url(#b)"/><ellipse cx="-0.3380" cy="3.4684" rx="0.5033" ry="0.5110" fill="url(#b)"/><ellipse cx="2.8234" cy="3.4773" rx="0.4698" ry="0.4847" fill="url(#b)"/><ellipse cx="4.9218" cy="3.4587" rx="0.4627" ry="0.4815" fill="url(#b)"/><ellipse cx="5.9985" cy="3.4434" rx="0.4707" ry="0.4916" fill="url(#b)"/><ellipse cx="7.0242" cy="3.4514" rx="0.4743" ry="0.4966" fill="url(#b)"/><ellipse cx="7.9880" cy="3.4875" rx="0.4658" ry="0.4887" fill="url(#b)"/><ellipse cx="9.0011" cy="3.4579" rx="0.4819" ry="0.5061" fill="url(#b)"/><ellipse cx="10.0344" cy="3.4512" rx="0.4833" ry="0.5077" fill="url(#b)"/><ellipse cx="-0.0715" cy="2.4458" rx="0.5223" ry="0.5089" fill="url(#b)"/><ellipse cx="4.4453" cy="2.4532" rx="0.4867" ry="0.4844" fill="url(#b)"/><ellipse cx="5.4977" cy="2.4620" rx="0.5011" ry="0.5006" fill="url(#b)"/><ellipse cx="7.7054" cy="2.4432" rx="0.4927" ry="0.4950" fill="url(#b)"/><ellipse cx="8.7548" cy="2.4380" rx="0.4908" ry="0.4938" fill="url(#b)"/><ellipse cx="9.7807" cy="2.4614" rx="0.4810" ry="0.4842" fill="url(#b)"/><ellipse cx="-0.1443" cy="1.3849" rx="0.5523" ry="0.5040" fill="url(#b)"/><ellipse cx="2.2775" cy="1.4320" rx="0.5493" ry="0.5076" fill="url(#b)"/><ellipse cx="3.4678" cy="1.3865" rx="0.5379" ry="0.4997" fill="url(#b)"/><ellipse cx="4.6226" cy="1.4299" rx="0.5521" ry="0.5153" fill="url(#b)"/><ellipse cx="8.1284" cy="1.4246" rx="0.5190" ry="0.4889" fill="url(#b)"/><ellipse cx="9.2592" cy="1.4387" rx="0.5319" ry="0.5017" fill="url(#b)"/><ellipse cx="10.3532" cy="1.3902" rx="0.5415" ry="0.5107" fill="url(#b)"/></svg>