<svg xmlns="http://www.w3.org/2000/svg" width="9.8175" height="11.1040" viewBox="0 0 9.8175 11.1040"><defs><radialGradient id="sh" cx="0.5" cy="0.5" r="0.5"><stop offset="0.000" stop-color="#000" stop-opacity="1.0000"/><stop offset="0.042" stop-color="#000" stop-opacity="1.0000"/><stop offset="0.083" stop-color="#000" stop-opacity="1.0000"/><stop offset="0.125" stop-color="#000" stop-opacity="1.0000"/><stop offset="0.167" stop-color="#000" stop-opacity="1.0000"/><stop offset="0.208" stop-color="#000" stop-opacity="1.0000"/><stop offset="0.250" stop-color="#000" stop-opacity="1.0000"/><stop offset="0.292" stop-color="#000" stop-opacity="1.0000"/><stop offset="0.333" stop-color="#000" stop-opacity="1.0000"/><stop offset="0.375" stop-color="#000" stop-opacity="1.0000"/><stop offset="0.417" stop-color="#000" stop-opacity="1.0000"/><stop offset="0.458" stop-color="#000" stop-opacity="1.0000"/><stop offset="0.500" stop-color="#000" stop-opacity="1.0000"/><stop offset="0.542" stop-color="#000" stop-opacity="1.0000"/><stop offset="0.583" stop-color="#000" stop-opacity="1.0000"/><stop offset="0.625" stop-color="#000" stop-opacity="0.9888"/><stop offset="0.667" stop-color="#000" stop-opacity="0.9259"/><stop offset="0.708" stop-color="#000" stop-opacity="0.8197"/><stop offset="0.750" stop-color="#000" stop-opacity="0.6836"/><stop offset="0.792" stop-color="#000" stop-opacity="0.5312"/><stop offset="0.833" stop-color="#000" stop-opacity="0.3762"/><stop offset="0.875" stop-color="#000" stop-opacity="0.2319"/><stop offset="0.917" stop-color="#000" stop-opacity="0.1121"/><stop offset="0.958" stop-color="#000" stop-opacity="0.0303"/><stop offset="1.000" stop-color="#000" stop-opacity="0.0000"/></radialGradient><radialGradient id="dm" cx="0.5" cy="0.5" r="0.5"><stop offset="0.000" stop-color="#000" stop-opacity="0.1400"/><stop offset="0.042" stop-color="#000" stop-opacity="0.1398"/><stop offset="0.083" stop-color="#000" stop-opacity="0.1394"/><stop offset="0.125" stop-color="#000" stop-opacity="0.1386"/><stop offset="0.167" stop-color="#000" stop-opacity="0.1376"/><stop offset="0.208" stop-color="#000" stop-opacity="0.1362"/><stop offset="0.250" stop-color="#000" stop-opacity="0.1345"/><stop offset="0.292" stop-color="#000" stop-opacity="0.1325"/><stop offset="0.333" stop-color="#000" stop-opacity="0.1301"/><stop offset="0.375" stop-color="#000" stop-opacity="0.1274"/><stop offset="0.417" stop-color="#000" stop-opacity="0.1244"/><stop offset="0.458" stop-color="#000" stop-opacity="0.1210"/><stop offset="0.500" stop-color="#000" stop-opacity="0.1171"/><stop offset="0.542" stop-color="#000" stop-opacity="0.1129"/><stop offset="0.583" stop-color="#000" stop-opacity="0.1082"/><stop offset="0.625" stop-color="#000" stop-opacity="0.1030"/><stop offset="0.667" stop-color="#000" stop-opacity="0.0972"/><stop offset="0.708" stop-color="#000" stop-opacity="0.0909"/><stop offset="0.750" stop-color="#000" stop-opacity="0.0839"/><stop offset="0.792" stop-color="#000" stop-opacity="0.0760"/><stop offset="0.833" stop-color="#000" stop-opacity="0.0671"/><stop offset="0.875" stop-color="#000" stop-opacity="0.0569"/><stop offset="0.917" stop-color="#000" stop-opacity="0.0449"/><stop offset="0.958" stop-color="#000" stop-opacity="0.0296"/><stop offset="1.000" stop-color="#000" stop-opacity="0.0000"/></radialGradient><radialGradient id="hd" cx="0.5" cy="0.5" r="0.5"><stop offset="0.000" stop-color="#000" stop-opacity="0.7600"/><stop offset="0.042" stop-color="#000" stop-opacity="0.7596"/><stop offset="0.083" stop-color="#000" stop-opacity="0.7584"/><stop offset="0.125" stop-color="#000" stop-opacity="0.7563"/><stop offset="0.167" stop-color="#000" stop-opacity="0.7534"/><stop offset="0.208" stop-color="#000" stop-opacity="0.7497"/><stop offset="0.250" stop-color="#000" stop-opacity="0.7451"/><stop offset="0.292" stop-color="#000" stop-opacity="0.7396"/><stop offset="0.333" stop-color="#000" stop-opacity="0.7332"/><stop offset="0.375" stop-color="#000" stop-opacity="0.7259"/><stop offset="0.417" stop-color="#000" stop-opacity="0.7176"/><stop offset="0.458" stop-color="#000" stop-opacity="0.7083"/><stop offset="0.500" stop-color="#000" stop-opacity="0.6979"/><stop offset="0.542" stop-color="#000" stop-opacity="0.6864"/><stop offset="0.583" stop-color="#000" stop-opacity="0.6736"/><stop offset="0.625" stop-color="#000" stop-opacity="0.6553"/><stop offset="0.667" stop-color="#000" stop-opacity="0.6158"/><stop offset="0.708" stop-color="#000" stop-opacity="0.5582"/><stop offset="0.750" stop-color="#000" stop-opacity="0.4874"/><stop offset="0.792" stop-color="#000" stop-opacity="0.4081"/><stop offset="0.833" stop-color="#000" stop-opacity="0.3251"/><stop offset="0.875" stop-color="#000" stop-opacity="0.2427"/><stop offset="0.917" stop-color="#000" stop-opacity="0.1645"/><stop offset="0.958" stop-color="#000" stop-opacity="0.0919"/><stop offset="1.000" stop-color="#000" stop-opacity="0.0000"/></radialGradient><radialGradient id="ds" cx="0.5" cy="0.5" r="0.5"><stop offset="0.000" stop-color="#000" stop-opacity="0.9200"/><stop offset="0.042" stop-color="#000" stop-opacity="0.9190"/><stop offset="0.083" stop-color="#000" stop-opacity="0.9160"/><stop offset="0.125" stop-color="#000" stop-opacity="0.9111"/><stop offset="0.167" stop-color="#000" stop-opacity="0.9041"/><stop offset="0.208" stop-color="#000" stop-opacity="0.8950"/><stop offset="0.250" stop-color="#000" stop-opacity="0.8839"/><stop offset="0.292" stop-color="#000" stop-opacity="0.8707"/><stop offset="0.333" stop-color="#000" stop-opacity="0.8552"/><stop offset="0.375" stop-color="#000" stop-opacity="0.8375"/><stop offset="0.417" stop-color="#000" stop-opacity="0.8174"/><stop offset="0.458" stop-color="#000" stop-opacity="0.7949"/><stop offset="0.500" stop-color="#000" stop-opacity="0.7697"/><stop offset="0.542" stop-color="#000" stop-opacity="0.7418"/><stop offset="0.583" stop-color="#000" stop-opacity="0.7109"/><stop offset="0.625" stop-color="#000" stop-opacity="0.6767"/><stop offset="0.667" stop-color="#000" stop-opacity="0.6390"/><stop offset="0.708" stop-color="#000" stop-opacity="0.5973"/><stop offset="0.750" stop-color="#000" stop-opacity="0.5511"/><stop offset="0.792" stop-color="#000" stop-opacity="0.4994"/><stop offset="0.833" stop-color="#000" stop-opacity="0.4411"/><stop offset="0.875" stop-color="#000" stop-opacity="0.3742"/><stop offset="0.917" stop-color="#000" stop-opacity="0.2950"/><stop offset="0.958" stop-color="#000" stop-opacity="0.1945"/><stop offset="1.000" stop-color="#000" stop-opacity="0.0000"/></radialGradient></defs><g opacity="0.4400"></g><ellipse cx="-0.0930" cy="5.5187" rx="0.2776" ry="0.2198" fill="url(#dm)"/><ellipse cx="0.5232" cy="5.5408" rx="0.2704" ry="0.2138" fill="url(#dm)"/><ellipse cx="1.1456" cy="5.5333" rx="0.2774" ry="0.2193" fill="url(#dm)"/><ellipse cx="1.6958" cy="5.5499" rx="0.2726" ry="0.2156" fill="url(#dm)"/><ellipse cx="2.2827" cy="5.5378" rx="0.2748" ry="0.2175" fill="url(#dm)"/><ellipse cx="2.8686" cy="5.5496" rx="0.2834" ry="0.2246" fill="url(#dm)"/><ellipse cx="3.5200" cy="5.5464" rx="0.2718" ry="0.2159" fill="url(#dm)"/><ellipse cx="4.1336" cy="5.5444" rx="0.2795" ry="0.2226" fill="url(#dm)"/><ellipse cx="4.7209" cy="5.5356" rx="0.2779" ry="0.2220" fill="url(#dm)"/><ellipse cx="5.2378" cy="5.5442" rx="0.2691" ry="0.2156" fill="url(#dm)"/><ellipse cx="5.8886" cy="5.5417" rx="0.2689" ry="0.2163" fill="url(#dm)"/><ellipse cx="6.4932" cy="5.5438" rx="0.2660" ry="0.2147" fill="url(#dm)"/><ellipse cx="7.0809" cy="5.5379" rx="0.2710" ry="0.2196" fill="url(#dm)"/><ellipse cx="7.6166" cy="5.5448" rx="0.2626" ry="0.2136" fill="url(#dm)"/><ellipse cx="8.2622" cy="5.5407" rx="0.2671" ry="0.2182" fill="url(#dm)"/><ellipse cx="8.7903" cy="5.5418" rx="0.2679" ry="0.2196" fill="url(#dm)"/><ellipse cx="9.4294" cy="5.5471" rx="0.2666" ry="0.2194" fill="url(#dm)"/><ellipse cx="9.9828" cy="5.5179" rx="0.2641" ry="0.2181" fill="url(#dm)"/><ellipse cx="-0.0071" cy="5.1261" rx="0.2749" ry="0.2173" fill="url(#dm)"/><ellipse cx="0.6115" cy="5.0989" rx="0.2680" ry="0.2116" fill="url(#dm)"/><ellipse cx="1.2286" cy="5.1222" rx="0.2749" ry="0.2170" fill="url(#dm)"/><ellipse cx="1.8395" cy="5.1039" rx="0.2775" ry="0.2192" fill="url(#dm)"/><ellipse cx="2.4377" cy="5.0996" rx="0.2753" ry="0.2176" fill="url(#dm)"/><ellipse cx="3.0600" cy="5.1299" rx="0.2751" ry="0.2178" fill="url(#dm)"/><ellipse cx="3.6469" cy="5.1226" rx="0.2775" ry="0.2203" fill="url(#dm)"/><ellipse cx="4.2236" cy="5.1167" rx="0.2724" ry="0.2167" fill="url(#dm)"/><ellipse cx="4.8142" cy="5.1024" rx="0.2788" ry="0.2226" fill="url(#dm)"/><ellipse cx="5.4246" cy="5.0979" rx="0.2660" ry="0.2130" fill="url(#dm)"/><ellipse cx="5.9664" cy="5.1247" rx="0.2731" ry="0.2194" fill="url(#dm)"/><ellipse cx="6.5852" cy="5.1021" rx="0.2754" ry="0.2222" fill="url(#dm)"/><ellipse cx="7.1413" cy="5.0970" rx="0.2639" ry="0.2137" fill="url(#dm)"/><ellipse cx="7.7744" cy="5.1034" rx="0.2617" ry="0.2128" fill="url(#dm)"/><ellipse cx="8.3760" cy="5.0970" rx="0.2652" ry="0.2165" fill="url(#dm)"/><ellipse cx="8.9657" cy="5.1128" rx="0.2737" ry="0.2243" fill="url(#dm)"/><ellipse cx="9.5220" cy="5.1043" rx="0.2738" ry="0.2251" fill="url(#dm)"/><ellipse cx="0.0009" cy="5.9662" rx="0.2831" ry="0.2238" fill="url(#dm)"/><ellipse cx="0.6783" cy="5.9699" rx="0.2730" ry="0.2156" fill="url(#dm)"/><ellipse cx="1.2160" cy="5.9528" rx="0.2742" ry="0.2165" fill="url(#dm)"/><ellipse cx="1.7978" cy="5.9586" rx="0.2767" ry="0.2186" fill="url(#dm)"/><ellipse cx="2.4493" cy="5.9473" rx="0.2698" ry="0.2134" fill="url(#dm)"/><ellipse cx="3.0585" cy="5.9667" rx="0.2789" ry="0.2209" fill="url(#dm)"/><ellipse cx="3.5812" cy="5.9536" rx="0.2823" ry="0.2241" fill="url(#dm)"/><ellipse cx="4.2420" cy="5.9499" rx="0.2792" ry="0.2223" fill="url(#dm)"/><ellipse cx="4.8652" cy="5.9625" rx="0.2725" ry="0.2177" fill="url(#dm)"/><ellipse cx="5.4459" cy="5.9478" rx="0.2797" ry="0.2241" fill="url(#dm)"/><ellipse cx="6.0509" cy="5.9514" rx="0.2646" ry="0.2127" fill="url(#dm)"/><ellipse cx="6.5617" cy="5.9413" rx="0.2635" ry="0.2126" fill="url(#dm)"/><ellipse cx="7.1666" cy="5.9529" rx="0.2733" ry="0.2214" fill="url(#dm)"/><ellipse cx="7.7996" cy="5.9365" rx="0.2687" ry="0.2185" fill="url(#dm)"/><ellipse cx="8.3882" cy="5.9380" rx="0.2745" ry="0.2242" fill="url(#dm)"/><ellipse cx="8.9382" cy="5.9581" rx="0.2717" ry="0.2227" fill="url(#dm)"/><ellipse cx="9.4841" cy="5.9657" rx="0.2665" ry="0.2191" fill="url(#dm)"/><ellipse cx="10.0567" cy="5.9397" rx="0.2633" ry="0.2172" fill="url(#dm)"/><ellipse cx="0.2549" cy="4.6902" rx="0.2754" ry="0.2167" fill="url(#dm)"/><ellipse cx="0.8726" cy="4.6906" rx="0.2795" ry="0.2198" fill="url(#dm)"/><ellipse cx="1.4605" cy="4.6863" rx="0.2850" ry="0.2242" fill="url(#dm)"/><ellipse cx="1.9927" cy="4.6786" rx="0.2702" ry="0.2126" fill="url(#dm)"/><ellipse cx="2.6382" cy="4.6955" rx="0.2696" ry="0.2125" fill="url(#dm)"/><ellipse cx="3.2105" cy="4.6767" rx="0.2713" ry="0.2142" fill="url(#dm)"/><ellipse cx="3.8451" cy="4.6854" rx="0.2686" ry="0.2126" fill="url(#dm)"/><ellipse cx="4.4819" cy="4.6770" rx="0.2733" ry="0.2169" fill="url(#dm)"/><ellipse cx="5.0748" cy="4.6814" rx="0.2754" ry="0.2193" fill="url(#dm)"/><ellipse cx="5.6120" cy="4.7010" rx="0.2712" ry="0.2166" fill="url(#dm)"/><ellipse cx="6.1956" cy="4.6849" rx="0.2788" ry="0.2235" fill="url(#dm)"/><ellipse cx="6.7972" cy="4.6813" rx="0.2787" ry="0.2243" fill="url(#dm)"/><ellipse cx="7.4702" cy="4.7067" rx="0.2730" ry="0.2207" fill="url(#dm)"/><ellipse cx="8.0032" cy="4.6980" rx="0.2713" ry="0.2201" fill="url(#dm)"/><ellipse cx="8.5814" cy="4.6857" rx="0.2718" ry="0.2214" fill="url(#dm)"/><ellipse cx="9.2180" cy="4.7022" rx="0.2718" ry="0.2223" fill="url(#dm)"/><ellipse cx="9.7839" cy="4.6771" rx="0.2735" ry="0.2244" fill="url(#dm)"/><ellipse cx="-0.0189" cy="6.3880" rx="0.2738" ry="0.2158" fill="url(#dm)"/><ellipse cx="0.6102" cy="6.3689" rx="0.2801" ry="0.2204" fill="url(#dm)"/><ellipse cx="1.1968" cy="6.3644" rx="0.2799" ry="0.2202" fill="url(#dm)"/><ellipse cx="1.7556" cy="6.3608" rx="0.2757" ry="0.2170" fill="url(#dm)"/><ellipse cx="2.3624" cy="6.3781" rx="0.2693" ry="0.2121" fill="url(#dm)"/><ellipse cx="3.0261" cy="6.3602" rx="0.2796" ry="0.2207" fill="url(#dm)"/><ellipse cx="3.6415" cy="6.3865" rx="0.2784" ry="0.2203" fill="url(#dm)"/><ellipse cx="4.2330" cy="6.3642" rx="0.2680" ry="0.2125" fill="url(#dm)"/><ellipse cx="4.7978" cy="6.3617" rx="0.2797" ry="0.2225" fill="url(#dm)"/><ellipse cx="5.3459" cy="6.3856" rx="0.2814" ry="0.2245" fill="url(#dm)"/><ellipse cx="5.9612" cy="6.3624" rx="0.2755" ry="0.2206" fill="url(#dm)"/><ellipse cx="6.5868" cy="6.3594" rx="0.2777" ry="0.2233" fill="url(#dm)"/><ellipse cx="7.2226" cy="6.3878" rx="0.2697" ry="0.2178" fill="url(#dm)"/><ellipse cx="7.7595" cy="6.3667" rx="0.2793" ry="0.2263" fill="url(#dm)"/><ellipse cx="8.3743" cy="6.3626" rx="0.2738" ry="0.2228" fill="url(#dm)"/><ellipse cx="8.9030" cy="6.3799" rx="0.2665" ry="0.2176" fill="url(#dm)"/><ellipse cx="9.5648" cy="6.3893" rx="0.2731" ry="0.2239" fill="url(#dm)"/><ellipse cx="-0.0495" cy="4.2747" rx="0.2797" ry="0.2188" fill="url(#dm)"/><ellipse cx="0.5418" cy="4.2594" rx="0.2746" ry="0.2146" fill="url(#dm)"/><ellipse cx="1.1509" cy="4.2813" rx="0.2789" ry="0.2178" fill="url(#dm)"/><ellipse cx="1.7597" cy="4.2834" rx="0.2823" ry="0.2206" fill="url(#dm)"/><ellipse cx="2.4383" cy="4.2787" rx="0.2714" ry="0.2124" fill="url(#dm)"/><ellipse cx="3.0112" cy="4.2835" rx="0.2794" ry="0.2189" fill="url(#dm)"/><ellipse cx="3.6084" cy="4.2599" rx="0.2786" ry="0.2188" fill="url(#dm)"/><ellipse cx="4.2609" cy="4.2732" rx="0.2764" ry="0.2177" fill="url(#dm)"/><ellipse cx="4.8400" cy="4.2704" rx="0.2754" ry="0.2176" fill="url(#dm)"/><ellipse cx="5.3980" cy="4.2831" rx="0.2702" ry="0.2141" fill="url(#dm)"/><ellipse cx="5.9957" cy="4.2809" rx="0.2707" ry="0.2153" fill="url(#dm)"/><ellipse cx="6.6019" cy="4.2863" rx="0.2676" ry="0.2136" fill="url(#dm)"/><ellipse cx="7.2714" cy="4.2662" rx="0.2739" ry="0.2197" fill="url(#dm)"/><ellipse cx="7.8611" cy="4.2702" rx="0.2756" ry="0.2218" fill="url(#dm)"/><ellipse cx="8.3822" cy="4.2594" rx="0.2666" ry="0.2154" fill="url(#dm)"/><ellipse cx="9.0184" cy="4.2609" rx="0.2768" ry="0.2245" fill="url(#dm)"/><ellipse cx="9.5900" cy="4.2657" rx="0.2710" ry="0.2206" fill="url(#dm)"/><ellipse cx="0.1684" cy="6.7958" rx="0.2781" ry="0.2177" fill="url(#dm)"/><ellipse cx="0.7810" cy="6.7771" rx="0.2805" ry="0.2193" fill="url(#dm)"/><ellipse cx="1.4542" cy="6.8023" rx="0.2831" ry="0.2214" fill="url(#dm)"/><ellipse cx="2.0205" cy="6.8007" rx="0.2867" ry="0.2243" fill="url(#dm)"/><ellipse cx="2.6250" cy="6.7868" rx="0.2836" ry="0.2221" fill="url(#dm)"/><ellipse cx="3.2628" cy="6.8086" rx="0.2800" ry="0.2198" fill="url(#dm)"/><ellipse cx="3.7869" cy="6.8075" rx="0.2740" ry="0.2155" fill="url(#dm)"/><ellipse cx="4.4541" cy="6.7987" rx="0.2775" ry="0.2190" fill="url(#dm)"/><ellipse cx="5.0865" cy="6.8086" rx="0.2794" ry="0.2212" fill="url(#dm)"/><ellipse cx="5.6852" cy="6.7943" rx="0.2699" ry="0.2144" fill="url(#dm)"/><ellipse cx="6.2232" cy="6.7813" rx="0.2677" ry="0.2134" fill="url(#dm)"/><ellipse cx="6.8405" cy="6.7787" rx="0.2764" ry="0.2212" fill="url(#dm)"/><ellipse cx="7.4508" cy="6.8077" rx="0.2679" ry="0.2153" fill="url(#dm)"/><ellipse cx="8.0411" cy="6.8005" rx="0.2684" ry="0.2165" fill="url(#dm)"/><ellipse cx="8.6311" cy="6.8032" rx="0.2795" ry="0.2263" fill="url(#dm)"/><ellipse cx="9.1773" cy="6.8070" rx="0.2762" ry="0.2245" fill="url(#dm)"/><ellipse cx="9.8201" cy="6.8033" rx="0.2710" ry="0.2211" fill="url(#dm)"/><ellipse cx="0.2200" cy="3.8635" rx="0.2830" ry="0.2194" fill="url(#dm)"/><ellipse cx="0.8390" cy="3.8387" rx="0.2802" ry="0.2170" fill="url(#dm)"/><ellipse cx="1.4366" cy="3.8623" rx="0.2883" ry="0.2232" fill="url(#dm)"/><ellipse cx="2.0921" cy="3.8515" rx="0.2799" ry="0.2169" fill="url(#dm)"/><ellipse cx="2.6568" cy="3.8501" rx="0.2820" ry="0.2189" fill="url(#dm)"/><ellipse cx="3.2969" cy="3.8594" rx="0.2758" ry="0.2145" fill="url(#dm)"/><ellipse cx="3.8901" cy="3.8671" rx="0.2816" ry="0.2195" fill="url(#dm)"/><ellipse cx="4.4518" cy="3.8408" rx="0.2854" ry="0.2230" fill="url(#dm)"/><ellipse cx="5.1400" cy="3.8378" rx="0.2745" ry="0.2153" fill="url(#dm)"/><ellipse cx="5.6987" cy="3.8602" rx="0.2699" ry="0.2124" fill="url(#dm)"/><ellipse cx="6.3190" cy="3.8405" rx="0.2798" ry="0.2210" fill="url(#dm)"/><ellipse cx="6.8878" cy="3.8510" rx="0.2822" ry="0.2238" fill="url(#dm)"/><ellipse cx="7.4641" cy="3.8486" rx="0.2763" ry="0.2199" fill="url(#dm)"/><ellipse cx="8.1398" cy="3.8470" rx="0.2698" ry="0.2157" fill="url(#dm)"/><ellipse cx="8.7209" cy="3.8528" rx="0.2758" ry="0.2213" fill="url(#dm)"/><ellipse cx="9.3118" cy="3.8458" rx="0.2709" ry="0.2183" fill="url(#dm)"/><ellipse cx="9.8707" cy="3.8652" rx="0.2775" ry="0.2243" fill="url(#dm)"/><ellipse cx="0.1681" cy="7.2190" rx="0.2768" ry="0.2147" fill="url(#dm)"/><ellipse cx="0.8012" cy="7.1967" rx="0.2795" ry="0.2166" fill="url(#dm)"/><ellipse cx="1.4114" cy="7.2055" rx="0.2827" ry="0.2191" fill="url(#dm)"/><ellipse cx="1.9733" cy="7.2271" rx="0.2782" ry="0.2158" fill="url(#dm)"/><ellipse cx="2.5731" cy="7.2199" rx="0.2764" ry="0.2146" fill="url(#dm)"/><ellipse cx="3.2073" cy="7.2105" rx="0.2883" ry="0.2243" fill="url(#dm)"/><ellipse cx="3.8445" cy="7.1967" rx="0.2826" ry="0.2204" fill="url(#dm)"/><ellipse cx="4.3946" cy="7.2047" rx="0.2753" ry="0.2153" fill="url(#dm)"/><ellipse cx="4.9989" cy="7.2082" rx="0.2842" ry="0.2229" fill="url(#dm)"/><ellipse cx="5.6580" cy="7.2079" rx="0.2795" ry="0.2201" fill="url(#dm)"/><ellipse cx="6.2449" cy="7.2146" rx="0.2814" ry="0.2224" fill="url(#dm)"/><ellipse cx="6.9027" cy="7.2097" rx="0.2754" ry="0.2186" fill="url(#dm)"/><ellipse cx="7.4452" cy="7.2064" rx="0.2699" ry="0.2150" fill="url(#dm)"/><ellipse cx="8.0539" cy="7.2113" rx="0.2724" ry="0.2179" fill="url(#dm)"/><ellipse cx="8.6654" cy="7.2209" rx="0.2670" ry="0.2144" fill="url(#dm)"/><ellipse cx="9.2455" cy="7.2052" rx="0.2723" ry="0.2195" fill="url(#dm)"/><ellipse cx="9.8220" cy="7.2254" rx="0.2756" ry="0.2229" fill="url(#dm)"/><ellipse cx="0.1105" cy="3.4202" rx="0.2883" ry="0.2207" fill="url(#dm)"/><ellipse cx="0.7271" cy="3.4376" rx="0.2857" ry="0.2185" fill="url(#dm)"/><ellipse cx="1.3362" cy="3.4207" rx="0.2894" ry="0.2213" fill="url(#dm)"/><ellipse cx="1.9996" cy="3.4278" rx="0.2826" ry="0.2162" fill="url(#dm)"/><ellipse cx="2.5707" cy="3.4293" rx="0.2786" ry="0.2135" fill="url(#dm)"/><ellipse cx="3.2092" cy="3.4477" rx="0.2821" ry="0.2166" fill="url(#dm)"/><ellipse cx="3.7595" cy="3.4401" rx="0.2760" ry="0.2123" fill="url(#dm)"/><ellipse cx="4.4187" cy="3.4406" rx="0.2848" ry="0.2198" fill="url(#dm)"/><ellipse cx="5.0397" cy="3.4380" rx="0.2755" ry="0.2133" fill="url(#dm)"/><ellipse cx="5.6461" cy="3.4254" rx="0.2846" ry="0.2211" fill="url(#dm)"/><ellipse cx="6.3043" cy="3.4354" rx="0.2760" ry="0.2153" fill="url(#dm)"/><ellipse cx="6.9116" cy="3.4443" rx="0.2744" ry="0.2149" fill="url(#dm)"/><ellipse cx="7.4378" cy="3.4492" rx="0.2799" ry="0.2200" fill="url(#dm)"/><ellipse cx="8.1175" cy="3.4197" rx="0.2774" ry="0.2190" fill="url(#dm)"/><ellipse cx="8.6791" cy="3.4461" rx="0.2794" ry="0.2214" fill="url(#dm)"/><ellipse cx="9.2566" cy="3.4363" rx="0.2725" ry="0.2167" fill="url(#dm)"/><ellipse cx="9.9335" cy="3.4393" rx="0.2755" ry="0.2200" fill="url(#dm)"/><ellipse cx="-0.0869" cy="7.6354" rx="0.2936" ry="0.2251" fill="url(#dm)"/><ellipse cx="0.5598" cy="7.6475" rx="0.2872" ry="0.2200" fill="url(#dm)"/><ellipse cx="1.2153" cy="7.6279" rx="0.2806" ry="0.2148" fill="url(#dm)"/><ellipse cx="1.8000" cy="7.6225" rx="0.2851" ry="0.2183" fill="url(#dm)"/><ellipse cx="2.3868" cy="7.6216" rx="0.2866" ry="0.2197" fill="url(#dm)"/><ellipse cx="3.0729" cy="7.6452" rx="0.2826" ry="0.2171" fill="url(#dm)"/><ellipse cx="3.6800" cy="7.6427" rx="0.2889" ry="0.2224" fill="url(#dm)"/><ellipse cx="4.3137" cy="7.6320" rx="0.2761" ry="0.2131" fill="url(#dm)"/><ellipse cx="4.8799" cy="7.6198" rx="0.2802" ry="0.2169" fill="url(#dm)"/><ellipse cx="5.4712" cy="7.6204" rx="0.2765" ry="0.2148" fill="url(#dm)"/><ellipse cx="6.0938" cy="7.6398" rx="0.2785" ry="0.2172" fill="url(#dm)"/><ellipse cx="6.7715" cy="7.6306" rx="0.2777" ry="0.2175" fill="url(#dm)"/><ellipse cx="7.3613" cy="7.6198" rx="0.2735" ry="0.2150" fill="url(#dm)"/><ellipse cx="7.9680" cy="7.6426" rx="0.2702" ry="0.2133" fill="url(#dm)"/><ellipse cx="8.5072" cy="7.6269" rx="0.2720" ry="0.2155" fill="url(#dm)"/><ellipse cx="9.1172" cy="7.6394" rx="0.2786" ry="0.2216" fill="url(#dm)"/><ellipse cx="9.7601" cy="7.6397" rx="0.2729" ry="0.2179" fill="url(#dm)"/><ellipse cx="-0.0385" cy="3.0162" rx="0.2907" ry="0.2194" fill="url(#dm)"/><ellipse cx="0.5475" cy="3.0143" rx="0.2886" ry="0.2176" fill="url(#dm)"/><ellipse cx="1.1968" cy="2.9977" rx="0.2950" ry="0.2223" fill="url(#dm)"/><ellipse cx="1.8565" cy="3.0266" rx="0.2807" ry="0.2117" fill="url(#dm)"/><ellipse cx="2.4428" cy="3.0151" rx="0.2955" ry="0.2231" fill="url(#dm)"/><ellipse cx="3.1129" cy="3.0058" rx="0.2818" ry="0.2132" fill="url(#dm)"/><ellipse cx="3.7037" cy="3.0049" rx="0.2943" ry="0.2231" fill="url(#dm)"/><ellipse cx="4.3042" cy="3.0237" rx="0.2814" ry="0.2139" fill="url(#dm)"/><ellipse cx="4.9842" cy="3.0218" rx="0.2826" ry="0.2156" fill="url(#dm)"/><ellipse cx="5.5829" cy="3.0284" rx="0.2915" ry="0.2231" fill="url(#dm)"/><ellipse cx="6.1982" cy="3.0099" rx="0.2826" ry="0.2171" fill="url(#dm)"/><ellipse cx="6.7948" cy="3.0099" rx="0.2827" ry="0.2180" fill="url(#dm)"/><ellipse cx="7.4269" cy="2.9978" rx="0.2867" ry="0.2221" fill="url(#dm)"/><ellipse cx="8.0886" cy="3.0218" rx="0.2779" ry="0.2162" fill="url(#dm)"/><ellipse cx="8.6333" cy="3.0250" rx="0.2798" ry="0.2185" fill="url(#dm)"/><ellipse cx="9.2756" cy="3.0203" rx="0.2765" ry="0.2167" fill="url(#dm)"/><ellipse cx="9.9288" cy="3.0128" rx="0.2738" ry="0.2155" fill="url(#dm)"/><ellipse cx="0.3482" cy="8.0549" rx="0.2970" ry="0.2243" fill="url(#dm)"/><ellipse cx="0.9807" cy="8.0450" rx="0.2809" ry="0.2120" fill="url(#dm)"/><ellipse cx="1.5228" cy="8.0696" rx="0.2903" ry="0.2191" fill="url(#dm)"/><ellipse cx="2.2072" cy="8.0631" rx="0.2887" ry="0.2181" fill="url(#dm)"/><ellipse cx="2.8612" cy="8.0547" rx="0.2928" ry="0.2216" fill="url(#dm)"/><ellipse cx="3.4447" cy="8.0404" rx="0.2896" ry="0.2196" fill="url(#dm)"/><ellipse cx="4.0743" cy="8.0376" rx="0.2897" ry="0.2202" fill="url(#dm)"/><ellipse cx="4.7372" cy="8.0646" rx="0.2850" ry="0.2174" fill="url(#dm)"/><ellipse cx="5.2725" cy="8.0468" rx="0.2865" ry="0.2192" fill="url(#dm)"/><ellipse cx="5.9329" cy="8.0683" rx="0.2859" ry="0.2196" fill="url(#dm)"/><ellipse cx="6.5820" cy="8.0693" rx="0.2928" ry="0.2258" fill="url(#dm)"/><ellipse cx="7.1725" cy="8.0461" rx="0.2893" ry="0.2240" fill="url(#dm)"/><ellipse cx="7.8063" cy="8.0631" rx="0.2750" ry="0.2138" fill="url(#dm)"/><ellipse cx="8.3702" cy="8.0536" rx="0.2787" ry="0.2175" fill="url(#dm)"/><ellipse cx="9.0631" cy="8.0572" rx="0.2762" ry="0.2165" fill="url(#dm)"/><ellipse cx="9.6147" cy="8.0616" rx="0.2714" ry="0.2135" fill="url(#dm)"/><ellipse cx="0.2612" cy="2.5980" rx="0.2980" ry="0.2205" fill="url(#dm)"/><ellipse cx="0.9128" cy="2.5993" rx="0.2934" ry="0.2169" fill="url(#dm)"/><ellipse cx="1.5210" cy="2.5905" rx="0.3012" ry="0.2227" fill="url(#dm)"/><ellipse cx="2.1122" cy="2.5990" rx="0.2972" ry="0.2199" fill="url(#dm)"/><ellipse cx="2.7909" cy="2.5911" rx="0.2973" ry="0.2203" fill="url(#dm)"/><ellipse cx="3.4792" cy="2.6055" rx="0.3005" ry="0.2232" fill="url(#dm)"/><ellipse cx="4.0790" cy="2.6011" rx="0.2851" ry="0.2123" fill="url(#dm)"/><ellipse cx="4.6753" cy="2.5930" rx="0.2889" ry="0.2158" fill="url(#dm)"/><ellipse cx="5.4070" cy="2.5959" rx="0.2842" ry="0.2132" fill="url(#dm)"/><ellipse cx="5.9608" cy="2.6021" rx="0.2835" ry="0.2133" fill="url(#dm)"/><ellipse cx="6.5880" cy="2.6013" rx="0.2940" ry="0.2221" fill="url(#dm)"/><ellipse cx="7.3006" cy="2.5820" rx="0.2871" ry="0.2179" fill="url(#dm)"/><ellipse cx="7.8851" cy="2.5865" rx="0.2921" ry="0.2226" fill="url(#dm)"/><ellipse cx="8.5587" cy="2.6008" rx="0.2824" ry="0.2161" fill="url(#dm)"/><ellipse cx="9.1610" cy="2.5867" rx="0.2775" ry="0.2132" fill="url(#dm)"/><ellipse cx="9.7901" cy="2.6037" rx="0.2815" ry="0.2172" fill="url(#dm)"/><ellipse cx="0.2258" cy="8.4895" rx="0.2961" ry="0.2194" fill="url(#dm)"/><ellipse cx="0.9445" cy="8.4887" rx="0.3034" ry="0.2247" fill="url(#dm)"/><ellipse cx="1.5724" cy="8.4578" rx="0.2933" ry="0.2172" fill="url(#dm)"/><ellipse cx="2.1779" cy="8.4867" rx="0.2889" ry="0.2141" fill="url(#dm)"/><ellipse cx="2.7902" cy="8.4609" rx="0.2934" ry="0.2178" fill="url(#dm)"/><ellipse cx="3.4702" cy="8.4633" rx="0.2862" ry="0.2130" fill="url(#dm)"/><ellipse cx="4.0893" cy="8.4594" rx="0.2944" ry="0.2196" fill="url(#dm)"/><ellipse cx="4.7962" cy="8.4624" rx="0.2916" ry="0.2183" fill="url(#dm)"/><ellipse cx="5.4319" cy="8.4781" rx="0.2889" ry="0.2170" fill="url(#dm)"/><ellipse cx="6.0514" cy="8.4685" rx="0.2932" ry="0.2211" fill="url(#dm)"/><ellipse cx="6.6471" cy="8.4857" rx="0.2981" ry="0.2256" fill="url(#dm)"/><ellipse cx="7.2896" cy="8.4571" rx="0.2877" ry="0.2187" fill="url(#dm)"/><ellipse cx="7.8886" cy="8.4738" rx="0.2846" ry="0.2172" fill="url(#dm)"/><ellipse cx="8.5355" cy="8.4734" rx="0.2912" ry="0.2232" fill="url(#dm)"/><ellipse cx="9.1728" cy="8.4598" rx="0.2837" ry="0.2184" fill="url(#dm)"/><ellipse cx="9.8101" cy="8.4778" rx="0.2878" ry="0.2224" fill="url(#dm)"/><ellipse cx="-0.0516" cy="2.1717" rx="0.3066" ry="0.2223" fill="url(#dm)"/><ellipse cx="0.6602" cy="2.1751" rx="0.3089" ry="0.2236" fill="url(#dm)"/><ellipse cx="1.3312" cy="2.1835" rx="0.2949" ry="0.2134" fill="url(#dm)"/><ellipse cx="1.9171" cy="2.1666" rx="0.3089" ry="0.2237" fill="url(#dm)"/><ellipse cx="2.6043" cy="2.1852" rx="0.3090" ry="0.2241" fill="url(#dm)"/><ellipse cx="3.2344" cy="2.1722" rx="0.3070" ry="0.2231" fill="url(#dm)"/><ellipse cx="3.8959" cy="2.1849" rx="0.3018" ry="0.2199" fill="url(#dm)"/><ellipse cx="4.5357" cy="2.1740" rx="0.2973" ry="0.2172" fill="url(#dm)"/><ellipse cx="5.2489" cy="2.1583" rx="0.2932" ry="0.2151" fill="url(#dm)"/><ellipse cx="5.8286" cy="2.1848" rx="0.2973" ry="0.2189" fill="url(#dm)"/><ellipse cx="6.4851" cy="2.1752" rx="0.2926" ry="0.2163" fill="url(#dm)"/><ellipse cx="7.1601" cy="2.1851" rx="0.2945" ry="0.2186" fill="url(#dm)"/><ellipse cx="7.8372" cy="2.1706" rx="0.3001" ry="0.2238" fill="url(#dm)"/><ellipse cx="8.4478" cy="2.1756" rx="0.2873" ry="0.2151" fill="url(#dm)"/><ellipse cx="9.1109" cy="2.1870" rx="0.2940" ry="0.2211" fill="url(#dm)"/><ellipse cx="9.6899" cy="2.1772" rx="0.2828" ry="0.2134" fill="url(#dm)"/><ellipse cx="-0.2857" cy="8.9038" rx="0.3098" ry="0.2251" fill="url(#dm)"/><ellipse cx="0.3706" cy="8.9034" rx="0.3088" ry="0.2240" fill="url(#dm)"/><ellipse cx="1.1150" cy="8.8963" rx="0.3029" ry="0.2196" fill="url(#dm)"/><ellipse cx="1.7102" cy="8.8911" rx="0.3092" ry="0.2243" fill="url(#dm)"/><ellipse cx="2.4332" cy="8.9043" rx="0.2999" ry="0.2178" fill="url(#dm)"/><ellipse cx="3.0833" cy="8.9042" rx="0.2940" ry="0.2139" fill="url(#dm)"/><ellipse cx="3.7185" cy="8.9075" rx="0.2924" ry="0.2132" fill="url(#dm)"/><ellipse cx="4.3177" cy="8.8892" rx="0.2915" ry="0.2132" fill="url(#dm)"/><ellipse cx="4.9699" cy="8.9054" rx="0.3057" ry="0.2244" fill="url(#dm)"/><ellipse cx="5.6582" cy="8.8788" rx="0.3037" ry="0.2238" fill="url(#dm)"/><ellipse cx="6.3235" cy="8.8981" rx="0.2999" ry="0.2219" fill="url(#dm)"/><ellipse cx="6.9004" cy="8.8938" rx="0.2976" ry="0.2210" fill="url(#dm)"/><ellipse cx="7.5761" cy="8.8852" rx="0.2987" ry="0.2228" fill="url(#dm)"/><ellipse cx="8.2376" cy="8.8846" rx="0.2934" ry="0.2198" fill="url(#dm)"/><ellipse cx="8.8140" cy="8.8871" rx="0.2886" ry="0.2170" fill="url(#dm)"/><ellipse cx="9.5119" cy="8.9038" rx="0.2834" ry="0.2141" fill="url(#dm)"/><ellipse cx="10.0885" cy="8.8997" rx="0.2985" ry="0.2263" fill="url(#dm)"/><ellipse cx="-0.2305" cy="1.7588" rx="0.3102" ry="0.2189" fill="url(#dm)"/><ellipse cx="0.4535" cy="1.7375" rx="0.3103" ry="0.2186" fill="url(#dm)"/><ellipse cx="1.0921" cy="1.7398" rx="0.3043" ry="0.2143" fill="url(#dm)"/><ellipse cx="1.7763" cy="1.7383" rx="0.3125" ry="0.2201" fill="url(#dm)"/><ellipse cx="2.4374" cy="1.7629" rx="0.3121" ry="0.2201" fill="url(#dm)"/><ellipse cx="3.1028" cy="1.7376" rx="0.3094" ry="0.2186" fill="url(#dm)"/><ellipse cx="3.7796" cy="1.7427" rx="0.3017" ry="0.2138" fill="url(#dm)"/><ellipse cx="4.4604" cy="1.7457" rx="0.3030" ry="0.2154" fill="url(#dm)"/><ellipse cx="5.1516" cy="1.7569" rx="0.3155" ry="0.2250" fill="url(#dm)"/><ellipse cx="5.8265" cy="1.7446" rx="0.3130" ry="0.2241" fill="url(#dm)"/><ellipse cx="6.4826" cy="1.7687" rx="0.3005" ry="0.2161" fill="url(#dm)"/><ellipse cx="7.1687" cy="1.7688" rx="0.3040" ry="0.2196" fill="url(#dm)"/><ellipse cx="7.8468" cy="1.7464" rx="0.3110" ry="0.2256" fill="url(#dm)"/><ellipse cx="8.5145" cy="1.7568" rx="0.3018" ry="0.2200" fill="url(#dm)"/><ellipse cx="9.0958" cy="1.7555" rx="0.3051" ry="0.2232" fill="url(#dm)"/><ellipse cx="9.7892" cy="1.7598" rx="0.2931" ry="0.2153" fill="url(#dm)"/><ellipse cx="-0.2624" cy="9.3194" rx="0.3008" ry="0.2127" fill="url(#dm)"/><ellipse cx="0.3408" cy="9.3111" rx="0.3142" ry="0.2218" fill="url(#dm)"/><ellipse cx="0.9855" cy="9.3105" rx="0.3013" ry="0.2126" fill="url(#dm)"/><ellipse cx="1.6784" cy="9.3204" rx="0.3172" ry="0.2239" fill="url(#dm)"/><ellipse cx="2.3664" cy="9.3292" rx="0.3081" ry="0.2177" fill="url(#dm)"/><ellipse cx="3.0290" cy="9.3137" rx="0.2994" ry="0.2119" fill="url(#dm)"/><ellipse cx="3.7449" cy="9.3300" rx="0.3114" ry="0.2210" fill="url(#dm)"/><ellipse cx="4.4317" cy="9.3141" rx="0.3110" ry="0.2215" fill="url(#dm)"/><ellipse cx="5.0816" cy="9.3192" rx="0.3116" ry="0.2226" fill="url(#dm)"/><ellipse cx="5.6644" cy="9.3068" rx="0.2978" ry="0.2135" fill="url(#dm)"/><ellipse cx="6.3426" cy="9.3261" rx="0.3035" ry="0.2185" fill="url(#dm)"/><ellipse cx="7.0482" cy="9.3263" rx="0.2961" ry="0.2141" fill="url(#dm)"/><ellipse cx="7.6455" cy="9.3017" rx="0.3051" ry="0.2216" fill="url(#dm)"/><ellipse cx="8.3189" cy="9.3021" rx="0.2973" ry="0.2168" fill="url(#dm)"/><ellipse cx="8.9918" cy="9.3187" rx="0.2961" ry="0.2170" fill="url(#dm)"/><ellipse cx="9.6800" cy="9.3117" rx="0.2970" ry="0.2186" fill="url(#dm)"/><ellipse cx="0.1801" cy="1.3414" rx="0.3302" ry="0.2253" fill="url(#dm)"/><ellipse cx="0.9266" cy="1.3199" rx="0.3120" ry="0.2127" fill="url(#dm)"/><ellipse cx="1.5773" cy="1.3496" rx="0.3141" ry="0.2142" fill="url(#dm)"/><ellipse cx="2.3079" cy="1.3269" rx="0.3169" ry="0.2163" fill="url(#dm)"/><ellipse cx="3.0247" cy="1.3492" rx="0.3199" ry="0.2188" fill="url(#dm)"/><ellipse cx="3.7343" cy="1.3311" rx="0.3271" ry="0.2243" fill="url(#dm)"/><ellipse cx="4.4012" cy="1.3454" rx="0.3266" ry="0.2247" fill="url(#dm)"/><ellipse cx="5.0980" cy="1.3373" rx="0.3178" ry="0.2194" fill="url(#dm)"/><ellipse cx="5.7514" cy="1.3203" rx="0.3252" ry="0.2253" fill="url(#dm)"/><ellipse cx="6.4912" cy="1.3339" rx="0.3143" ry="0.2188" fill="url(#dm)"/><ellipse cx="7.1053" cy="1.3378" rx="0.3171" ry="0.2216" fill="url(#dm)"/><ellipse cx="7.7818" cy="1.3491" rx="0.3161" ry="0.2220" fill="url(#dm)"/><ellipse cx="8.4767" cy="1.3489" rx="0.3045" ry="0.2148" fill="url(#dm)"/><ellipse cx="9.1410" cy="1.3191" rx="0.3059" ry="0.2167" fill="url(#dm)"/><ellipse cx="9.8477" cy="1.3202" rx="0.3046" ry="0.2167" fill="url(#dm)"/><ellipse cx="-0.2647" cy="9.7413" rx="0.3118" ry="0.2139" fill="url(#dm)"/><ellipse cx="0.4036" cy="9.7339" rx="0.3121" ry="0.2138" fill="url(#dm)"/><ellipse cx="1.1083" cy="9.7335" rx="0.3189" ry="0.2183" fill="url(#dm)"/><ellipse cx="1.7533" cy="9.7377" rx="0.3179" ry="0.2177" fill="url(#dm)"/><ellipse cx="2.4344" cy="9.7187" rx="0.3220" ry="0.2208" fill="url(#dm)"/><ellipse cx="3.1415" cy="9.7194" rx="0.3229" ry="0.2218" fill="url(#dm)"/><ellipse cx="3.8291" cy="9.7355" rx="0.3194" ry="0.2200" fill="url(#dm)"/><ellipse cx="4.5071" cy="9.7324" rx="0.3220" ry="0.2225" fill="url(#dm)"/><ellipse cx="5.1762" cy="9.7253" rx="0.3203" ry="0.2222" fill="url(#dm)"/><ellipse cx="5.9390" cy="9.7226" rx="0.3080" ry="0.2146" fill="url(#dm)"/><ellipse cx="6.6166" cy="9.7254" rx="0.3079" ry="0.2155" fill="url(#dm)"/><ellipse cx="7.2503" cy="9.7363" rx="0.3061" ry="0.2151" fill="url(#dm)"/><ellipse cx="7.8958" cy="9.7342" rx="0.3017" ry="0.2129" fill="url(#dm)"/><ellipse cx="8.6406" cy="9.7199" rx="0.3125" ry="0.2216" fill="url(#dm)"/><ellipse cx="9.3232" cy="9.7382" rx="0.3129" ry="0.2229" fill="url(#dm)"/><ellipse cx="9.8983" cy="9.7238" rx="0.3097" ry="0.2214" fill="url(#dm)"/><ellipse cx="0.1354" cy="0.9301" rx="0.3405" ry="0.2246" fill="url(#dm)"/><ellipse cx="0.9215" cy="0.9022" rx="0.3394" ry="0.2237" fill="url(#dm)"/><ellipse cx="1.6665" cy="0.8979" rx="0.3311" ry="0.2182" fill="url(#dm)"/><ellipse cx="2.3852" cy="0.9065" rx="0.3298" ry="0.2177" fill="url(#dm)"/><ellipse cx="3.0432" cy="0.9166" rx="0.3324" ry="0.2198" fill="url(#dm)"/><ellipse cx="3.8085" cy="0.9275" rx="0.3211" ry="0.2129" fill="url(#dm)"/><ellipse cx="4.5092" cy="0.9113" rx="0.3377" ry="0.2247" fill="url(#dm)"/><ellipse cx="5.1642" cy="0.9258" rx="0.3276" ry="0.2187" fill="url(#dm)"/><ellipse cx="5.8730" cy="0.8979" rx="0.3313" ry="0.2221" fill="url(#dm)"/><ellipse cx="6.6647" cy="0.9241" rx="0.3159" ry="0.2128" fill="url(#dm)"/><ellipse cx="7.3358" cy="0.9268" rx="0.3311" ry="0.2241" fill="url(#dm)"/><ellipse cx="8.0584" cy="0.9120" rx="0.3146" ry="0.2139" fill="url(#dm)"/><ellipse cx="8.6935" cy="0.8998" rx="0.3288" ry="0.2246" fill="url(#dm)"/><ellipse cx="9.4628" cy="0.9286" rx="0.3191" ry="0.2190" fill="url(#dm)"/><ellipse cx="10.1347" cy="0.8977" rx="0.3216" ry="0.2216" fill="url(#dm)"/><ellipse cx="0.0012" cy="10.1698" rx="0.3235" ry="0.2141" fill="url(#dm)"/><ellipse cx="0.6969" cy="10.1694" rx="0.3251" ry="0.2149" fill="url(#dm)"/><ellipse cx="1.4558" cy="10.1692" rx="0.3242" ry="0.2143" fill="url(#dm)"/><ellipse cx="2.0907" cy="10.1550" rx="0.3272" ry="0.2164" fill="url(#dm)"/><ellipse cx="2.8356" cy="10.1604" rx="0.3266" ry="0.2164" fill="url(#dm)"/><ellipse cx="3.5407" cy="10.1590" rx="0.3318" ry="0.2204" fill="url(#dm)"/><ellipse cx="4.2611" cy="10.1381" rx="0.3367" ry="0.2244" fill="url(#dm)"/><ellipse cx="4.9657" cy="10.1475" rx="0.3218" ry="0.2152" fill="url(#dm)"/><ellipse cx="5.7398" cy="10.1381" rx="0.3205" ry="0.2153" fill="url(#dm)"/><ellipse cx="6.4798" cy="10.1682" rx="0.3305" ry="0.2230" fill="url(#dm)"/><ellipse cx="7.1478" cy="10.1557" rx="0.3260" ry="0.2210" fill="url(#dm)"/><ellipse cx="7.8734" cy="10.1614" rx="0.3216" ry="0.2191" fill="url(#dm)"/><ellipse cx="8.5736" cy="10.1415" rx="0.3287" ry="0.2250" fill="url(#dm)"/><ellipse cx="9.1777" cy="10.1537" rx="0.3193" ry="0.2194" fill="url(#dm)"/><ellipse cx="9.9461" cy="10.1411" rx="0.3140" ry="0.2167" fill="url(#dm)"/></svg>