# CrossGems gem mesh: asscher
v -0.349188 -0.500000 0.013782
v 0.349188 -0.500000 0.013782
v 0.319063 -0.436732 0.073226
v -0.319063 -0.436732 0.073226
v -0.319063 -0.436732 0.073226
v -0.273888 -0.367786 0.121231
v 0.273888 -0.367786 0.121231
v 0.319063 -0.436732 0.073226
v 0.273888 -0.367786 0.121231
v 0.243113 -0.319970 0.140000
v -0.243113 -0.319970 0.140000
v -0.273888 -0.367786 0.121231
v 0.349188 -0.500000 0.013782
v 0.500000 -0.349188 0.013782
v 0.436732 -0.319063 0.073226
v 0.319063 -0.436732 0.073226
v 0.436732 -0.319063 0.073226
v 0.367786 -0.273888 0.121231
v 0.273888 -0.367786 0.121231
v 0.319063 -0.436732 0.073226
v 0.243113 -0.319970 0.140000
v 0.319970 -0.243113 0.140000
v 0.367786 -0.273888 0.121231
v 0.273888 -0.367786 0.121231
v -0.273888 -0.367786 0.121231
v -0.243113 -0.319970 0.140000
v -0.319970 -0.243113 0.140000
v -0.367786 -0.273888 0.121231
v -0.273888 -0.367786 0.121231
v -0.319063 -0.436732 0.073226
v -0.436732 -0.319063 0.073226
v -0.367786 -0.273888 0.121231
v -0.319063 -0.436732 0.073226
v -0.349188 -0.500000 0.013782
v -0.500000 -0.349188 0.013782
v -0.436732 -0.319063 0.073226
v 0.436732 -0.319063 0.073226
v 0.500000 -0.349188 0.013782
v 0.500000 0.349188 0.013782
v 0.436732 0.319063 0.073226
v 0.367786 -0.273888 0.121231
v 0.436732 -0.319063 0.073226
v 0.436732 0.319063 0.073226
v 0.367786 0.273888 0.121231
v 0.319970 -0.243113 0.140000
v 0.367786 -0.273888 0.121231
v 0.367786 0.273888 0.121231
v 0.319970 0.243113 0.140000
v 0.319970 0.243113 0.140000
v 0.243113 0.319970 0.140000
v 0.273888 0.367786 0.121231
v 0.367786 0.273888 0.121231
v 0.367786 0.273888 0.121231
v 0.273888 0.367786 0.121231
v 0.319063 0.436732 0.073226
v 0.436732 0.319063 0.073226
v 0.436732 0.319063 0.073226
v 0.319063 0.436732 0.073226
v 0.349188 0.500000 0.013782
v 0.500000 0.349188 0.013782
v 0.243113 0.319970 0.140000
v 0.273888 0.367786 0.121231
v -0.273888 0.367786 0.121231
v -0.243113 0.319970 0.140000
v -0.273888 0.367786 0.121231
v -0.319063 0.436732 0.073226
v 0.319063 0.436732 0.073226
v 0.273888 0.367786 0.121231
v 0.319063 0.436732 0.073226
v 0.349188 0.500000 0.013782
v -0.349188 0.500000 0.013782
v -0.319063 0.436732 0.073226
v -0.243113 0.319970 0.140000
v -0.273888 0.367786 0.121231
v -0.367786 0.273888 0.121231
v -0.319970 0.243113 0.140000
v -0.367786 0.273888 0.121231
v -0.436732 0.319063 0.073226
v -0.319063 0.436732 0.073226
v -0.273888 0.367786 0.121231
v -0.319063 0.436732 0.073226
v -0.349188 0.500000 0.013782
v -0.500000 0.349188 0.013782
v -0.436732 0.319063 0.073226
v -0.436732 0.319063 0.073226
v -0.500000 0.349188 0.013782
v -0.500000 -0.349188 0.013782
v -0.436732 -0.319063 0.073226
v -0.436732 -0.319063 0.073226
v -0.367786 -0.273888 0.121231
v -0.367786 0.273888 0.121231
v -0.436732 0.319063 0.073226
v -0.367786 0.273888 0.121231
v -0.319970 0.243113 0.140000
v -0.319970 -0.243113 0.140000
v -0.367786 -0.273888 0.121231
v -0.319970 0.243113 0.140000
v -0.243113 0.319970 0.140000
v 0.243113 0.319970 0.140000
v 0.319970 0.243113 0.140000
v 0.319970 -0.243113 0.140000
v 0.243113 -0.319970 0.140000
v -0.243113 -0.319970 0.140000
v -0.319970 -0.243113 0.140000
v -0.349188 -0.500000 0.013782
v -0.349188 -0.500000 -0.013782
v 0.349188 -0.500000 -0.013782
v 0.349188 -0.500000 0.013782
v 0.349188 -0.500000 -0.013782
v 0.349188 -0.500000 0.013782
v 0.500000 -0.349188 0.013782
v 0.500000 -0.349188 -0.013782
v 0.500000 -0.349188 0.013782
v 0.500000 -0.349188 -0.013782
v 0.500000 0.349188 -0.013782
v 0.500000 0.349188 0.013782
v 0.500000 0.349188 -0.013782
v 0.500000 0.349188 0.013782
v 0.349188 0.500000 0.013782
v 0.349188 0.500000 -0.013782
v 0.349188 0.500000 0.013782
v 0.349188 0.500000 -0.013782
v -0.349188 0.500000 -0.013782
v -0.349188 0.500000 0.013782
v -0.349188 0.500000 0.013782
v -0.349188 0.500000 -0.013782
v -0.500000 0.349188 -0.013782
v -0.500000 0.349188 0.013782
v -0.500000 0.349188 0.013782
v -0.500000 0.349188 -0.013782
v -0.500000 -0.349188 -0.013782
v -0.500000 -0.349188 0.013782
v -0.349188 -0.500000 0.013782
v -0.349188 -0.500000 -0.013782
v -0.500000 -0.349188 -0.013782
v -0.500000 -0.349188 0.013782
v -0.349188 -0.500000 -0.013782
v -0.240679 -0.339826 -0.271814
v 0.240679 -0.339826 -0.271814
v 0.349188 -0.500000 -0.013782
v -0.240679 -0.339826 -0.271814
v -0.178341 -0.241010 -0.350969
v 0.178341 -0.241010 -0.350969
v 0.240679 -0.339826 -0.271814
v -0.178341 -0.241010 -0.350969
v -0.106141 -0.131571 -0.424517
v 0.106141 -0.131571 -0.424517
v 0.178341 -0.241010 -0.350969
v -0.106141 -0.131571 -0.424517
v 0.106141 -0.131571 -0.424517
v 0.000000 -0.000000 -0.500000
v -0.500000 -0.349188 -0.013782
v -0.349188 -0.500000 -0.013782
v -0.240679 -0.339826 -0.271814
v -0.339826 -0.240679 -0.271814
v -0.339826 -0.240679 -0.271814
v -0.240679 -0.339826 -0.271814
v -0.178341 -0.241010 -0.350969
v -0.241010 -0.178341 -0.350969
v -0.241010 -0.178341 -0.350969
v -0.178341 -0.241010 -0.350969
v -0.106141 -0.131571 -0.424517
v -0.131571 -0.106141 -0.424517
v -0.131571 -0.106141 -0.424517
v -0.106141 -0.131571 -0.424517
v 0.000000 -0.000000 -0.500000
v 0.106141 -0.131571 -0.424517
v 0.131571 -0.106141 -0.424517
v 0.000000 -0.000000 -0.500000
v 0.106141 -0.131571 -0.424517
v 0.131571 -0.106141 -0.424517
v 0.241010 -0.178341 -0.350969
v 0.178341 -0.241010 -0.350969
v 0.241010 -0.178341 -0.350969
v 0.339826 -0.240679 -0.271814
v 0.240679 -0.339826 -0.271814
v 0.178341 -0.241010 -0.350969
v 0.240679 -0.339826 -0.271814
v 0.339826 -0.240679 -0.271814
v 0.500000 -0.349188 -0.013782
v 0.349188 -0.500000 -0.013782
v 0.500000 -0.349188 -0.013782
v 0.339826 -0.240679 -0.271814
v 0.339826 0.240679 -0.271814
v 0.500000 0.349188 -0.013782
v 0.339826 -0.240679 -0.271814
v 0.241010 -0.178341 -0.350969
v 0.241010 0.178341 -0.350969
v 0.339826 0.240679 -0.271814
v 0.131571 -0.106141 -0.424517
v 0.241010 -0.178341 -0.350969
v 0.241010 0.178341 -0.350969
v 0.131571 0.106141 -0.424517
v 0.131571 -0.106141 -0.424517
v 0.131571 0.106141 -0.424517
v 0.000000 -0.000000 -0.500000
v 0.000000 -0.000000 -0.500000
v 0.106141 0.131571 -0.424517
v 0.131571 0.106141 -0.424517
v 0.241010 0.178341 -0.350969
v 0.178341 0.241010 -0.350969
v 0.106141 0.131571 -0.424517
v 0.131571 0.106141 -0.424517
v 0.339826 0.240679 -0.271814
v 0.240679 0.339826 -0.271814
v 0.178341 0.241010 -0.350969
v 0.241010 0.178341 -0.350969
v 0.339826 0.240679 -0.271814
v 0.240679 0.339826 -0.271814
v 0.349188 0.500000 -0.013782
v 0.500000 0.349188 -0.013782
v 0.349188 0.500000 -0.013782
v 0.240679 0.339826 -0.271814
v -0.240679 0.339826 -0.271814
v -0.349188 0.500000 -0.013782
v 0.240679 0.339826 -0.271814
v 0.178341 0.241010 -0.350969
v -0.178341 0.241010 -0.350969
v -0.240679 0.339826 -0.271814
v 0.178341 0.241010 -0.350969
v 0.106141 0.131571 -0.424517
v -0.106141 0.131571 -0.424517
v -0.178341 0.241010 -0.350969
v 0.106141 0.131571 -0.424517
v -0.106141 0.131571 -0.424517
v 0.000000 -0.000000 -0.500000
v 0.000000 -0.000000 -0.500000
v -0.131571 0.106141 -0.424517
v -0.106141 0.131571 -0.424517
v -0.106141 0.131571 -0.424517
v -0.131571 0.106141 -0.424517
v -0.241010 0.178341 -0.350969
v -0.178341 0.241010 -0.350969
v -0.178341 0.241010 -0.350969
v -0.240679 0.339826 -0.271814
v -0.339826 0.240679 -0.271814
v -0.241010 0.178341 -0.350969
v -0.240679 0.339826 -0.271814
v -0.339826 0.240679 -0.271814
v -0.500000 0.349188 -0.013782
v -0.349188 0.500000 -0.013782
v -0.131571 0.106141 -0.424517
v -0.131571 -0.106141 -0.424517
v 0.000000 -0.000000 -0.500000
v -0.241010 0.178341 -0.350969
v -0.131571 0.106141 -0.424517
v -0.131571 -0.106141 -0.424517
v -0.241010 -0.178341 -0.350969
v -0.241010 -0.178341 -0.350969
v -0.339826 -0.240679 -0.271814
v -0.339826 0.240679 -0.271814
v -0.241010 0.178341 -0.350969
v -0.339826 -0.240679 -0.271814
v -0.500000 -0.349188 -0.013782
v -0.500000 0.349188 -0.013782
v -0.339826 0.240679 -0.271814
f 1 2 3 4
f 5 8 7 6
f 9 10 11 12
f 13 14 15 16
f 17 18 19 20
f 21 24 23 22
f 25 26 27 28
f 29 32 31 30
f 33 36 35 34
f 37 38 39 40
f 41 42 43 44
f 45 46 47 48
f 49 52 51 50
f 53 56 55 54
f 57 60 59 58
f 61 62 63 64
f 65 68 67 66
f 69 70 71 72
f 73 74 75 76
f 77 80 79 78
f 81 82 83 84
f 85 86 87 88
f 89 90 91 92
f 93 96 95 94
f 103 98 97
f 97 104 103
f 103 99 98
f 102 100 99
f 100 102 101
f 103 102 99
f 105 106 107 108
f 109 112 111 110
f 113 114 115 116
f 117 120 119 118
f 121 122 123 124
f 125 126 127 128
f 129 130 131 132
f 133 136 135 134
f 137 138 139 140
f 141 142 143 144
f 145 146 147 148
f 149 151 150
f 152 155 154 153
f 156 159 158 157
f 160 163 162 161
f 164 166 165
f 167 169 168
f 170 171 172 173
f 174 175 176 177
f 178 179 180 181
f 182 183 184 185
f 186 187 188 189
f 190 193 192 191
f 194 196 195
f 197 198 199
f 200 203 202 201
f 204 207 206 205
f 208 209 210 211
f 212 213 214 215
f 216 217 218 219
f 220 221 222 223
f 224 226 225
f 227 228 229
f 230 231 232 233
f 234 237 236 235
f 238 239 240 241
f 242 244 243
f 245 246 247 248
f 249 250 251 252
f 253 254 255 256
