# CrossGems gem mesh: baguette
v 0.312550 0.500050 0.006300
v 0.312550 0.500050 -0.006300
v -0.312450 0.500050 -0.006300
v -0.312450 0.500050 0.006300
v 0.312550 0.500050 0.006300
v 0.250025 0.437500 0.059600
v -0.249950 0.437500 0.059600
v -0.312450 0.500050 0.006300
v -0.249950 0.437500 0.059600
v -0.187450 0.374950 0.087800
v 0.187500 0.374950 0.087800
v 0.250025 0.437500 0.059600
v 0.250050 0.437550 -0.081900
v -0.249950 0.437550 -0.081900
v -0.062450 0.250050 -0.247400
v 0.062512 0.250050 -0.247400
v 0.062512 0.250050 -0.247400
v -0.062450 0.250050 -0.247400
v -0.000017 0.187550 -0.293400
v 0.312550 0.500050 -0.006300
v 0.250050 0.437550 -0.081900
v -0.249950 0.437550 -0.081900
v -0.312450 0.500050 -0.006300
v 0.312550 -0.500050 0.006300
v 0.312550 -0.500050 -0.006300
v -0.312450 -0.500050 -0.006300
v -0.312450 -0.500050 0.006300
v 0.312550 -0.500050 0.006300
v 0.250025 -0.437500 0.059600
v -0.249950 -0.437500 0.059600
v -0.312450 -0.500050 0.006300
v -0.249950 -0.437500 0.059600
v -0.187450 -0.374950 0.087800
v 0.187500 -0.374950 0.087800
v 0.250025 -0.437500 0.059600
v 0.250050 -0.437550 -0.081900
v -0.249950 -0.437550 -0.081900
v -0.062450 -0.250050 -0.247400
v 0.062512 -0.250050 -0.247400
v 0.062512 -0.250050 -0.247400
v -0.062450 -0.250050 -0.247400
v -0.000017 -0.187550 -0.293400
v 0.312550 -0.500050 -0.006300
v 0.250050 -0.437550 -0.081900
v -0.249950 -0.437550 -0.081900
v -0.312450 -0.500050 -0.006300
v 0.187500 -0.374950 0.087800
v 0.187500 0.374950 0.087800
v 0.250025 0.437500 0.059600
v 0.250025 -0.437500 0.059600
v 0.250025 -0.437500 0.059600
v 0.250025 0.437500 0.059600
v 0.312550 0.500050 0.006300
v 0.312550 -0.500050 0.006300
v 0.312550 -0.500050 0.006300
v 0.312550 -0.500050 -0.006300
v 0.312550 0.500050 -0.006300
v 0.312550 0.500050 0.006300
v 0.312550 -0.500050 -0.006300
v 0.250050 -0.437550 -0.081900
v 0.250050 0.437550 -0.081900
v 0.312550 0.500050 -0.006300
v 0.062512 -0.250050 -0.247400
v 0.250050 -0.437550 -0.081900
v 0.250050 0.437550 -0.081900
v 0.062512 0.250050 -0.247400
v -0.000017 -0.187550 -0.293400
v 0.062512 -0.250050 -0.247400
v 0.062512 0.250050 -0.247400
v -0.000017 0.187550 -0.293400
v -0.062450 -0.250050 -0.247400
v -0.000017 -0.187550 -0.293400
v -0.000017 0.187550 -0.293400
v -0.062450 0.250050 -0.247400
v -0.062450 0.250050 -0.247400
v -0.249950 0.437550 -0.081900
v -0.249950 -0.437550 -0.081900
v -0.062450 -0.250050 -0.247400
v -0.249950 0.437550 -0.081900
v -0.312450 0.500050 -0.006300
v -0.312450 -0.500050 -0.006300
v -0.249950 -0.437550 -0.081900
v -0.312450 -0.500050 0.006300
v -0.312450 -0.500050 -0.006300
v -0.312450 0.500050 -0.006300
v -0.312450 0.500050 0.006300
v -0.249950 -0.437500 0.059600
v -0.312450 -0.500050 0.006300
v -0.312450 0.500050 0.006300
v -0.249950 0.437500 0.059600
v -0.249950 0.437500 0.059600
v -0.187450 0.374950 0.087800
v -0.187450 -0.374950 0.087800
v -0.249950 -0.437500 0.059600
v -0.187450 0.374950 0.087800
v 0.187500 0.374950 0.087800
v 0.187500 -0.374950 0.087800
v -0.187450 -0.374950 0.087800
f 1 2 3 4
f 5 8 7 6
f 9 10 11 12
f 13 16 15 14
f 17 19 18
f 20 21 22 23
f 24 27 26 25
f 28 29 30 31
f 32 35 34 33
f 36 37 38 39
f 40 41 42
f 43 46 45 44
f 47 50 49 48
f 51 54 53 52
f 55 56 57 58
f 59 60 61 62
f 63 66 65 64
f 67 70 69 68
f 71 74 73 72
f 75 78 77 76
f 79 82 81 80
f 83 86 85 84
f 87 90 89 88
f 91 94 93 92
f 95 98 97 96
