# CrossGems gem mesh: barion
v -0.439472 -0.439472 0.009303
v -0.356729 -0.356729 0.082074
v -0.201605 -0.486786 0.009303
v -0.201605 -0.486786 0.009303
v 0.000000 -0.392878 0.088401
v 0.000000 -0.500000 0.009303
v -0.356729 -0.356729 0.082074
v -0.144934 -0.299757 0.123083
v 0.000000 -0.392878 0.088401
v -0.201605 -0.486786 0.009303
v 0.000000 -0.392878 0.088401
v 0.201605 -0.486786 0.009303
v 0.000000 -0.500000 0.009303
v 0.000000 -0.392878 0.088401
v 0.144934 -0.299757 0.123083
v 0.356729 -0.356729 0.082074
v 0.201605 -0.486786 0.009303
v 0.201605 -0.486786 0.009303
v 0.439472 -0.439472 0.009303
v 0.356729 -0.356729 0.082074
v -0.144934 -0.299757 0.123083
v 0.000000 -0.392878 0.088401
v 0.144934 -0.299757 0.123083
v 0.144934 -0.299757 0.123083
v 0.254411 -0.254411 0.123083
v 0.356729 -0.356729 0.082074
v -0.356729 -0.356729 0.082074
v -0.254411 -0.254411 0.123083
v -0.144934 -0.299757 0.123083
v 0.356729 -0.356729 0.082074
v 0.439472 -0.439472 0.009303
v 0.486786 -0.201605 0.009303
v 0.356729 -0.356729 0.082074
v 0.299757 -0.144934 0.123083
v 0.254411 -0.254411 0.123083
v 0.356729 -0.356729 0.082074
v 0.299757 -0.144934 0.123083
v 0.392878 0.000000 0.088401
v 0.486786 -0.201605 0.009303
v 0.486786 -0.201605 0.009303
v 0.500000 0.000000 0.009303
v 0.392878 0.000000 0.088401
v 0.392878 0.000000 0.088401
v 0.486786 0.201605 0.009303
v 0.500000 0.000000 0.009303
v 0.299757 -0.144934 0.123083
v 0.392878 0.000000 0.088401
v 0.299757 0.144934 0.123083
v 0.392878 0.000000 0.088401
v 0.486786 0.201605 0.009303
v 0.356729 0.356729 0.082074
v 0.299757 0.144934 0.123083
v 0.486786 0.201605 0.009303
v 0.439472 0.439472 0.009303
v 0.356729 0.356729 0.082074
v 0.299757 0.144934 0.123083
v 0.254411 0.254411 0.123083
v 0.356729 0.356729 0.082074
v 0.254411 0.254411 0.123083
v 0.144934 0.299757 0.123083
v 0.356729 0.356729 0.082074
v 0.356729 0.356729 0.082074
v 0.439472 0.439472 0.009303
v 0.201605 0.486786 0.009303
v 0.356729 0.356729 0.082074
v 0.144934 0.299757 0.123083
v 0.000000 0.392878 0.088401
v 0.201605 0.486786 0.009303
v 0.201605 0.486786 0.009303
v 0.000000 0.392878 0.088401
v 0.000000 0.500000 0.009303
v 0.000000 0.392878 0.088401
v -0.201605 0.486786 0.009303
v 0.000000 0.500000 0.009303
v 0.144934 0.299757 0.123083
v 0.000000 0.392878 0.088401
v -0.144934 0.299757 0.123083
v 0.000000 0.392878 0.088401
v -0.201605 0.486786 0.009303
v -0.356729 0.356729 0.082074
v -0.144934 0.299757 0.123083
v -0.201605 0.486786 0.009303
v -0.439472 0.439472 0.009303
v -0.356729 0.356729 0.082074
v -0.144934 0.299757 0.123083
v -0.356729 0.356729 0.082074
v -0.254411 0.254411 0.123083
v -0.254411 0.254411 0.123083
v -0.356729 0.356729 0.082074
v -0.299757 0.144934 0.123083
v -0.356729 0.356729 0.082074
v -0.439472 0.439472 0.009303
v -0.486786 0.201605 0.009303
v -0.356729 0.356729 0.082074
v -0.299757 0.144934 0.123083
v -0.392878 0.000000 0.088401
v -0.486786 0.201605 0.009303
v -0.486786 0.201605 0.009303
v -0.500000 0.000000 0.009303
v -0.392878 0.000000 0.088401
v -0.392878 0.000000 0.088401
v -0.500000 0.000000 0.009303
v -0.486786 -0.201605 0.009303
v -0.299757 0.144934 0.123083
v -0.392878 0.000000 0.088401
v -0.299757 -0.144934 0.123083
v -0.392878 0.000000 0.088401
v -0.486786 -0.201605 0.009303
v -0.356729 -0.356729 0.082074
v -0.299757 -0.144934 0.123083
v -0.486786 -0.201605 0.009303
v -0.439472 -0.439472 0.009303
v -0.356729 -0.356729 0.082074
v -0.356729 -0.356729 0.082074
v -0.254411 -0.254411 0.123083
v -0.299757 -0.144934 0.123083
v -0.299757 0.144934 0.123083
v -0.299757 -0.144934 0.123083
v -0.254411 -0.254411 0.123083
v -0.144934 -0.299757 0.123083
v 0.144934 -0.299757 0.123083
v 0.254411 -0.254411 0.123083
v 0.299757 -0.144934 0.123083
v 0.299757 0.144934 0.123083
v 0.254411 0.254411 0.123083
v 0.144934 0.299757 0.123083
v -0.144934 0.299757 0.123083
v -0.254411 0.254411 0.123083
v 0.201605 0.486786 0.009303
v 0.201605 0.486786 -0.009303
v 0.000000 0.500000 -0.009303
v 0.000000 0.500000 0.009303
v 0.000000 0.500000 0.009303
v 0.000000 0.500000 -0.009303
v -0.201605 0.486786 -0.009303
v -0.201605 0.486786 0.009303
v -0.201605 0.486786 0.009303
v -0.201605 0.486786 -0.009303
v -0.439472 0.439472 -0.009417
v -0.439472 0.439472 0.009303
v 0.201605 0.486786 0.009303
v 0.201605 0.486786 -0.009303
v 0.439472 0.439472 -0.009417
v 0.439472 0.439472 0.009303
v 0.201605 -0.486786 0.009303
v 0.201605 -0.486786 -0.009303
v 0.000000 -0.500000 -0.009303
v 0.000000 -0.500000 0.009303
v 0.000000 -0.500000 0.009303
v 0.000000 -0.500000 -0.009303
v -0.201605 -0.486786 -0.009303
v -0.201605 -0.486786 0.009303
v -0.201605 -0.486786 0.009303
v -0.201605 -0.486786 -0.009303
v -0.439472 -0.439472 -0.009417
v -0.439472 -0.439472 0.009303
v 0.201605 -0.486786 0.009303
v 0.201605 -0.486786 -0.009303
v 0.439472 -0.439472 -0.009417
v 0.439472 -0.439472 0.009303
v -0.486786 0.201605 0.009303
v -0.486786 0.201605 -0.009303
v -0.500000 0.000000 -0.009303
v -0.500000 0.000000 0.009303
v -0.500000 0.000000 0.009303
v -0.500000 0.000000 -0.009303
v -0.486786 -0.201605 -0.009303
v -0.486786 -0.201605 0.009303
v -0.486786 -0.201605 0.009303
v -0.486786 -0.201605 -0.009303
v -0.439472 -0.439472 -0.009417
v -0.439472 -0.439472 0.009303
v -0.486786 0.201605 0.009303
v -0.486786 0.201605 -0.009303
v -0.439472 0.439472 -0.009417
v -0.439472 0.439472 0.009303
v 0.486786 0.201605 0.009303
v 0.486786 0.201605 -0.009303
v 0.500000 0.000000 -0.009303
v 0.500000 0.000000 0.009303
v 0.500000 0.000000 0.009303
v 0.500000 0.000000 -0.009303
v 0.486786 -0.201605 -0.009303
v 0.486786 -0.201605 0.009303
v 0.486786 -0.201605 0.009303
v 0.486786 -0.201605 -0.009303
v 0.439472 -0.439472 -0.009417
v 0.439472 -0.439472 0.009303
v 0.486786 0.201605 0.009303
v 0.486786 0.201605 -0.009303
v 0.439472 0.439472 -0.009417
v 0.439472 0.439472 0.009303
v 0.424941 0.176016 -0.127142
v 0.410170 0.000000 -0.175944
v 0.500000 0.000000 -0.009303
v 0.424941 0.176016 -0.127142
v 0.439472 0.439472 -0.009417
v 0.184068 0.184068 -0.294030
v 0.424941 0.176016 -0.127142
v 0.410170 0.000000 -0.175944
v 0.260311 0.000000 -0.294030
v 0.424941 0.176016 -0.127142
v 0.184068 0.184068 -0.294030
v 0.000000 0.000000 -0.476917
v 0.260311 0.000000 -0.294030
v 0.424941 -0.176016 -0.127142
v 0.410170 0.000000 -0.175944
v 0.500000 0.000000 -0.009303
v 0.424941 -0.176016 -0.127142
v 0.439472 -0.439472 -0.009417
v 0.184068 -0.184068 -0.294030
v 0.424941 -0.176016 -0.127142
v 0.410170 0.000000 -0.175944
v 0.260311 0.000000 -0.294030
v 0.424941 -0.176016 -0.127142
v 0.184068 -0.184068 -0.294030
v 0.000000 0.000000 -0.476917
v 0.260311 0.000000 -0.294030
v 0.486786 -0.201605 -0.009303
v 0.500000 0.000000 -0.009303
v 0.424941 -0.176016 -0.127142
v 0.424941 -0.176016 -0.127142
v 0.486786 -0.201605 -0.009303
v 0.439472 -0.439472 -0.009417
v 0.486786 0.201605 -0.009303
v 0.424941 0.176016 -0.127142
v 0.500000 0.000000 -0.009303
v -0.424941 0.176016 -0.127142
v -0.410170 0.000000 -0.175944
v -0.500000 0.000000 -0.009303
v -0.424941 0.176016 -0.127142
v -0.439472 0.439472 -0.009417
v -0.184068 0.184068 -0.294030
v -0.424941 0.176016 -0.127142
v -0.410170 0.000000 -0.175944
v -0.260311 0.000000 -0.294030
v -0.424941 0.176016 -0.127142
v -0.184068 0.184068 -0.294030
v 0.000000 0.000000 -0.476917
v -0.260311 0.000000 -0.294030
v -0.424941 -0.176016 -0.127142
v -0.410170 0.000000 -0.175944
v -0.500000 0.000000 -0.009303
v -0.424941 -0.176016 -0.127142
v -0.439472 -0.439472 -0.009417
v -0.184068 -0.184068 -0.294030
v -0.424941 -0.176016 -0.127142
v -0.410170 0.000000 -0.175944
v -0.260311 0.000000 -0.294030
v -0.424941 -0.176016 -0.127142
v -0.184068 -0.184068 -0.294030
v 0.000000 0.000000 -0.476917
v -0.260311 0.000000 -0.294030
v -0.486786 -0.201605 -0.009303
v -0.500000 0.000000 -0.009303
v -0.424941 -0.176016 -0.127142
v -0.424941 -0.176016 -0.127142
v -0.486786 -0.201605 -0.009303
v -0.439472 -0.439472 -0.009417
v -0.486786 0.201605 -0.009303
v -0.424941 0.176016 -0.127142
v -0.500000 0.000000 -0.009303
v 0.176016 -0.424941 -0.127142
v 0.201605 -0.486786 -0.009303
v 0.000000 -0.500000 -0.009303
v -0.201605 -0.486786 -0.009303
v 0.000000 -0.500000 -0.009303
v -0.176134 -0.424970 -0.127073
v -0.201605 -0.486786 -0.009303
v -0.439472 -0.439472 -0.009417
v -0.176134 -0.424970 -0.127073
v 0.176016 -0.424941 -0.127142
v 0.000000 -0.410170 -0.175944
v 0.000000 -0.500000 -0.009303
v 0.176016 -0.424941 -0.127142
v 0.439472 -0.439472 -0.009417
v 0.184068 -0.184068 -0.294030
v 0.176016 -0.424941 -0.127142
v 0.000000 -0.410170 -0.175944
v 0.000000 -0.260311 -0.294030
v 0.176016 -0.424941 -0.127142
v 0.184068 -0.184068 -0.294030
v 0.000000 0.000000 -0.476917
v 0.000000 -0.260311 -0.294030
v -0.176134 -0.424970 -0.127073
v 0.000000 -0.410170 -0.175944
v 0.000000 -0.500000 -0.009303
v -0.176134 -0.424970 -0.127073
v -0.439472 -0.439472 -0.009417
v -0.184068 -0.184068 -0.294030
v -0.176134 -0.424970 -0.127073
v 0.000000 -0.410170 -0.175944
v 0.000000 -0.260311 -0.294030
v -0.176134 -0.424970 -0.127073
v -0.184068 -0.184068 -0.294030
v 0.000000 0.000000 -0.476917
v 0.000000 -0.260311 -0.294030
v 0.176016 0.424941 -0.127142
v 0.201605 0.486786 -0.009303
v 0.000000 0.500000 -0.009303
v -0.201605 0.486786 -0.009303
v 0.000000 0.500000 -0.009303
v -0.176134 0.424970 -0.127073
v -0.201605 0.486786 -0.009303
v -0.439472 0.439472 -0.009417
v -0.176134 0.424970 -0.127073
v 0.176016 0.424941 -0.127142
v 0.000000 0.410170 -0.175944
v 0.000000 0.500000 -0.009303
v 0.176016 0.424941 -0.127142
v 0.439472 0.439472 -0.009417
v 0.184068 0.184068 -0.294030
v 0.176016 0.424941 -0.127142
v 0.000000 0.410170 -0.175944
v 0.000000 0.260311 -0.294030
v 0.176016 0.424941 -0.127142
v 0.184068 0.184068 -0.294030
v 0.000000 0.000000 -0.476917
v 0.000000 0.260311 -0.294030
v -0.176134 0.424970 -0.127073
v 0.000000 0.410170 -0.175944
v 0.000000 0.500000 -0.009303
v -0.176134 0.424970 -0.127073
v -0.439472 0.439472 -0.009417
v -0.184068 0.184068 -0.294030
v -0.176134 0.424970 -0.127073
v 0.000000 0.410170 -0.175944
v 0.000000 0.260311 -0.294030
v -0.176134 0.424970 -0.127073
v -0.184068 0.184068 -0.294030
v 0.000000 0.000000 -0.476917
v 0.000000 0.260311 -0.294030
v 0.486786 0.201605 -0.009303
v 0.439472 0.439472 -0.009417
v 0.424941 0.176016 -0.127142
v -0.486786 0.201605 -0.009303
v -0.439472 0.439472 -0.009417
v -0.424941 0.176016 -0.127142
v 0.201605 -0.486786 -0.009303
v 0.439472 -0.439472 -0.009417
v 0.176016 -0.424941 -0.127142
v 0.201605 0.486786 -0.009303
v 0.439472 0.439472 -0.009417
v 0.176016 0.424941 -0.127142
f 1 3 2
f 4 6 5
f 8 7 10
f 10 9 8
f 11 13 12
f 17 15 14
f 15 17 16
f 18 19 20
f 21 22 23
f 24 26 25
f 27 29 28
f 30 31 32
f 33 34 35
f 37 36 39
f 39 38 37
f 40 41 42
f 43 45 44
f 46 47 48
f 50 52 49
f 52 50 51
f 53 54 55
f 56 58 57
f 59 61 60
f 62 63 64
f 66 65 68
f 68 67 66
f 69 71 70
f 72 74 73
f 75 76 77
f 79 81 78
f 81 79 80
f 82 83 84
f 85 86 87
f 88 89 90
f 91 92 93
f 95 94 97
f 97 96 95
f 98 99 100
f 101 102 103
f 104 105 106
f 108 110 107
f 110 108 109
f 111 112 113
f 114 115 116
f 120 118 119
f 123 117 118
f 128 117 127
f 117 124 127
f 120 121 118
f 123 121 122
f 117 123 124
f 125 126 124
f 124 126 127
f 123 118 121
f 129 130 131 132
f 133 134 135 136
f 137 138 139 140
f 141 144 143 142
f 145 148 147 146
f 149 152 151 150
f 153 156 155 154
f 157 158 159 160
f 161 162 163 164
f 165 166 167 168
f 169 170 171 172
f 173 176 175 174
f 177 180 179 178
f 181 184 183 182
f 185 188 187 186
f 189 190 191 192
f 193 195 194
f 196 198 197
f 199 200 201
f 202 205 204 203
f 206 207 208
f 209 210 211
f 212 214 213
f 215 216 217 218
f 219 221 220
f 222 223 224
f 225 227 226
f 228 229 230
f 231 232 233
f 234 236 235
f 237 238 239 240
f 241 243 242
f 244 246 245
f 247 248 249
f 250 253 252 251
f 254 255 256
f 257 259 258
f 260 261 262
f 263 264 265
f 266 268 267
f 269 270 271
f 272 274 273
f 275 277 276
f 278 279 280
f 281 284 283 282
f 285 286 287
f 288 289 290
f 291 293 292
f 294 295 296 297
f 298 300 299
f 301 302 303
f 304 306 305
f 307 308 309
f 310 311 312
f 313 315 314
f 316 317 318 319
f 320 322 321
f 323 325 324
f 326 327 328
f 329 332 331 330
f 333 335 334
f 336 337 338
f 339 341 340
f 342 343 344
