# CrossGems gem mesh: brilliant
v 0.500000 -0.000000 0.013400
v 0.490382 0.097590 0.005200
v 0.461940 0.191342 0.013400
v 0.344007 0.142482 0.119600
v 0.344007 0.142482 0.119600
v 0.285000 -0.000000 0.159800
v 0.201525 0.201525 0.159800
v 0.344007 0.142482 0.119600
v 0.461940 0.191342 0.013400
v 0.415708 0.277822 0.005200
v 0.353553 0.353553 0.013400
v 0.344007 0.142482 0.119600
v 0.201525 0.201525 0.159800
v 0.142500 0.344000 0.119600
v 0.353553 0.353553 0.013400
v 0.142500 0.344000 0.119600
v 0.191342 0.461940 0.013400
v 0.277746 0.415759 0.005200
v 0.353553 0.353553 0.013400
v 0.142500 0.344000 0.119600
v 0.000000 0.500000 0.013400
v 0.097500 0.490400 0.005200
v 0.191342 0.461940 0.013400
v 0.000000 0.500000 0.013400
v 0.000000 0.500000 -0.013400
v 0.097500 0.490400 -0.004900
v 0.097500 0.490400 0.005200
v 0.097500 0.490400 0.005200
v 0.097500 0.490400 -0.004900
v 0.191342 0.461940 -0.013400
v 0.191342 0.461940 0.013400
v 0.191342 0.461940 0.013400
v 0.191342 0.461940 -0.013400
v 0.277784 0.415733 -0.004900
v 0.277746 0.415759 0.005200
v 0.277746 0.415759 0.005200
v 0.277784 0.415733 -0.004900
v 0.353553 0.353553 -0.013400
v 0.353553 0.353553 0.013400
v 0.353553 0.353553 -0.013400
v 0.353553 0.353553 0.013400
v 0.415708 0.277822 0.005200
v 0.415708 0.277822 -0.004900
v 0.415708 0.277822 -0.004900
v 0.415708 0.277822 0.005200
v 0.461940 0.191342 0.013400
v 0.461940 0.191342 -0.013400
v 0.461940 0.191342 0.013400
v 0.461940 0.191342 -0.013400
v 0.490391 0.097545 -0.004900
v 0.490382 0.097590 0.005200
v 0.490382 0.097590 0.005200
v 0.490391 0.097545 -0.004900
v 0.500000 -0.000000 -0.013400
v 0.500000 -0.000000 0.013400
v 0.500000 -0.000000 -0.013400
v 0.490391 0.097545 -0.004900
v 0.461940 0.191342 -0.013400
v 0.090004 0.037291 -0.363400
v 0.000000 0.000000 -0.440200
v 0.090004 0.037291 -0.363400
v 0.500000 -0.000000 -0.013400
v 0.090011 -0.037274 -0.363400
v 0.461940 0.191342 -0.013400
v 0.415708 0.277822 -0.004900
v 0.353553 0.353553 -0.013400
v 0.090004 0.037291 -0.363400
v 0.000000 0.000000 -0.440200
v 0.037274 0.090011 -0.363400
v 0.353553 0.353553 -0.013400
v 0.090004 0.037291 -0.363400
v 0.000000 0.000000 -0.440200
v -0.037291 0.090004 -0.363400
v 0.000000 0.500000 -0.013400
v 0.037274 0.090011 -0.363400
v 0.000000 0.000000 -0.440200
v -0.090011 0.037274 -0.363400
v -0.353553 0.353553 -0.013400
v -0.037291 0.090004 -0.363400
v 0.000000 0.000000 -0.440200
v -0.090004 -0.037291 -0.363400
v -0.500000 0.000000 -0.013400
v -0.090011 0.037274 -0.363400
v 0.000000 0.000000 -0.440200
v -0.037274 -0.090011 -0.363400
v -0.353553 -0.353553 -0.013400
v -0.090004 -0.037291 -0.363400
v 0.000000 0.000000 -0.440200
v 0.037291 -0.090004 -0.363400
v -0.000000 -0.500000 -0.013400
v -0.037274 -0.090011 -0.363400
v 0.000000 0.000000 -0.440200
v 0.090011 -0.037274 -0.363400
v 0.353553 -0.353553 -0.013400
v 0.037291 -0.090004 -0.363400
v 0.353553 0.353553 -0.013400
v 0.277784 0.415733 -0.004900
v 0.191342 0.461940 -0.013400
v 0.037274 0.090011 -0.363400
v 0.191342 0.461940 -0.013400
v 0.097500 0.490400 -0.004900
v 0.000000 0.500000 -0.013400
v 0.037274 0.090011 -0.363400
v 0.000000 0.500000 -0.013400
v -0.097545 0.490391 -0.004900
v -0.191342 0.461940 -0.013400
v -0.037291 0.090004 -0.363400
v -0.191342 0.461940 -0.013400
v -0.277822 0.415708 -0.004900
v -0.353553 0.353553 -0.013400
v -0.037291 0.090004 -0.363400
v -0.353553 0.353553 -0.013400
v -0.415733 0.277784 -0.004900
v -0.461940 0.191342 -0.013400
v -0.090011 0.037274 -0.363400
v -0.461940 0.191342 -0.013400
v -0.490400 0.097500 -0.004900
v -0.500000 0.000000 -0.013400
v -0.090011 0.037274 -0.363400
v -0.500000 0.000000 -0.013400
v -0.490391 -0.097545 -0.004900
v -0.461940 -0.191342 -0.013400
v -0.090004 -0.037291 -0.363400
v -0.461940 -0.191342 -0.013400
v -0.415708 -0.277822 -0.004900
v -0.353553 -0.353553 -0.013400
v -0.090004 -0.037291 -0.363400
v -0.353553 -0.353553 -0.013400
v -0.277784 -0.415733 -0.004900
v -0.191342 -0.461940 -0.013400
v -0.037274 -0.090011 -0.363400
v -0.191342 -0.461940 -0.013400
v -0.097500 -0.490400 -0.004900
v -0.000000 -0.500000 -0.013400
v -0.037274 -0.090011 -0.363400
v -0.000000 -0.500000 -0.013400
v 0.097545 -0.490391 -0.004900
v 0.191342 -0.461940 -0.013400
v 0.037291 -0.090004 -0.363400
v 0.191342 -0.461940 -0.013400
v 0.277822 -0.415708 -0.004900
v 0.353553 -0.353553 -0.013400
v 0.037291 -0.090004 -0.363400
v 0.353553 -0.353553 -0.013400
v 0.415733 -0.277784 -0.004900
v 0.461940 -0.191342 -0.013400
v 0.090011 -0.037274 -0.363400
v 0.461940 -0.191342 -0.013400
v 0.490400 -0.097500 -0.004900
v 0.500000 -0.000000 -0.013400
v 0.090011 -0.037274 -0.363400
v -0.500000 0.000000 0.013400
v -0.500000 0.000000 -0.013400
v -0.490400 0.097500 -0.004900
v -0.490400 0.097500 0.005200
v -0.490400 0.097500 0.005200
v -0.490400 0.097500 -0.004900
v -0.461940 0.191342 -0.013400
v -0.461940 0.191342 0.013400
v -0.461940 0.191342 0.013400
v -0.461940 0.191342 -0.013400
v -0.415733 0.277784 -0.004900
v -0.415759 0.277746 0.005200
v -0.415759 0.277746 0.005200
v -0.415733 0.277784 -0.004900
v -0.353553 0.353553 -0.013400
v -0.353553 0.353553 0.013400
v -0.353553 0.353553 -0.013400
v -0.353553 0.353553 0.013400
v -0.277822 0.415708 0.005200
v -0.277822 0.415708 -0.004900
v -0.277822 0.415708 -0.004900
v -0.277822 0.415708 0.005200
v -0.191342 0.461940 0.013400
v -0.191342 0.461940 -0.013400
v -0.191342 0.461940 0.013400
v -0.191342 0.461940 -0.013400
v -0.097545 0.490391 -0.004900
v -0.097590 0.490382 0.005200
v -0.097590 0.490382 0.005200
v -0.097545 0.490391 -0.004900
v 0.000000 0.500000 -0.013400
v 0.000000 0.500000 0.013400
v -0.000000 -0.500000 0.013400
v -0.000000 -0.500000 -0.013400
v -0.097500 -0.490400 -0.004900
v -0.097500 -0.490400 0.005200
v -0.097500 -0.490400 0.005200
v -0.097500 -0.490400 -0.004900
v -0.191342 -0.461940 -0.013400
v -0.191342 -0.461940 0.013400
v -0.191342 -0.461940 0.013400
v -0.191342 -0.461940 -0.013400
v -0.277784 -0.415733 -0.004900
v -0.277746 -0.415759 0.005200
v -0.277746 -0.415759 0.005200
v -0.277784 -0.415733 -0.004900
v -0.353553 -0.353553 -0.013400
v -0.353553 -0.353553 0.013400
v -0.353553 -0.353553 -0.013400
v -0.353553 -0.353553 0.013400
v -0.415708 -0.277822 0.005200
v -0.415708 -0.277822 -0.004900
v -0.415708 -0.277822 -0.004900
v -0.415708 -0.277822 0.005200
v -0.461940 -0.191342 0.013400
v -0.461940 -0.191342 -0.013400
v -0.461940 -0.191342 0.013400
v -0.461940 -0.191342 -0.013400
v -0.490391 -0.097545 -0.004900
v -0.490382 -0.097590 0.005200
v -0.490382 -0.097590 0.005200
v -0.490391 -0.097545 -0.004900
v -0.500000 0.000000 -0.013400
v -0.500000 0.000000 0.013400
v 0.500000 -0.000000 0.013400
v 0.500000 -0.000000 -0.013400
v 0.490400 -0.097500 -0.004900
v 0.490400 -0.097500 0.005200
v 0.490400 -0.097500 0.005200
v 0.490400 -0.097500 -0.004900
v 0.461940 -0.191342 -0.013400
v 0.461940 -0.191342 0.013400
v 0.461940 -0.191342 0.013400
v 0.461940 -0.191342 -0.013400
v 0.415733 -0.277784 -0.004900
v 0.415759 -0.277746 0.005200
v 0.415759 -0.277746 0.005200
v 0.415733 -0.277784 -0.004900
v 0.353553 -0.353553 -0.013400
v 0.353553 -0.353553 0.013400
v 0.353553 -0.353553 -0.013400
v 0.353553 -0.353553 0.013400
v 0.277822 -0.415708 0.005200
v 0.277822 -0.415708 -0.004900
v 0.277822 -0.415708 -0.004900
v 0.277822 -0.415708 0.005200
v 0.191342 -0.461940 0.013400
v 0.191342 -0.461940 -0.013400
v 0.191342 -0.461940 0.013400
v 0.191342 -0.461940 -0.013400
v 0.097545 -0.490391 -0.004900
v 0.097590 -0.490382 0.005200
v 0.097590 -0.490382 0.005200
v 0.097545 -0.490391 -0.004900
v -0.000000 -0.500000 -0.013400
v -0.000000 -0.500000 0.013400
v 0.142500 0.344000 0.119600
v 0.000000 0.285000 0.159800
v -0.142482 0.344007 0.119600
v 0.000000 0.500000 0.013400
v -0.142482 0.344007 0.119600
v -0.201525 0.201525 0.159800
v -0.344000 0.142500 0.119600
v -0.353553 0.353553 0.013400
v -0.344000 0.142500 0.119600
v -0.285000 0.000000 0.159800
v -0.344007 -0.142482 0.119600
v -0.500000 0.000000 0.013400
v -0.344007 -0.142482 0.119600
v -0.201525 -0.201525 0.159800
v -0.142500 -0.344000 0.119600
v -0.353553 -0.353553 0.013400
v -0.142500 -0.344000 0.119600
v -0.000000 -0.285000 0.159800
v 0.142482 -0.344007 0.119600
v -0.000000 -0.500000 0.013400
v 0.142482 -0.344007 0.119600
v 0.201525 -0.201525 0.159800
v 0.344000 -0.142500 0.119600
v 0.353553 -0.353553 0.013400
v 0.344000 -0.142500 0.119600
v 0.285000 -0.000000 0.159800
v 0.344007 0.142482 0.119600
v 0.500000 -0.000000 0.013400
v 0.142500 0.344000 0.119600
v 0.201525 0.201525 0.159800
v 0.000000 0.285000 0.159800
v -0.142482 0.344007 0.119600
v 0.000000 0.285000 0.159800
v -0.201525 0.201525 0.159800
v -0.344000 0.142500 0.119600
v -0.201525 0.201525 0.159800
v -0.285000 0.000000 0.159800
v -0.344007 -0.142482 0.119600
v -0.285000 0.000000 0.159800
v -0.201525 -0.201525 0.159800
v -0.142500 -0.344000 0.119600
v -0.201525 -0.201525 0.159800
v -0.000000 -0.285000 0.159800
v 0.142482 -0.344007 0.119600
v -0.000000 -0.285000 0.159800
v 0.201525 -0.201525 0.159800
v 0.344000 -0.142500 0.119600
v 0.201525 -0.201525 0.159800
v 0.285000 -0.000000 0.159800
v 0.000000 0.500000 0.013400
v -0.097590 0.490382 0.005200
v -0.191342 0.461940 0.013400
v -0.142482 0.344007 0.119600
v -0.142482 0.344007 0.119600
v -0.191342 0.461940 0.013400
v -0.277822 0.415708 0.005200
v -0.353553 0.353553 0.013400
v -0.344000 0.142500 0.119600
v -0.461940 0.191342 0.013400
v -0.415759 0.277746 0.005200
v -0.353553 0.353553 0.013400
v -0.344000 0.142500 0.119600
v -0.500000 0.000000 0.013400
v -0.490400 0.097500 0.005200
v -0.461940 0.191342 0.013400
v -0.500000 0.000000 0.013400
v -0.490382 -0.097590 0.005200
v -0.461940 -0.191342 0.013400
v -0.344007 -0.142482 0.119600
v -0.344007 -0.142482 0.119600
v -0.461940 -0.191342 0.013400
v -0.415708 -0.277822 0.005200
v -0.353553 -0.353553 0.013400
v -0.142500 -0.344000 0.119600
v -0.191342 -0.461940 0.013400
v -0.277746 -0.415759 0.005200
v -0.353553 -0.353553 0.013400
v -0.142500 -0.344000 0.119600
v -0.000000 -0.500000 0.013400
v -0.097500 -0.490400 0.005200
v -0.191342 -0.461940 0.013400
v -0.000000 -0.500000 0.013400
v 0.097590 -0.490382 0.005200
v 0.191342 -0.461940 0.013400
v 0.142482 -0.344007 0.119600
v 0.142482 -0.344007 0.119600
v 0.191342 -0.461940 0.013400
v 0.277822 -0.415708 0.005200
v 0.353553 -0.353553 0.013400
v 0.344000 -0.142500 0.119600
v 0.461940 -0.191342 0.013400
v 0.415759 -0.277746 0.005200
v 0.353553 -0.353553 0.013400
v 0.344000 -0.142500 0.119600
v 0.500000 -0.000000 0.013400
v 0.490400 -0.097500 0.005200
v 0.461940 -0.191342 0.013400
v 0.285000 -0.000000 0.159800
v 0.201525 0.201525 0.159800
v 0.000000 0.285000 0.159800
v -0.201525 0.201525 0.159800
v -0.285000 0.000000 0.159800
v -0.201525 -0.201525 0.159800
v -0.000000 -0.285000 0.159800
v 0.201525 -0.201525 0.159800
f 4 1 2
f 2 3 4
f 5 7 6
f 8 10 11
f 10 8 9
f 15 13 12
f 13 15 14
f 16 19 18
f 18 17 16
f 22 20 23
f 20 22 21
f 24 27 26 25
f 28 31 30 29
f 33 35 34
f 35 33 32
f 39 37 36
f 37 39 38
f 40 41 42 43
f 44 45 46 47
f 49 51 50
f 51 49 48
f 55 53 52
f 53 55 54
f 57 59 58
f 59 57 56
f 63 60 61
f 61 62 63
f 65 64 67
f 67 66 65
f 71 68 69
f 69 70 71
f 75 72 73
f 73 74 75
f 79 76 77
f 77 78 79
f 83 80 81
f 81 82 83
f 87 84 85
f 85 86 87
f 91 88 89
f 89 90 91
f 95 92 93
f 93 94 95
f 97 99 98
f 99 97 96
f 101 100 103
f 103 102 101
f 105 107 106
f 107 105 104
f 109 108 111
f 111 110 109
f 113 115 114
f 115 113 112
f 117 116 119
f 119 118 117
f 121 123 122
f 123 121 120
f 125 124 127
f 127 126 125
f 129 131 130
f 131 129 128
f 133 132 135
f 135 134 133
f 137 139 138
f 139 137 136
f 141 140 143
f 143 142 141
f 145 147 146
f 147 145 144
f 149 148 151
f 151 150 149
f 152 155 154 153
f 156 159 158 157
f 161 163 162
f 163 161 160
f 167 165 164
f 165 167 166
f 168 169 170 171
f 172 173 174 175
f 177 179 178
f 179 177 176
f 183 181 180
f 181 183 182
f 184 187 186 185
f 188 191 190 189
f 193 195 194
f 195 193 192
f 199 197 196
f 197 199 198
f 200 201 202 203
f 204 205 206 207
f 209 211 210
f 211 209 208
f 215 213 212
f 213 215 214
f 216 219 218 217
f 220 223 222 221
f 225 227 226
f 227 225 224
f 231 229 228
f 229 231 230
f 232 233 234 235
f 236 237 238 239
f 241 243 242
f 243 241 240
f 247 245 244
f 245 247 246
f 251 249 248
f 249 251 250
f 255 253 252
f 253 255 254
f 259 257 256
f 257 259 258
f 263 261 260
f 261 263 262
f 267 265 264
f 265 267 266
f 271 269 268
f 269 271 270
f 275 273 272
f 273 275 274
f 276 278 277
f 279 281 280
f 282 284 283
f 285 287 286
f 288 290 289
f 291 293 292
f 294 296 295
f 300 297 298
f 298 299 300
f 301 303 304
f 303 301 302
f 305 308 307
f 307 306 305
f 311 309 312
f 309 311 310
f 316 313 314
f 314 315 316
f 317 319 320
f 319 317 318
f 321 324 323
f 323 322 321
f 327 325 328
f 325 327 326
f 332 329 330
f 330 331 332
f 333 335 336
f 335 333 334
f 337 340 339
f 339 338 337
f 343 341 344
f 341 343 342
f 349 350 351
f 349 347 348
f 345 349 351
f 349 345 347
f 345 346 347
f 352 345 351
