# CrossGems gem mesh: calf
v 0.393426 0.207673 0.115000
v 0.088197 -0.400000 0.115000
v 0.150000 -0.500000 0.015000
v 0.500000 0.200000 0.015000
v 0.393426 0.207673 0.115000
v 0.500000 0.200000 0.015000
v 0.400000 0.500000 0.015000
v 0.329317 0.400000 0.115000
v 0.285459 0.215346 0.175000
v 0.393426 0.207673 0.115000
v 0.329317 0.400000 0.115000
v 0.257241 0.300000 0.175000
v 0.027786 -0.300000 0.175000
v 0.088197 -0.400000 0.115000
v 0.393426 0.207673 0.115000
v 0.285459 0.215346 0.175000
v -0.025000 -0.300000 0.175000
v -0.075000 -0.400000 0.115000
v 0.088197 -0.400000 0.115000
v 0.027786 -0.300000 0.175000
v 0.088197 -0.400000 0.115000
v -0.075000 -0.400000 0.115000
v -0.150000 -0.500000 0.015000
v 0.150000 -0.500000 0.015000
v -0.389742 0.210367 0.115000
v -0.500000 0.200000 0.015000
v -0.150000 -0.500000 0.015000
v -0.075000 -0.400000 0.115000
v -0.282673 0.215346 0.175000
v -0.389742 0.210367 0.115000
v -0.075000 -0.400000 0.115000
v -0.025000 -0.300000 0.175000
v -0.282673 0.215346 0.175000
v -0.254455 0.300000 0.175000
v -0.326531 0.400000 0.115000
v -0.389742 0.210367 0.115000
v -0.389742 0.210367 0.115000
v -0.326531 0.400000 0.115000
v -0.400000 0.500000 0.015000
v -0.500000 0.200000 0.015000
v -0.326531 0.400000 0.115000
v 0.329317 0.400000 0.115000
v 0.400000 0.500000 0.015000
v -0.400000 0.500000 0.015000
v -0.254455 0.300000 0.175000
v 0.257241 0.300000 0.175000
v 0.329317 0.400000 0.115000
v -0.326531 0.400000 0.115000
v 0.285459 0.215346 0.175000
v -0.025000 -0.300000 0.175000
v -0.282673 0.215346 0.175000
v -0.254455 0.300000 0.175000
v 0.027786 -0.300000 0.175000
v 0.257241 0.300000 0.175000
v 0.150000 -0.500000 0.015000
v 0.500000 0.200000 0.015000
v 0.150000 -0.500000 -0.015000
v 0.500000 0.200000 -0.015000
v 0.400000 0.500000 0.015000
v 0.500000 0.200000 0.015000
v 0.500000 0.200000 -0.015000
v 0.400000 0.500000 -0.015000
v -0.400000 0.500000 0.015000
v 0.400000 0.500000 0.015000
v -0.400000 0.500000 -0.015000
v 0.400000 0.500000 -0.015000
v -0.500000 0.200000 0.015000
v -0.400000 0.500000 0.015000
v -0.400000 0.500000 -0.015000
v -0.500000 0.200000 -0.015000
v -0.150000 -0.500000 0.015000
v -0.500000 0.200000 0.015000
v -0.500000 0.200000 -0.015000
v -0.150000 -0.500000 -0.015000
v -0.150000 -0.500000 0.015000
v 0.150000 -0.500000 0.015000
v 0.150000 -0.500000 -0.015000
v -0.150000 -0.500000 -0.015000
v 0.150000 -0.500000 -0.015000
v -0.150000 -0.500000 -0.015000
v -0.100000 -0.300000 -0.145000
v 0.100000 -0.300000 -0.145000
v 0.150000 -0.500000 -0.015000
v 0.500000 0.200000 -0.015000
v 0.325000 0.175000 -0.145000
v 0.100000 -0.300000 -0.145000
v 0.500000 0.200000 -0.015000
v 0.250000 0.350000 -0.145000
v 0.400000 0.500000 -0.015000
v 0.325000 0.175000 -0.145000
v -0.400000 0.500000 -0.015000
v 0.250000 0.350000 -0.145000
v 0.400000 0.500000 -0.015000
v -0.250000 0.350000 -0.145000
v -0.400000 0.500000 -0.015000
v -0.500000 0.200000 -0.015000
v -0.325000 0.175000 -0.145000
v -0.250000 0.350000 -0.145000
v -0.500000 0.200000 -0.015000
v -0.150000 -0.500000 -0.015000
v -0.100000 -0.300000 -0.145000
v -0.325000 0.175000 -0.145000
v -0.050000 -0.100000 -0.245000
v -0.100000 -0.300000 -0.145000
v 0.050000 -0.100000 -0.245000
v 0.100000 -0.300000 -0.145000
v 0.325000 0.175000 -0.145000
v 0.150000 0.125000 -0.245000
v 0.050000 -0.100000 -0.245000
v 0.100000 -0.300000 -0.145000
v 0.250000 0.350000 -0.145000
v 0.325000 0.175000 -0.145000
v 0.150000 0.125000 -0.245000
v 0.100000 0.200000 -0.245000
v 0.250000 0.350000 -0.145000
v 0.100000 0.200000 -0.245000
v -0.100000 0.200000 -0.245000
v -0.250000 0.350000 -0.145000
v -0.150000 0.125000 -0.245000
v -0.325000 0.175000 -0.145000
v -0.100000 0.200000 -0.245000
v -0.250000 0.350000 -0.145000
v -0.150000 0.125000 -0.245000
v -0.050000 -0.100000 -0.245000
v -0.100000 -0.300000 -0.145000
v -0.325000 0.175000 -0.145000
v -0.000000 0.100000 -0.315000
v -0.050000 -0.100000 -0.245000
v 0.050000 -0.100000 -0.245000
v -0.025000 -0.000000 -0.280000
v 0.150000 0.125000 -0.245000
v -0.000000 0.100000 -0.315000
v 0.050000 -0.100000 -0.245000
v 0.150000 0.125000 -0.245000
v 0.100000 0.200000 -0.245000
v -0.000000 0.100000 -0.315000
v 0.100000 0.200000 -0.245000
v -0.000000 0.100000 -0.315000
v -0.100000 0.200000 -0.245000
v -0.000000 0.100000 -0.315000
v -0.150000 0.125000 -0.245000
v -0.100000 0.200000 -0.245000
v -0.000000 0.100000 -0.315000
v -0.150000 0.125000 -0.245000
v -0.050000 -0.100000 -0.245000
v -0.025000 -0.000000 -0.280000
f 1 2 3 4
f 5 6 7 8
f 9 10 11 12
f 13 14 15 16
f 17 18 19 20
f 21 22 23 24
f 25 26 27 28
f 29 30 31 32
f 33 34 35 36
f 37 38 39 40
f 41 42 43 44
f 45 46 47 48
f 49 51 50
f 52 51 49
f 53 49 50
f 54 52 49
f 55 57 58 56
f 60 61 62 59
f 64 66 65 63
f 67 68 69 70
f 72 73 74 71
f 75 78 77 76
f 82 79 80 81
f 84 83 86 85
f 88 89 87 90
f 93 92 94 91
f 97 96 95 98
f 102 101 100 99
f 105 106 104 103
f 107 110 109 108
f 111 112 113 114
f 116 117 118 115
f 121 119 120 122
f 123 124 125 126
f 130 127 129 128
f 132 131 133
f 134 136 135
f 139 137 138
f 142 140 141
f 144 143 146 145
