# CrossGems gem mesh: cushion
v 0.500000 0.000000 0.012997
v 0.500000 0.000000 -0.009210
v 0.494236 -0.098310 -0.004855
v 0.494236 -0.098310 0.002198
v 0.000000 -0.500000 0.012997
v -0.098310 -0.494236 -0.004855
v -0.098310 -0.494236 0.002198
v -0.494236 -0.098310 -0.004855
v -0.100815 -0.041748 -0.356685
v -0.477164 -0.197647 -0.008746
v -0.449441 -0.300307 -0.006475
v -0.098310 0.494236 -0.004855
v -0.041748 0.100815 -0.356685
v -0.197647 0.477164 -0.008746
v -0.300307 0.449441 -0.006475
v -0.394558 0.394558 -0.002192
v 0.098310 -0.494236 -0.004855
v 0.000000 -0.500000 -0.009210
v 0.041748 -0.100815 -0.356685
v 0.197647 -0.477164 -0.008746
v 0.300307 -0.449441 -0.006475
v 0.394558 -0.394558 -0.002192
v 0.000000 -0.285000 0.158807
v -0.209552 -0.362400 0.106316
v 0.209552 -0.362400 0.106316
v 0.098310 -0.494236 0.002198
v 0.197648 -0.477164 0.012997
v 0.300307 -0.449441 0.004839
v 0.394558 -0.394558 0.012997
v -0.197648 -0.477164 0.012997
v 0.362400 -0.209552 0.106316
v 0.224898 -0.224898 0.158807
v -0.224898 -0.224898 0.158807
v 0.285000 0.000000 0.158807
v 0.362400 0.209552 0.106316
v 0.494236 0.098310 0.002198
v 0.477164 0.197648 0.012997
v 0.449441 0.300307 0.004839
v 0.394558 0.394558 0.012997
v 0.477164 -0.197648 0.012997
v 0.209552 0.362400 0.106316
v 0.224898 0.224898 0.158807
v -0.000000 0.285000 0.158807
v -0.000000 0.500000 0.012997
v -0.209552 0.362400 0.106316
v -0.098310 0.494236 0.002198
v -0.197648 0.477164 0.012997
v -0.300307 0.449441 0.004839
v -0.394558 0.394558 0.012997
v 0.098310 0.494236 0.002198
v 0.197648 0.477164 0.012997
v -0.362400 0.209552 0.106316
v -0.224898 0.224898 0.158807
v -0.285000 -0.000000 0.158807
v -0.500000 -0.000000 0.012997
v -0.362400 -0.209552 0.106316
v -0.494236 -0.098310 0.002198
v -0.477164 -0.197648 0.012997
v -0.449441 -0.300307 0.004839
v -0.394558 -0.394558 0.012997
v -0.494236 0.098310 0.002198
v -0.477164 0.197648 0.012997
v 0.449441 -0.300307 0.004839
v 0.300307 0.449441 0.004839
v -0.449441 0.300307 0.004839
v -0.300307 -0.449441 0.004839
v 0.449441 -0.300307 -0.006475
v 0.477164 -0.197647 -0.008746
v 0.300307 0.449441 -0.006475
v 0.197647 0.477164 -0.008746
v 0.394558 0.394558 -0.002192
v 0.449441 0.300307 -0.006451
v 0.477164 0.197648 -0.008746
v 0.494236 0.098310 -0.004855
v 0.098310 0.494236 -0.004855
v -0.449441 0.300307 -0.006475
v -0.477164 0.197647 -0.008746
v -0.494236 0.098310 -0.004855
v -0.394558 -0.394558 -0.002192
v -0.300307 -0.449441 -0.006475
v -0.197647 -0.477164 -0.008746
v -0.000000 0.500000 -0.009210
v 0.041748 0.100815 -0.356685
v 0.000000 0.000000 -0.441193
v -0.100815 0.041748 -0.356685
v -0.500000 -0.000000 -0.009210
v -0.041748 -0.100815 -0.356685
v 0.100815 -0.041748 -0.356685
v 0.100807 0.041767 -0.356685
v 0.000000 0.000000 0.158807
v 0.500000 0.000000 0.012997
v 0.500000 0.000000 0.012997
v 0.500000 0.000000 0.012997
v 0.500000 0.000000 0.012997
v 0.500000 0.000000 -0.009210
v 0.500000 0.000000 -0.009210
v 0.500000 0.000000 -0.009210
v 0.500000 0.000000 -0.009210
v 0.494236 -0.098310 -0.004855
v 0.494236 -0.098310 -0.004855
v 0.494236 -0.098310 0.002198
v 0.494236 -0.098310 0.002198
v 0.000000 -0.500000 0.012997
v 0.000000 -0.500000 0.012997
v 0.000000 -0.500000 0.012997
v 0.000000 -0.500000 0.012997
v -0.098310 -0.494236 -0.004855
v -0.098310 -0.494236 -0.004855
v -0.098310 -0.494236 0.002198
v -0.098310 -0.494236 0.002198
v -0.494236 -0.098310 -0.004855
v -0.494236 -0.098310 -0.004855
v -0.100815 -0.041748 -0.356685
v -0.100815 -0.041748 -0.356685
v -0.100815 -0.041748 -0.356685
v -0.477164 -0.197647 -0.008746
v -0.477164 -0.197647 -0.008746
v -0.477164 -0.197647 -0.008746
v -0.449441 -0.300307 -0.006475
v -0.449441 -0.300307 -0.006475
v -0.098310 0.494236 -0.004855
v -0.098310 0.494236 -0.004855
v -0.041748 0.100815 -0.356685
v -0.041748 0.100815 -0.356685
v -0.041748 0.100815 -0.356685
v -0.197647 0.477164 -0.008746
v -0.197647 0.477164 -0.008746
v -0.197647 0.477164 -0.008746
v -0.300307 0.449441 -0.006475
v -0.300307 0.449441 -0.006475
v -0.394558 0.394558 -0.002192
v -0.394558 0.394558 -0.002192
v -0.394558 0.394558 -0.002192
v -0.394558 0.394558 -0.002192
v 0.098310 -0.494236 -0.004855
v 0.098310 -0.494236 -0.004855
v 0.000000 -0.500000 -0.009210
v 0.000000 -0.500000 -0.009210
v 0.000000 -0.500000 -0.009210
v 0.000000 -0.500000 -0.009210
v 0.041748 -0.100815 -0.356685
v 0.041748 -0.100815 -0.356685
v 0.041748 -0.100815 -0.356685
v 0.197647 -0.477164 -0.008746
v 0.197647 -0.477164 -0.008746
v 0.197647 -0.477164 -0.008746
v 0.300307 -0.449441 -0.006475
v 0.300307 -0.449441 -0.006475
v 0.394558 -0.394558 -0.002192
v 0.394558 -0.394558 -0.002192
v 0.394558 -0.394558 -0.002192
v 0.394558 -0.394558 -0.002192
v 0.000000 -0.285000 0.158807
v 0.000000 -0.285000 0.158807
v 0.000000 -0.285000 0.158807
v -0.209552 -0.362400 0.106316
v -0.209552 -0.362400 0.106316
v -0.209552 -0.362400 0.106316
v -0.209552 -0.362400 0.106316
v 0.209552 -0.362400 0.106316
v 0.209552 -0.362400 0.106316
v 0.209552 -0.362400 0.106316
v 0.209552 -0.362400 0.106316
v 0.098310 -0.494236 0.002198
v 0.098310 -0.494236 0.002198
v 0.197648 -0.477164 0.012997
v 0.197648 -0.477164 0.012997
v 0.197648 -0.477164 0.012997
v 0.300307 -0.449441 0.004839
v 0.300307 -0.449441 0.004839
v 0.394558 -0.394558 0.012997
v 0.394558 -0.394558 0.012997
v 0.394558 -0.394558 0.012997
v 0.394558 -0.394558 0.012997
v -0.197648 -0.477164 0.012997
v -0.197648 -0.477164 0.012997
v -0.197648 -0.477164 0.012997
v 0.362400 -0.209552 0.106316
v 0.362400 -0.209552 0.106316
v 0.362400 -0.209552 0.106316
v 0.362400 -0.209552 0.106316
v 0.224898 -0.224898 0.158807
v 0.224898 -0.224898 0.158807
v 0.224898 -0.224898 0.158807
v -0.224898 -0.224898 0.158807
v -0.224898 -0.224898 0.158807
v -0.224898 -0.224898 0.158807
v 0.285000 0.000000 0.158807
v 0.285000 0.000000 0.158807
v 0.285000 0.000000 0.158807
v 0.362400 0.209552 0.106316
v 0.362400 0.209552 0.106316
v 0.362400 0.209552 0.106316
v 0.362400 0.209552 0.106316
v 0.494236 0.098310 0.002198
v 0.494236 0.098310 0.002198
v 0.477164 0.197648 0.012997
v 0.477164 0.197648 0.012997
v 0.477164 0.197648 0.012997
v 0.449441 0.300307 0.004839
v 0.449441 0.300307 0.004839
v 0.394558 0.394558 0.012997
v 0.394558 0.394558 0.012997
v 0.394558 0.394558 0.012997
v 0.394558 0.394558 0.012997
v 0.477164 -0.197648 0.012997
v 0.477164 -0.197648 0.012997
v 0.477164 -0.197648 0.012997
v 0.209552 0.362400 0.106316
v 0.209552 0.362400 0.106316
v 0.209552 0.362400 0.106316
v 0.209552 0.362400 0.106316
v 0.224898 0.224898 0.158807
v 0.224898 0.224898 0.158807
v 0.224898 0.224898 0.158807
v -0.000000 0.285000 0.158807
v -0.000000 0.285000 0.158807
v -0.000000 0.285000 0.158807
v -0.000000 0.500000 0.012997
v -0.000000 0.500000 0.012997
v -0.000000 0.500000 0.012997
v -0.000000 0.500000 0.012997
v -0.209552 0.362400 0.106316
v -0.209552 0.362400 0.106316
v -0.209552 0.362400 0.106316
v -0.209552 0.362400 0.106316
v -0.098310 0.494236 0.002198
v -0.098310 0.494236 0.002198
v -0.197648 0.477164 0.012997
v -0.197648 0.477164 0.012997
v -0.197648 0.477164 0.012997
v -0.300307 0.449441 0.004839
v -0.300307 0.449441 0.004839
v -0.394558 0.394558 0.012997
v -0.394558 0.394558 0.012997
v -0.394558 0.394558 0.012997
v -0.394558 0.394558 0.012997
v 0.098310 0.494236 0.002198
v 0.098310 0.494236 0.002198
v 0.197648 0.477164 0.012997
v 0.197648 0.477164 0.012997
v 0.197648 0.477164 0.012997
v -0.362400 0.209552 0.106316
v -0.362400 0.209552 0.106316
v -0.362400 0.209552 0.106316
v -0.362400 0.209552 0.106316
v -0.224898 0.224898 0.158807
v -0.224898 0.224898 0.158807
v -0.224898 0.224898 0.158807
v -0.285000 -0.000000 0.158807
v -0.285000 -0.000000 0.158807
v -0.285000 -0.000000 0.158807
v -0.500000 -0.000000 0.012997
v -0.500000 -0.000000 0.012997
v -0.500000 -0.000000 0.012997
v -0.500000 -0.000000 0.012997
v -0.362400 -0.209552 0.106316
v -0.362400 -0.209552 0.106316
v -0.362400 -0.209552 0.106316
v -0.362400 -0.209552 0.106316
v -0.494236 -0.098310 0.002198
v -0.494236 -0.098310 0.002198
v -0.477164 -0.197648 0.012997
v -0.477164 -0.197648 0.012997
v -0.477164 -0.197648 0.012997
v -0.449441 -0.300307 0.004839
v -0.449441 -0.300307 0.004839
v -0.394558 -0.394558 0.012997
v -0.394558 -0.394558 0.012997
v -0.394558 -0.394558 0.012997
v -0.394558 -0.394558 0.012997
v -0.494236 0.098310 0.002198
v -0.494236 0.098310 0.002198
v -0.477164 0.197648 0.012997
v -0.477164 0.197648 0.012997
v -0.477164 0.197648 0.012997
v 0.449441 -0.300307 0.004839
v 0.449441 -0.300307 0.004839
v 0.300307 0.449441 0.004839
v 0.300307 0.449441 0.004839
v -0.449441 0.300307 0.004839
v -0.449441 0.300307 0.004839
v -0.300307 -0.449441 0.004839
v -0.300307 -0.449441 0.004839
v 0.449441 -0.300307 -0.006475
v 0.449441 -0.300307 -0.006475
v 0.477164 -0.197647 -0.008746
v 0.477164 -0.197647 -0.008746
v 0.477164 -0.197647 -0.008746
v 0.300307 0.449441 -0.006475
v 0.300307 0.449441 -0.006475
v 0.197647 0.477164 -0.008746
v 0.197647 0.477164 -0.008746
v 0.197647 0.477164 -0.008746
v 0.394558 0.394558 -0.002192
v 0.394558 0.394558 -0.002192
v 0.394558 0.394558 -0.002192
v 0.394558 0.394558 -0.002192
v 0.449441 0.300307 -0.006451
v 0.449441 0.300307 -0.006451
v 0.477164 0.197648 -0.008746
v 0.477164 0.197648 -0.008746
v 0.477164 0.197648 -0.008746
v 0.494236 0.098310 -0.004855
v 0.494236 0.098310 -0.004855
v 0.098310 0.494236 -0.004855
v 0.098310 0.494236 -0.004855
v -0.449441 0.300307 -0.006475
v -0.449441 0.300307 -0.006475
v -0.477164 0.197647 -0.008746
v -0.477164 0.197647 -0.008746
v -0.477164 0.197647 -0.008746
v -0.494236 0.098310 -0.004855
v -0.494236 0.098310 -0.004855
v -0.394558 -0.394558 -0.002192
v -0.394558 -0.394558 -0.002192
v -0.394558 -0.394558 -0.002192
v -0.394558 -0.394558 -0.002192
v -0.300307 -0.449441 -0.006475
v -0.300307 -0.449441 -0.006475
v -0.197647 -0.477164 -0.008746
v -0.197647 -0.477164 -0.008746
v -0.197647 -0.477164 -0.008746
v -0.000000 0.500000 -0.009210
v -0.000000 0.500000 -0.009210
v -0.000000 0.500000 -0.009210
v -0.000000 0.500000 -0.009210
v 0.041748 0.100815 -0.356685
v 0.041748 0.100815 -0.356685
v 0.041748 0.100815 -0.356685
v 0.000000 0.000000 -0.441193
v 0.000000 0.000000 -0.441193
v 0.000000 0.000000 -0.441193
v 0.000000 0.000000 -0.441193
v 0.000000 0.000000 -0.441193
v 0.000000 0.000000 -0.441193
v 0.000000 0.000000 -0.441193
v -0.100815 0.041748 -0.356685
v -0.100815 0.041748 -0.356685
v -0.100815 0.041748 -0.356685
v -0.500000 -0.000000 -0.009210
v -0.500000 -0.000000 -0.009210
v -0.500000 -0.000000 -0.009210
v -0.500000 -0.000000 -0.009210
v -0.041748 -0.100815 -0.356685
v -0.041748 -0.100815 -0.356685
v -0.041748 -0.100815 -0.356685
v 0.100815 -0.041748 -0.356685
v 0.100815 -0.041748 -0.356685
v 0.100815 -0.041748 -0.356685
v 0.100807 0.041767 -0.356685
v 0.100807 0.041767 -0.356685
v 0.100807 0.041767 -0.356685
f 1 4 3 2
f 5 7 6 18
f 9 10 8 86
f 113 79 11 116
f 13 14 12 82
f 123 16 15 126
f 19 20 17 137
f 141 22 21 144
f 103 26 27 25
f 160 166 28 29
f 24 30 109 104
f 91 36 37 35
f 191 197 38 39
f 31 40 101 92
f 44 46 47 45
f 223 229 48 49
f 41 51 50 219
f 55 57 58 56
f 257 263 59 60
f 52 62 61 253
f 178 171 63 206
f 209 202 64 240
f 243 234 65 274
f 156 268 66 175
f 172 169 147 149
f 135 164 105 138
f 203 71 69 279
f 204 200 72 295
f 74 195 93 95
f 235 131 76 281
f 236 232 129 132
f 121 227 220 324
f 269 315 80 283
f 270 266 119 316
f 111 261 254 341
f 325 83 84 124
f 331 85 133 125
f 342 338 332 114
f 333 87 317 115
f 139 345 334 142
f 335 88 150 143
f 96 348 336 89
f 337 328 296 351
f 346 140 107 81
f 347 321 319 318
f 349 97 99 68
f 350 287 67 151
f 329 326 75 70
f 330 292 290 297
f 339 343 78 77
f 340 310 308 134
f 173 152 285 277
f 23 32 90
f 32 34 90
f 34 42 90
f 42 43 90
f 43 53 90
f 53 54 90
f 54 33 90
f 33 23 90
f 352 73 304 98
f 353 298 299 301
f 327 221 238 306
f 255 272 313 344
f 153 157 106 161
f 162 174 179 182
f 163 183 154
f 185 158 155
f 188 180 94 192
f 193 205 210 213
f 194 214 189
f 184 181 190
f 216 211 222 224
f 225 237 244 247
f 226 248 217
f 215 212 218
f 250 245 256 258
f 259 271 159 186
f 260 187 251
f 249 246 252
f 286 288 207 278
f 170 167 145 148
f 168 165 136 146
f 208 289 100 102
f 291 293 241 280
f 201 198 302 300
f 199 196 305 303
f 242 294 307 239
f 309 311 275 282
f 233 230 127 130
f 231 228 122 128
f 276 312 314 273
f 320 322 176 284
f 267 264 117 120
f 265 262 112 118
f 177 323 108 110
