# CrossGems gem mesh: emerald
v 0.231700 0.294100 0.087200
v 0.231700 -0.294100 0.087200
v 0.200000 0.276700 0.101400
v 0.200000 -0.276700 0.101400
v 0.231700 0.294100 0.087200
v 0.200000 0.276700 0.101400
v 0.127400 0.398400 0.087200
v 0.110000 0.366700 0.101400
v 0.127400 0.398400 0.087200
v 0.110000 0.366700 0.101400
v -0.110000 0.366700 0.101400
v -0.127400 0.398400 0.087200
v -0.110000 0.366700 0.101400
v -0.127400 0.398400 0.087200
v -0.200000 0.276700 0.101400
v -0.231700 0.294100 0.087200
v -0.200000 0.276700 0.101400
v -0.200000 -0.276700 0.101400
v -0.231700 0.294100 0.087200
v -0.231700 -0.294100 0.087200
v -0.110000 -0.366700 0.101400
v -0.127400 -0.398400 0.087200
v -0.200000 -0.276700 0.101400
v -0.231700 -0.294100 0.087200
v 0.127400 -0.398400 0.087200
v 0.110000 -0.366700 0.101400
v -0.110000 -0.366700 0.101400
v -0.127400 -0.398400 0.087200
v 0.231700 -0.294100 0.087200
v 0.200000 -0.276700 0.101400
v 0.127400 -0.398400 0.087200
v 0.110000 -0.366700 0.101400
v 0.269800 0.315000 0.060400
v 0.269800 -0.315000 0.060400
v 0.231700 0.294100 0.087200
v 0.231700 -0.294100 0.087200
v 0.269800 0.315000 0.060400
v 0.231700 0.294100 0.087200
v 0.148400 0.436400 0.060400
v 0.127400 0.398400 0.087200
v 0.148400 0.436400 0.060400
v 0.127400 0.398400 0.087200
v -0.127400 0.398400 0.087200
v -0.148400 0.436400 0.060400
v -0.127400 0.398400 0.087200
v -0.148400 0.436400 0.060400
v -0.231700 0.294100 0.087200
v -0.269800 0.315000 0.060400
v -0.231700 0.294100 0.087200
v -0.231700 -0.294100 0.087200
v -0.269800 0.315000 0.060400
v -0.269800 -0.315000 0.060400
v -0.127400 -0.398400 0.087200
v -0.148400 -0.436400 0.060400
v -0.231700 -0.294100 0.087200
v -0.269800 -0.315000 0.060400
v 0.148400 -0.436400 0.060400
v 0.127400 -0.398400 0.087200
v -0.127400 -0.398400 0.087200
v -0.148400 -0.436400 0.060400
v 0.269800 -0.315000 0.060400
v 0.231700 -0.294100 0.087200
v 0.148400 -0.436400 0.060400
v 0.127400 -0.398400 0.087200
v 0.333300 0.350000 0.006700
v 0.333300 -0.350000 0.006700
v 0.269800 0.315000 0.060400
v 0.269800 -0.315000 0.060400
v 0.333300 0.350000 0.006700
v 0.269800 0.315000 0.060400
v 0.183300 0.500000 0.006700
v 0.148400 0.436400 0.060400
v 0.183300 0.500000 0.006700
v 0.148400 0.436400 0.060400
v -0.148400 0.436400 0.060400
v -0.183300 0.500000 0.006700
v -0.148400 0.436400 0.060400
v -0.183300 0.500000 0.006700
v -0.269800 0.315000 0.060400
v -0.333300 0.350000 0.006700
v -0.269800 0.315000 0.060400
v -0.269800 -0.315000 0.060400
v -0.333300 0.350000 0.006700
v -0.333300 -0.350000 0.006700
v -0.148400 -0.436400 0.060400
v -0.183300 -0.500000 0.006700
v -0.269800 -0.315000 0.060400
v -0.333300 -0.350000 0.006700
v 0.183300 -0.500000 0.006700
v 0.148400 -0.436400 0.060400
v -0.148400 -0.436400 0.060400
v -0.183300 -0.500000 0.006700
v 0.333300 -0.350000 0.006700
v 0.269800 -0.315000 0.060400
v 0.183300 -0.500000 0.006700
v 0.148400 -0.436400 0.060400
v 0.110000 -0.366700 0.101400
v 0.200000 -0.276700 0.101400
v 0.200000 0.276700 0.101400
v 0.110000 0.366700 0.101400
v -0.110000 0.366700 0.101400
v -0.200000 0.276700 0.101400
v -0.200000 -0.276700 0.101400
v -0.110000 -0.366700 0.101400
v 0.333300 0.350000 0.006700
v 0.333300 0.350000 -0.006700
v 0.333300 -0.350000 0.006700
v 0.333300 -0.350000 -0.006700
v 0.333300 -0.350000 0.006700
v 0.333300 -0.350000 -0.006700
v 0.183300 -0.500000 0.006700
v 0.183300 -0.500000 -0.006700
v 0.183300 -0.500000 0.006700
v 0.183300 -0.500000 -0.006700
v -0.183300 -0.500000 0.006700
v -0.183300 -0.500000 -0.006700
v -0.183300 -0.500000 0.006700
v -0.183300 -0.500000 -0.006700
v -0.333300 -0.350000 0.006700
v -0.333300 -0.350000 -0.006700
v -0.333300 0.350000 0.006700
v -0.333300 0.350000 -0.006700
v -0.333300 -0.350000 0.006700
v -0.333300 -0.350000 -0.006700
v -0.183300 0.500000 0.006700
v -0.183300 0.500000 -0.006700
v -0.333300 0.350000 0.006700
v -0.333300 0.350000 -0.006700
v 0.183300 0.500000 0.006700
v 0.183300 0.500000 -0.006700
v -0.183300 0.500000 0.006700
v -0.183300 0.500000 -0.006700
v 0.333300 0.350000 0.006700
v 0.333300 0.350000 -0.006700
v 0.183300 0.500000 0.006700
v 0.183300 0.500000 -0.006700
v 0.333300 0.350000 -0.006700
v 0.333300 -0.350000 -0.006700
v 0.262700 0.311200 -0.091400
v 0.262700 -0.311200 -0.091400
v 0.262700 0.311200 -0.091400
v 0.262700 -0.311200 -0.091400
v 0.192100 0.272300 -0.176000
v 0.192100 -0.272300 -0.176000
v 0.192100 0.272300 -0.176000
v 0.192100 -0.272300 -0.176000
v 0.088800 0.215500 -0.266300
v 0.088800 -0.215500 -0.266300
v 0.088800 0.215500 -0.266300
v 0.088800 -0.215500 -0.266300
v 0.028800 0.195400 -0.311500
v 0.028800 -0.195400 -0.311500
v 0.028800 0.195400 -0.311500
v 0.028800 -0.195400 -0.311500
v 0.000000 -0.166700 -0.338600
v -0.000000 0.166700 -0.338600
v 0.333300 0.350000 -0.006700
v 0.262700 0.311200 -0.091400
v 0.183300 0.500000 -0.006700
v 0.144500 0.429400 -0.091400
v 0.262700 0.311200 -0.091400
v 0.192100 0.272300 -0.176000
v 0.144500 0.429400 -0.091400
v 0.105600 0.358800 -0.176000
v 0.192100 0.272300 -0.176000
v 0.105600 0.358800 -0.176000
v 0.088800 0.215500 -0.266300
v 0.048800 0.255500 -0.266300
v 0.088800 0.215500 -0.266300
v 0.048800 0.255500 -0.266300
v 0.028800 0.195400 -0.311500
v 0.088800 -0.215500 -0.266300
v 0.048800 -0.255500 -0.266300
v 0.028800 -0.195400 -0.311500
v 0.192100 -0.272300 -0.176000
v 0.105600 -0.358800 -0.176000
v 0.088800 -0.215500 -0.266300
v 0.048800 -0.255500 -0.266300
v 0.262700 -0.311200 -0.091400
v 0.192100 -0.272300 -0.176000
v 0.144500 -0.429400 -0.091400
v 0.105600 -0.358800 -0.176000
v 0.333300 -0.350000 -0.006700
v 0.262700 -0.311200 -0.091400
v 0.183300 -0.500000 -0.006700
v 0.144500 -0.429400 -0.091400
v 0.183300 -0.500000 -0.006700
v 0.144500 -0.429400 -0.091400
v -0.144500 -0.429400 -0.091400
v -0.183300 -0.500000 -0.006700
v 0.144500 -0.429400 -0.091400
v 0.105600 -0.358800 -0.176000
v -0.105600 -0.358800 -0.176000
v -0.144500 -0.429400 -0.091400
v 0.105600 -0.358800 -0.176000
v 0.048800 -0.255500 -0.266300
v -0.048800 -0.255500 -0.266300
v -0.105600 -0.358800 -0.176000
v 0.048800 -0.255500 -0.266300
v 0.028800 -0.195400 -0.311500
v -0.028800 -0.195400 -0.311500
v -0.048800 -0.255500 -0.266300
v -0.144500 -0.429400 -0.091400
v -0.183300 -0.500000 -0.006700
v -0.262700 -0.311200 -0.091400
v -0.333300 -0.350000 -0.006700
v -0.105600 -0.358800 -0.176000
v -0.144500 -0.429400 -0.091400
v -0.192100 -0.272300 -0.176000
v -0.262700 -0.311200 -0.091400
v -0.048800 -0.255500 -0.266300
v -0.088800 -0.215500 -0.266300
v -0.105600 -0.358800 -0.176000
v -0.192100 -0.272300 -0.176000
v -0.028800 -0.195400 -0.311500
v -0.048800 -0.255500 -0.266300
v -0.088800 -0.215500 -0.266300
v -0.262700 0.311200 -0.091400
v -0.262700 -0.311200 -0.091400
v -0.333300 0.350000 -0.006700
v -0.333300 -0.350000 -0.006700
v -0.192100 0.272300 -0.176000
v -0.192100 -0.272300 -0.176000
v -0.262700 0.311200 -0.091400
v -0.262700 -0.311200 -0.091400
v -0.088800 0.215500 -0.266300
v -0.088800 -0.215500 -0.266300
v -0.192100 0.272300 -0.176000
v -0.192100 -0.272300 -0.176000
v -0.028800 0.195400 -0.311500
v -0.028800 -0.195400 -0.311500
v -0.088800 0.215500 -0.266300
v -0.088800 -0.215500 -0.266300
v 0.000000 -0.166700 -0.338600
v -0.000000 0.166700 -0.338600
v -0.028800 0.195400 -0.311500
v -0.028800 -0.195400 -0.311500
v -0.144500 0.429400 -0.091400
v -0.183300 0.500000 -0.006700
v -0.262700 0.311200 -0.091400
v -0.333300 0.350000 -0.006700
v -0.105600 0.358800 -0.176000
v -0.144500 0.429400 -0.091400
v -0.192100 0.272300 -0.176000
v -0.262700 0.311200 -0.091400
v -0.048800 0.255500 -0.266300
v -0.088800 0.215500 -0.266300
v -0.105600 0.358800 -0.176000
v -0.192100 0.272300 -0.176000
v -0.028800 0.195400 -0.311500
v -0.048800 0.255500 -0.266300
v -0.088800 0.215500 -0.266300
v 0.183300 0.500000 -0.006700
v 0.144500 0.429400 -0.091400
v -0.144500 0.429400 -0.091400
v -0.183300 0.500000 -0.006700
v 0.144500 0.429400 -0.091400
v 0.105600 0.358800 -0.176000
v -0.105600 0.358800 -0.176000
v -0.144500 0.429400 -0.091400
v 0.105600 0.358800 -0.176000
v 0.048800 0.255500 -0.266300
v -0.048800 0.255500 -0.266300
v -0.105600 0.358800 -0.176000
v 0.048800 0.255500 -0.266300
v 0.028800 0.195400 -0.311500
v -0.028800 0.195400 -0.311500
v -0.048800 0.255500 -0.266300
v 0.028800 -0.195400 -0.311500
v -0.028800 -0.195400 -0.311500
v 0.000000 -0.166700 -0.338600
v 0.028800 0.195400 -0.311500
v -0.028800 0.195400 -0.311500
v -0.000000 0.166700 -0.338600
f 2 1 3 4
f 5 7 8 6
f 9 12 11 10
f 14 16 15 13
f 17 19 20 18
f 24 22 21 23
f 28 25 26 27
f 31 29 30 32
f 34 33 35 36
f 37 39 40 38
f 41 44 43 42
f 46 48 47 45
f 51 52 50 49
f 56 54 53 55
f 60 57 58 59
f 63 61 62 64
f 66 65 67 68
f 69 71 72 70
f 76 75 74 73
f 78 80 79 77
f 83 84 82 81
f 88 86 85 87
f 92 89 90 91
f 95 93 94 96
f 103 98 102
f 102 99 101
f 97 103 104
f 102 98 99
f 99 100 101
f 98 103 97
f 106 105 107 108
f 110 109 111 112
f 114 113 115 116
f 117 119 120 118
f 124 123 121 122
f 128 127 125 126
f 130 132 131 129
f 134 136 135 133
f 138 140 139 137
f 142 144 143 141
f 146 148 147 145
f 150 152 151 149
f 154 155 156 153
f 157 158 160 159
f 161 162 164 163
f 165 167 168 166
f 171 170 169
f 172 173 174
f 176 178 177 175
f 181 182 180 179
f 185 186 184 183
f 190 189 188 187
f 194 193 192 191
f 198 197 196 195
f 202 201 200 199
f 206 205 203 204
f 210 209 207 208
f 214 212 211 213
f 217 215 216
f 220 218 219 221
f 224 222 223 225
f 228 226 227 229
f 232 230 231 233
f 237 236 235 234
f 239 238 240 241
f 243 242 244 245
f 248 246 247 249
f 252 251 250
f 256 253 254 255
f 257 258 259 260
f 261 262 263 264
f 265 266 267 268
f 269 270 271
f 272 274 273
