# CrossGems gem mesh: flower
v -0.353558 0.353547 -0.014495
v -0.422155 0.174854 -0.059789
v -0.461942 0.191334 -0.014495
v -0.253238 0.253229 -0.163710
v -0.253238 0.253229 -0.163710
v -0.084415 0.203789 -0.254621
v -0.076787 0.076783 -0.310698
v -0.203790 0.084409 -0.254622
v -0.000004 0.358127 -0.163710
v 0.084410 0.203790 -0.254622
v 0.000000 0.108590 -0.310699
v -0.084415 0.203789 -0.254621
v 0.353549 0.353558 -0.014495
v 0.461938 0.191348 -0.014495
v 0.422152 0.174867 -0.059788
v 0.253231 0.253238 -0.163710
v 0.269950 0.269959 -0.138841
v 0.353549 0.353558 -0.014495
v 0.174856 0.422155 -0.059789
v 0.191335 0.461942 -0.014495
v 0.269950 0.269959 -0.138841
v 0.253231 0.253238 -0.163710
v 0.084410 0.203790 -0.254622
v 0.253231 0.253238 -0.163710
v 0.203791 0.084415 -0.254621
v 0.076785 0.076787 -0.310698
v 0.108592 -0.000000 -0.310699
v 0.203791 0.084415 -0.254621
v 0.358129 0.000004 -0.163710
v 0.203792 -0.084410 -0.254622
v 0.353559 -0.353549 -0.014495
v 0.422156 -0.174856 -0.059789
v 0.461943 -0.191335 -0.014495
v 0.269960 -0.269950 -0.138841
v 0.253239 -0.253231 -0.163710
v 0.084417 -0.203790 -0.254621
v 0.076788 -0.076784 -0.310698
v 0.203792 -0.084410 -0.254622
v 0.253239 -0.253231 -0.163710
v 0.084417 -0.203790 -0.254621
v 0.000005 -0.358129 -0.163710
v -0.084409 -0.203792 -0.254622
v 0.000001 -0.108592 -0.310699
v -0.353547 -0.353559 -0.014495
v -0.461936 -0.191349 -0.014495
v -0.422151 -0.174868 -0.059788
v -0.253229 -0.253239 -0.163710
v -0.076783 -0.076788 -0.310698
v -0.084409 -0.203792 -0.254622
v -0.253229 -0.253239 -0.163710
v -0.203789 -0.084417 -0.254621
v -0.499999 -0.000007 -0.014495
v -0.422151 -0.174868 -0.059788
v -0.461936 -0.191349 -0.014495
v -0.358127 -0.000005 -0.163710
v -0.203789 -0.084417 -0.254621
v -0.358127 -0.000005 -0.163710
v -0.203790 0.084409 -0.254622
v -0.108590 -0.000001 -0.310699
v -0.203789 -0.084417 -0.254621
v -0.108590 -0.000001 -0.310699
v 0.000001 -0.000001 -0.357480
v -0.076783 -0.076788 -0.310698
v 0.000001 -0.000001 -0.357480
v -0.108590 -0.000001 -0.310699
v -0.203790 0.084409 -0.254622
v -0.076787 0.076783 -0.310698
v -0.076787 0.076783 -0.310698
v -0.084415 0.203789 -0.254621
v 0.000000 0.108590 -0.310699
v 0.000001 -0.000001 -0.357480
v 0.076785 0.076787 -0.310698
v 0.000001 -0.000001 -0.357480
v 0.000000 0.108590 -0.310699
v 0.084410 0.203790 -0.254622
v 0.076785 0.076787 -0.310698
v 0.203791 0.084415 -0.254621
v 0.108592 -0.000000 -0.310699
v 0.000001 -0.000001 -0.357480
v 0.076788 -0.076784 -0.310698
v 0.000001 -0.000001 -0.357480
v 0.108592 -0.000000 -0.310699
v 0.203792 -0.084410 -0.254622
v 0.076788 -0.076784 -0.310698
v 0.084417 -0.203790 -0.254621
v 0.000001 -0.108592 -0.310699
v 0.000001 -0.000001 -0.357480
v -0.076783 -0.076788 -0.310698
v 0.000001 -0.000001 -0.357480
v 0.000001 -0.108592 -0.310699
v -0.084409 -0.203792 -0.254622
v -0.084415 0.203789 -0.254621
v -0.253238 0.253229 -0.163710
v -0.174867 0.422151 -0.059788
v -0.000004 0.358127 -0.163710
v -0.358127 -0.000005 -0.163710
v -0.422155 0.174854 -0.059789
v -0.253238 0.253229 -0.163710
v -0.203790 0.084409 -0.254622
v -0.203789 -0.084417 -0.254621
v -0.253229 -0.253239 -0.163710
v -0.422151 -0.174868 -0.059788
v -0.358127 -0.000005 -0.163710
v -0.084409 -0.203792 -0.254622
v 0.000005 -0.358129 -0.163710
v -0.174854 -0.422156 -0.059789
v -0.253229 -0.253239 -0.163710
v 0.253239 -0.253231 -0.163710
v 0.174869 -0.422152 -0.059788
v 0.000005 -0.358129 -0.163710
v 0.084417 -0.203790 -0.254621
v 0.358129 0.000004 -0.163710
v 0.422156 -0.174856 -0.059789
v 0.253239 -0.253231 -0.163710
v 0.203792 -0.084410 -0.254622
v 0.203791 0.084415 -0.254621
v 0.253231 0.253238 -0.163710
v 0.422152 0.174867 -0.059788
v 0.358129 0.000004 -0.163710
v 0.084410 0.203790 -0.254622
v -0.000004 0.358127 -0.163710
v 0.174856 0.422155 -0.059789
v 0.253231 0.253238 -0.163710
v 0.422152 0.174867 -0.059788
v 0.461938 0.191348 -0.014495
v 0.500001 0.000006 -0.014495
v 0.358129 0.000004 -0.163710
v 0.500001 0.000006 -0.014495
v 0.461943 -0.191335 -0.014495
v 0.422156 -0.174856 -0.059789
v 0.358129 0.000004 -0.163710
v 0.253239 -0.253231 -0.163710
v 0.269960 -0.269950 -0.138841
v 0.353559 -0.353549 -0.014495
v 0.174869 -0.422152 -0.059788
v 0.191349 -0.461938 -0.014495
v 0.174869 -0.422152 -0.059788
v 0.191349 -0.461938 -0.014495
v 0.000007 -0.500001 -0.014495
v 0.000005 -0.358129 -0.163710
v -0.174854 -0.422156 -0.059789
v 0.000005 -0.358129 -0.163710
v 0.000007 -0.500001 -0.014495
v -0.191334 -0.461943 -0.014495
v -0.174854 -0.422156 -0.059789
v -0.191334 -0.461943 -0.014495
v -0.353547 -0.353559 -0.014495
v -0.253229 -0.253239 -0.163710
v -0.252971 0.252950 0.120812
v -0.357745 -0.000017 0.120809
v 0.000017 -0.357742 0.120811
v 0.252972 -0.252951 0.120812
v 0.357742 0.000015 0.120812
v 0.252952 0.252971 0.120812
v -0.000016 0.357741 0.120811
v -0.252950 -0.252973 0.120811
v 0.000000 -0.000001 0.217430
v 0.000000 -0.000001 0.217430
v 0.000000 -0.000001 0.217430
v 0.000000 -0.000001 0.217430
v 0.000000 -0.000001 0.217430
v 0.000000 -0.000001 0.217430
v 0.000000 -0.000001 0.217430
v 0.000000 -0.000001 0.217430
v 0.000007 -0.158612 0.183600
v 0.000007 -0.158612 0.183600
v 0.000007 -0.158612 0.183600
v 0.102457 -0.247323 0.155626
v 0.102457 -0.247323 0.155626
v 0.102457 -0.247323 0.155626
v 0.112159 -0.112150 0.183600
v 0.112159 -0.112150 0.183600
v 0.112159 -0.112150 0.183600
v 0.158612 0.000007 0.183600
v 0.158612 0.000007 0.183600
v 0.158612 0.000007 0.183600
v 0.247331 -0.102434 0.155626
v 0.247331 -0.102434 0.155626
v 0.247331 -0.102434 0.155626
v 0.112150 0.112158 0.183600
v 0.112150 0.112158 0.183600
v 0.112150 0.112158 0.183600
v 0.247322 0.102456 0.155626
v 0.247322 0.102456 0.155626
v 0.247322 0.102456 0.155626
v 0.102433 0.247328 0.155627
v 0.102433 0.247328 0.155627
v 0.102433 0.247328 0.155627
v -0.000005 0.158613 0.183599
v -0.000005 0.158613 0.183599
v -0.000005 0.158613 0.183599
v -0.102455 0.247322 0.155626
v -0.102455 0.247322 0.155626
v -0.102455 0.247322 0.155626
v -0.112160 0.112147 0.183600
v -0.112160 0.112147 0.183600
v -0.112160 0.112147 0.183600
v -0.112146 -0.112160 0.183600
v -0.112146 -0.112160 0.183600
v -0.112146 -0.112160 0.183600
v -0.158595 -0.000006 0.183603
v -0.158595 -0.000006 0.183603
v -0.158595 -0.000006 0.183603
v -0.247318 -0.102463 0.155626
v -0.247318 -0.102463 0.155626
v -0.247318 -0.102463 0.155626
v -0.102431 -0.247329 0.155627
v -0.102431 -0.247329 0.155627
v -0.102431 -0.247329 0.155627
v -0.247325 0.102439 0.155627
v -0.247325 0.102439 0.155627
v -0.247325 0.102439 0.155627
v 0.500001 0.000020 0.011805
v 0.396320 -0.164137 0.066238
v 0.461950 -0.191319 0.011805
v 0.357742 0.000015 0.120812
v 0.191319 0.461949 0.011805
v 0.164138 0.396320 0.066237
v 0.353539 0.353567 0.011805
v 0.252952 0.252971 0.120812
v 0.353539 0.353567 0.011805
v 0.396302 0.164176 0.066239
v 0.461931 0.191364 0.011805
v 0.252952 0.252971 0.120812
v -0.000019 0.499999 0.011805
v 0.164138 0.396320 0.066237
v 0.191319 0.461949 0.011805
v -0.000016 0.357741 0.120811
v -0.191364 0.461930 0.011805
v -0.164176 0.396300 0.066239
v -0.000019 0.499999 0.011805
v -0.000016 0.357741 0.120811
v -0.396320 0.164137 0.066237
v -0.357745 -0.000017 0.120809
v -0.247325 0.102439 0.155627
v -0.252971 0.252950 0.120812
v 0.164177 -0.396300 0.066240
v 0.252972 -0.252951 0.120812
v 0.102457 -0.247323 0.155626
v 0.000017 -0.357742 0.120811
v -0.000016 0.357741 0.120811
v 0.102433 0.247328 0.155627
v 0.252952 0.252971 0.120812
v 0.164138 0.396320 0.066237
v 0.396302 0.164176 0.066239
v 0.252952 0.252971 0.120812
v 0.247322 0.102456 0.155626
v 0.357742 0.000015 0.120812
v -0.000019 0.499999 0.011805
v -0.000006 0.499999 -0.014495
v -0.191347 0.461936 -0.014495
v -0.191364 0.461930 0.011805
v -0.353567 0.353538 0.011805
v -0.191364 0.461930 0.011805
v -0.191347 0.461936 -0.014495
v -0.353558 0.353547 -0.014495
v -0.461949 0.191317 0.011805
v -0.396320 0.164137 0.066237
v -0.353567 0.353538 0.011805
v -0.252971 0.252950 0.120812
v -0.353567 0.353538 0.011805
v -0.353558 0.353547 -0.014495
v -0.461942 0.191334 -0.014495
v -0.461949 0.191317 0.011805
v 0.500001 0.000020 0.011805
v 0.461931 0.191364 0.011805
v 0.396302 0.164176 0.066239
v 0.357742 0.000015 0.120812
v 0.000021 -0.500001 0.011805
v -0.164137 -0.396321 0.066237
v -0.191317 -0.461950 0.011805
v 0.000017 -0.357742 0.120811
v 0.353569 -0.353539 0.011805
v 0.164177 -0.396300 0.066240
v 0.191366 -0.461931 0.011805
v 0.252972 -0.252951 0.120812
v 0.000021 -0.500001 0.011805
v 0.000007 -0.500001 -0.014495
v 0.191349 -0.461938 -0.014495
v 0.191366 -0.461931 0.011805
v -0.191317 -0.461950 0.011805
v -0.191334 -0.461943 -0.014495
v 0.000007 -0.500001 -0.014495
v 0.000021 -0.500001 0.011805
v 0.164177 -0.396300 0.066240
v 0.000017 -0.357742 0.120811
v 0.000021 -0.500001 0.011805
v 0.191366 -0.461931 0.011805
v 0.191366 -0.461931 0.011805
v 0.191349 -0.461938 -0.014495
v 0.353559 -0.353549 -0.014495
v 0.353569 -0.353539 0.011805
v 0.461950 -0.191319 0.011805
v 0.396320 -0.164137 0.066238
v 0.353569 -0.353539 0.011805
v 0.252972 -0.252951 0.120812
v 0.252972 -0.252951 0.120812
v 0.396320 -0.164137 0.066238
v 0.357742 0.000015 0.120812
v 0.247331 -0.102434 0.155626
v -0.000016 0.357741 0.120811
v -0.164176 0.396300 0.066239
v -0.252971 0.252950 0.120812
v -0.102455 0.247322 0.155626
v -0.461929 -0.191365 0.011805
v -0.396300 -0.164177 0.066239
v -0.499999 -0.000021 0.011805
v -0.357745 -0.000017 0.120809
v -0.499999 -0.000021 0.011805
v -0.396320 0.164137 0.066237
v -0.461949 0.191317 0.011805
v -0.357745 -0.000017 0.120809
v -0.357745 -0.000017 0.120809
v -0.396300 -0.164177 0.066239
v -0.252950 -0.252973 0.120811
v -0.247318 -0.102463 0.155626
v -0.353538 -0.353569 0.011805
v -0.252950 -0.252973 0.120811
v -0.396300 -0.164177 0.066239
v -0.461929 -0.191365 0.011805
v -0.252950 -0.252973 0.120811
v -0.164137 -0.396321 0.066237
v 0.000017 -0.357742 0.120811
v -0.102431 -0.247329 0.155627
v -0.353538 -0.353569 0.011805
v -0.353547 -0.353559 -0.014495
v -0.191334 -0.461943 -0.014495
v -0.191317 -0.461950 0.011805
v -0.461929 -0.191365 0.011805
v -0.461936 -0.191349 -0.014495
v -0.353547 -0.353559 -0.014495
v -0.353538 -0.353569 0.011805
v -0.164137 -0.396321 0.066237
v -0.252950 -0.252973 0.120811
v -0.353538 -0.353569 0.011805
v -0.191317 -0.461950 0.011805
v -0.000006 0.499999 -0.014495
v -0.000019 0.499999 0.011805
v 0.191319 0.461949 0.011805
v 0.191335 0.461942 -0.014495
v -0.461949 0.191317 0.011805
v -0.461942 0.191334 -0.014495
v -0.499999 -0.000007 -0.014495
v -0.499999 -0.000021 0.011805
v -0.499999 -0.000021 0.011805
v -0.499999 -0.000007 -0.014495
v -0.461936 -0.191349 -0.014495
v -0.461929 -0.191365 0.011805
v -0.422155 0.174854 -0.059789
v -0.499999 -0.000007 -0.014495
v -0.461942 0.191334 -0.014495
v -0.358127 -0.000005 -0.163710
v -0.174867 0.422151 -0.059788
v -0.353558 0.353547 -0.014495
v -0.191347 0.461936 -0.014495
v -0.253238 0.253229 -0.163710
v 0.353549 0.353558 -0.014495
v 0.191335 0.461942 -0.014495
v 0.191319 0.461949 0.011805
v 0.353539 0.353567 0.011805
v 0.174856 0.422155 -0.059789
v -0.000006 0.499999 -0.014495
v 0.191335 0.461942 -0.014495
v -0.000004 0.358127 -0.163710
v -0.174867 0.422151 -0.059788
v -0.191347 0.461936 -0.014495
v -0.000006 0.499999 -0.014495
v -0.000004 0.358127 -0.163710
v 0.353569 -0.353539 0.011805
v 0.353559 -0.353549 -0.014495
v 0.461943 -0.191335 -0.014495
v 0.461950 -0.191319 0.011805
v 0.461943 -0.191335 -0.014495
v 0.500001 0.000006 -0.014495
v 0.500001 0.000020 0.011805
v 0.461950 -0.191319 0.011805
v 0.500001 0.000006 -0.014495
v 0.461938 0.191348 -0.014495
v 0.461931 0.191364 0.011805
v 0.500001 0.000020 0.011805
v 0.353549 0.353558 -0.014495
v 0.353539 0.353567 0.011805
v 0.461931 0.191364 0.011805
v 0.461938 0.191348 -0.014495
v -0.164176 0.396300 0.066239
v -0.252971 0.252950 0.120812
v -0.353567 0.353538 0.011805
v -0.353567 0.353538 0.011805
v -0.191364 0.461930 0.011805
v -0.164176 0.396300 0.066239
f 1 2 3
f 2 1 4
f 5 6 7 8
f 9 10 11 12
f 13 14 15
f 16 17 13 15
f 18 19 20
f 21 22 19 18
f 23 24 25 26
f 27 28 29 30
f 31 32 33
f 34 35 32 31
f 36 37 38 39
f 40 41 42 43
f 44 45 46
f 47 44 46
f 48 49 50 51
f 52 53 54
f 55 53 52
f 56 57 58 59
f 60 61 62 63
f 64 65 66 67
f 68 69 70 71
f 72 73 74 75
f 76 77 78 79
f 80 81 82 83
f 84 85 86 87
f 88 89 90 91
f 92 93 94 95
f 96 97 98 99
f 100 101 102 103
f 104 105 106 107
f 108 109 110 111
f 112 113 114 115
f 116 117 118 119
f 120 121 122 123
f 124 125 126
f 126 127 124
f 128 129 130
f 130 131 128
f 132 133 134 135
f 136 135 134
f 137 138 139
f 139 140 137
f 141 142 143
f 143 144 141
f 145 146 147
f 147 148 145
f 158 167 169 172
f 175 159 171 178
f 181 160 174 184
f 161 180 187 190
f 193 196 162 189
f 199 164 203 205
f 165 157 198 208
f 163 195 211 201
f 212 197 192 149
f 206 202 210 150
f 170 166 207 151
f 152 179 173 168
f 176 177 153 185
f 183 154 188 182
f 155 194 191 186
f 204 156 209 200
f 213 214 215
f 214 213 216
f 217 218 219
f 220 219 218
f 221 222 223
f 222 221 224
f 225 226 227
f 226 225 228
f 229 230 231
f 230 232 231
f 233 234 235 236
f 237 238 239 240
f 241 242 243 244
f 245 246 247 248
f 249 250 251 252
f 253 254 255 256
f 257 258 259
f 258 260 259
f 261 262 263 264
f 265 266 267
f 267 268 265
f 269 270 271
f 270 269 272
f 273 274 275
f 274 273 276
f 277 278 279 280
f 281 282 283 284
f 285 286 287
f 288 285 287
f 289 290 291 292
f 293 294 295
f 294 296 295
f 297 298 299 300
f 301 302 303 304
f 305 306 307
f 306 308 307
f 309 310 311
f 310 309 312
f 313 314 315 316
f 317 318 319
f 319 320 317
f 321 322 323 324
f 325 326 327 328
f 329 330 331 332
f 333 334 335
f 336 333 335
f 337 338 339 340
f 341 342 343 344
f 345 346 347 348
f 349 350 351
f 352 350 349
f 353 354 355
f 356 354 353
f 357 358 359 360
f 361 362 363
f 364 362 361
f 365 366 367
f 365 367 368
f 369 370 371 372
f 373 374 375 376
f 377 378 379 380
f 381 382 383 384
f 385 387 386
f 388 390 389
