# CrossGems gem mesh: half-moon
v -0.331742 -0.143182 -0.012595
v -0.270388 -0.197140 -0.012595
v -0.191355 -0.244528 -0.012595
v -0.141008 0.062404 -0.207799
v 0.117717 -0.071175 0.113359
v -0.000010 -0.173056 0.088168
v -0.117736 -0.071175 0.113359
v -0.000010 -0.173056 0.088168
v -0.000010 -0.288500 0.012595
v -0.096676 -0.276113 0.005793
v -0.191355 -0.244528 0.012595
v -0.000010 -0.173056 0.088168
v -0.117736 -0.071175 0.113359
v -0.191355 -0.244528 0.012595
v -0.268958 -0.057375 0.088168
v -0.117736 -0.071175 0.113359
v -0.268958 -0.057375 0.088168
v -0.320017 0.103875 0.113359
v -0.191355 -0.244528 0.012595
v -0.268958 -0.057375 0.088168
v -0.269993 -0.197111 0.007206
v -0.331742 -0.143182 0.012595
v -0.268958 -0.057375 0.088168
v -0.331742 -0.143182 0.012595
v -0.384959 -0.079698 0.008353
v -0.425928 -0.013724 0.012595
v -0.268958 -0.057375 0.088168
v -0.320017 0.103875 0.113359
v -0.425928 -0.013724 0.012595
v -0.320017 0.103875 0.113359
v -0.425928 -0.013724 0.012595
v -0.485069 0.148476 0.012751
v -0.320017 0.103875 0.113359
v -0.485069 0.148476 0.012751
v -0.496329 0.218081 0.010266
v -0.500000 0.288499 0.012595
v -0.320017 0.103875 0.113359
v -0.362878 0.231535 0.088168
v -0.500000 0.288499 0.012595
v -0.250014 0.184649 0.113359
v -0.320017 0.103875 0.113359
v -0.362878 0.231535 0.088168
v 0.362860 0.231536 0.088168
v 0.249995 0.184650 0.113359
v -0.250014 0.184649 0.113359
v -0.362878 0.231535 0.088168
v 0.500000 0.288500 0.012595
v 0.362860 0.231536 0.088168
v -0.362878 0.231535 0.088168
v -0.500000 0.288499 0.012595
v -0.496329 0.218081 0.010266
v -0.496330 0.218098 -0.010063
v -0.500000 0.288499 0.012595
v -0.500000 0.288499 -0.012595
v -0.500000 0.288499 -0.012595
v -0.496330 0.218098 -0.010063
v -0.485113 0.148680 -0.012749
v -0.202961 0.184927 -0.207799
v -0.496329 0.218081 0.010266
v -0.496330 0.218098 -0.010063
v -0.485113 0.148680 -0.012749
v -0.485069 0.148476 0.012751
v -0.425928 -0.013724 0.012595
v -0.425928 -0.013724 -0.012595
v -0.485069 0.148476 0.012751
v -0.485113 0.148680 -0.012749
v -0.384959 -0.079698 0.008353
v -0.384696 -0.080408 -0.010001
v -0.425928 -0.013724 0.012595
v -0.425928 -0.013724 -0.012595
v -0.331742 -0.143182 0.012595
v -0.331742 -0.143182 -0.012595
v -0.384959 -0.079698 0.008353
v -0.384696 -0.080408 -0.010001
v -0.270388 -0.197140 -0.012595
v -0.269993 -0.197111 0.007206
v -0.331742 -0.143182 0.012595
v -0.331742 -0.143182 -0.012595
v -0.191355 -0.244528 0.012595
v -0.191355 -0.244528 -0.012595
v -0.270388 -0.197140 -0.012595
v -0.269993 -0.197111 0.007206
v -0.096676 -0.276113 0.005793
v -0.096533 -0.275688 -0.005264
v -0.191355 -0.244528 0.012595
v -0.191355 -0.244528 -0.012595
v -0.000010 -0.288500 0.012595
v -0.000010 -0.288500 -0.012595
v -0.096676 -0.276113 0.005793
v -0.096533 -0.275688 -0.005264
v -0.000010 -0.020246 -0.207799
v -0.000010 -0.288500 -0.012595
v -0.096533 -0.275688 -0.005264
v -0.191355 -0.244528 -0.012595
v -0.000010 0.210920 -0.346641
v -0.000010 -0.020246 -0.207799
v -0.141008 0.062404 -0.207799
v -0.191355 -0.244528 -0.012595
v -0.141008 0.062404 -0.207799
v -0.331742 -0.143182 -0.012595
v -0.384696 -0.080408 -0.010001
v -0.425928 -0.013724 -0.012595
v -0.000010 0.210920 -0.346641
v -0.141008 0.062404 -0.207799
v -0.202961 0.184927 -0.207799
v -0.425928 -0.013724 -0.012595
v -0.202961 0.184927 -0.207799
v -0.425928 -0.013724 -0.012595
v -0.485113 0.148680 -0.012749
v 0.331721 -0.143182 -0.012595
v 0.270368 -0.197140 -0.012595
v 0.191335 -0.244528 -0.012595
v 0.140988 0.062404 -0.207799
v -0.000010 -0.173056 0.088168
v -0.000010 -0.288500 0.012595
v 0.096656 -0.276113 0.005793
v 0.191335 -0.244528 0.012595
v -0.000010 -0.173056 0.088168
v 0.117717 -0.071175 0.113359
v 0.191335 -0.244528 0.012595
v 0.268937 -0.057375 0.088168
v 0.117717 -0.071175 0.113359
v 0.268937 -0.057375 0.088168
v 0.319996 0.103875 0.113359
v 0.191335 -0.244528 0.012595
v 0.268937 -0.057375 0.088168
v 0.269972 -0.197111 0.007206
v 0.331721 -0.143182 0.012595
v 0.268937 -0.057375 0.088168
v 0.331721 -0.143182 0.012595
v 0.384938 -0.079698 0.008353
v 0.425907 -0.013724 0.012595
v 0.268937 -0.057375 0.088168
v 0.319996 0.103875 0.113359
v 0.425907 -0.013724 0.012595
v 0.319996 0.103875 0.113359
v 0.425907 -0.013724 0.012595
v 0.485048 0.148476 0.012751
v 0.319996 0.103875 0.113359
v 0.485048 0.148476 0.012751
v 0.496309 0.218081 0.010266
v 0.500000 0.288500 0.012595
v 0.319996 0.103875 0.113359
v 0.362860 0.231536 0.088168
v 0.500000 0.288500 0.012595
v 0.249995 0.184650 0.113359
v 0.319996 0.103875 0.113359
v 0.362860 0.231536 0.088168
v 0.496309 0.218081 0.010266
v 0.496310 0.218098 -0.010063
v 0.500000 0.288500 0.012595
v 0.500000 0.288500 -0.012595
v 0.500000 0.288500 -0.012595
v 0.496310 0.218098 -0.010063
v 0.485092 0.148680 -0.012749
v 0.202940 0.184927 -0.207799
v 0.496309 0.218081 0.010266
v 0.496310 0.218098 -0.010063
v 0.485092 0.148680 -0.012749
v 0.485048 0.148476 0.012751
v 0.425907 -0.013724 0.012595
v 0.425907 -0.013724 -0.012595
v 0.485048 0.148476 0.012751
v 0.485092 0.148680 -0.012749
v 0.384938 -0.079698 0.008353
v 0.384675 -0.080408 -0.010001
v 0.425907 -0.013724 0.012595
v 0.425907 -0.013724 -0.012595
v 0.331721 -0.143182 0.012595
v 0.331721 -0.143182 -0.012595
v 0.384938 -0.079698 0.008353
v 0.384675 -0.080408 -0.010001
v 0.270368 -0.197140 -0.012595
v 0.269972 -0.197111 0.007206
v 0.331721 -0.143182 0.012595
v 0.331721 -0.143182 -0.012595
v 0.191335 -0.244528 0.012595
v 0.191335 -0.244528 -0.012595
v 0.270368 -0.197140 -0.012595
v 0.269972 -0.197111 0.007206
v 0.096656 -0.276113 0.005793
v 0.096513 -0.275688 -0.005264
v 0.191335 -0.244528 0.012595
v 0.191335 -0.244528 -0.012595
v -0.000010 -0.288500 0.012595
v -0.000010 -0.288500 -0.012595
v 0.096656 -0.276113 0.005793
v 0.096513 -0.275688 -0.005264
v -0.000010 -0.020246 -0.207799
v -0.000010 -0.288500 -0.012595
v 0.096513 -0.275688 -0.005264
v 0.191335 -0.244528 -0.012595
v -0.000010 0.210920 -0.346641
v -0.000010 -0.020246 -0.207799
v 0.140988 0.062404 -0.207799
v 0.191335 -0.244528 -0.012595
v 0.140988 0.062404 -0.207799
v 0.331721 -0.143182 -0.012595
v 0.384675 -0.080408 -0.010001
v 0.425907 -0.013724 -0.012595
v -0.000010 0.210920 -0.346641
v 0.140988 0.062404 -0.207799
v 0.202940 0.184927 -0.207799
v 0.425907 -0.013724 -0.012595
v 0.202940 0.184927 -0.207799
v 0.425907 -0.013724 -0.012595
v 0.485092 0.148680 -0.012749
v -0.320017 0.103875 0.113359
v -0.250014 0.184649 0.113359
v 0.249995 0.184650 0.113359
v 0.319996 0.103875 0.113359
v 0.117717 -0.071175 0.113359
v -0.117736 -0.071175 0.113359
v 0.500000 0.288500 0.012595
v 0.500000 0.288500 -0.012595
v -0.500000 0.288499 -0.012595
v -0.500000 0.288499 0.012595
v 0.500000 0.288500 -0.012595
v -0.000010 0.210920 -0.346641
v -0.500000 0.288499 -0.012595
v -0.000010 0.210920 -0.346641
v 0.202940 0.184927 -0.207799
v 0.500000 0.288500 -0.012595
v -0.500000 0.288499 -0.012595
v -0.202961 0.184927 -0.207799
v -0.000010 0.210920 -0.346641
f 1 4 3 2
f 6 5 7
f 9 8 11 10
f 15 14 12 13
f 18 17 16
f 20 22 21 19
f 24 23 26 25
f 28 29 27
f 32 31 30
f 36 35 34 33
f 38 39 37
f 41 40 42
f 43 46 45 44
f 47 50 49 48
f 54 52 51 53
f 55 58 57 56
f 59 60 61 62
f 66 64 63 65
f 69 70 68 67
f 73 74 72 71
f 77 78 75 76
f 82 81 80 79
f 85 86 84 83
f 88 87 89 90
f 92 93 94 91
f 95 96 98 97
f 100 101 102 99
f 103 104 106 105
f 108 109 107
f 110 111 112 113
f 115 116 117 114
f 121 119 118 120
f 124 122 123
f 126 125 127 128
f 130 131 132 129
f 134 133 135
f 138 136 137
f 142 139 140 141
f 144 143 145
f 147 148 146
f 152 151 149 150
f 153 154 155 156
f 157 160 159 158
f 164 163 161 162
f 167 165 166 168
f 171 169 170 172
f 175 174 173 176
f 180 177 178 179
f 183 181 182 184
f 186 188 187 185
f 190 189 192 191
f 193 195 196 194
f 198 197 200 199
f 201 203 204 202
f 206 205 207
f 213 209 208
f 210 209 213
f 211 210 212
f 213 212 210
f 214 215 216 217
f 218 219 220
f 221 223 222
f 224 226 225
