# CrossGems gem mesh: heart
v -0.388278 0.183907 0.123698
v -0.495009 0.140358 0.012487
v -0.499071 0.232389 0.008990
v -0.479562 0.322397 0.012487
v -0.479562 0.322397 -0.012447
v -0.499071 0.232389 -0.009347
v -0.495009 0.140358 -0.012447
v -0.179710 0.083454 -0.308623
v -0.479562 0.322397 0.012487
v -0.430422 0.408528 0.012337
v -0.354218 0.468691 0.021529
v -0.323908 0.358822 0.131733
v -0.267816 -0.268987 0.012487
v -0.196549 -0.342365 0.010123
v -0.119371 -0.409522 0.012487
v -0.067890 -0.355539 0.109630
v -0.100689 0.475096 0.037422
v -0.074772 0.459391 0.054744
v -0.075000 0.459772 -0.060513
v -0.100423 0.475047 -0.046005
v -0.052452 0.440489 -0.078828
v -0.075000 0.459772 -0.060513
v -0.052122 0.440874 0.066093
v -0.034420 0.419190 -0.099059
v -0.052452 0.440489 -0.078828
v -0.033182 0.417439 0.078847
v -0.034420 0.419190 -0.099059
v -0.016661 0.390291 -0.120948
v -0.016921 0.388887 0.092872
v -0.033182 0.417439 0.078847
v -0.016661 0.390291 -0.120948
v 0.000000 0.347475 -0.167176
v 0.000000 0.347475 0.108036
v -0.134964 0.488234 0.031165
v -0.172010 0.496623 0.025511
v -0.172010 0.496623 -0.025511
v -0.135303 0.488383 -0.035075
v -0.100689 0.475096 0.037422
v -0.134964 0.488234 0.031165
v -0.135303 0.488383 -0.035075
v -0.100423 0.475047 -0.046005
v -0.067890 -0.355539 0.109630
v -0.119371 -0.409522 0.012487
v 0.000000 -0.500000 0.012487
v 0.000000 -0.500000 -0.012447
v -0.119371 -0.409522 -0.012447
v -0.042967 -0.132814 -0.301651
v -0.267816 -0.268987 -0.012447
v -0.196548 -0.342366 -0.010163
v -0.119371 -0.409522 -0.012447
v -0.042967 -0.132814 -0.301651
v 0.000084 0.261818 0.161378
v 0.000008 0.304646 0.131733
v -0.159874 0.285717 0.161378
v 0.000008 0.304646 0.131733
v -0.159874 0.285717 0.161378
v -0.172010 0.496623 0.025511
v -0.323908 0.358822 0.131733
v -0.172010 0.496623 0.025511
v -0.265223 0.496417 0.012448
v -0.323908 0.358822 0.131733
v -0.354218 0.468691 0.021529
v -0.159874 0.285717 0.161378
v -0.309630 0.243998 0.161378
v -0.323908 0.358822 0.131733
v -0.309630 0.243998 0.161378
v -0.323908 0.358822 0.131733
v -0.388278 0.183907 0.123698
v -0.479562 0.322397 0.012487
v -0.287963 0.080668 0.161378
v -0.309630 0.243998 0.161378
v -0.388278 0.183907 0.123698
v -0.277550 -0.074016 0.123698
v -0.287963 0.080668 0.161378
v -0.388278 0.183907 0.123698
v -0.450046 -0.012082 0.012487
v -0.388278 0.183907 0.123698
v -0.450046 -0.012082 0.012487
v -0.477883 0.062558 0.010151
v -0.495009 0.140358 0.012487
v -0.277550 -0.074016 0.123698
v -0.361279 -0.156406 0.012487
v -0.409541 -0.086630 0.010579
v -0.450046 -0.012082 0.012487
v -0.267816 -0.268987 0.012487
v -0.277550 -0.074016 0.123698
v -0.361279 -0.156406 0.012487
v -0.067890 -0.355539 0.109630
v -0.136944 -0.168060 0.161378
v -0.267816 -0.268987 0.012487
v -0.277550 -0.074016 0.123698
v -0.136944 -0.168060 0.161378
v -0.277550 -0.074016 0.123698
v -0.287963 0.080668 0.161378
v 0.000000 -0.268223 0.161378
v -0.067890 -0.355539 0.109630
v -0.136944 -0.168060 0.161378
v 0.000000 -0.500000 0.012487
v 0.000000 -0.500000 -0.012447
v -0.119371 -0.409522 0.012487
v -0.119371 -0.409522 -0.012447
v -0.119371 -0.409522 0.012487
v -0.119371 -0.409522 -0.012447
v -0.196548 -0.342366 -0.010163
v -0.196549 -0.342365 0.010123
v -0.196548 -0.342366 -0.010163
v -0.196549 -0.342365 0.010123
v -0.267816 -0.268987 0.012487
v -0.267816 -0.268987 -0.012447
v -0.267816 -0.268987 0.012487
v -0.267816 -0.268987 -0.012447
v -0.361279 -0.156406 0.012487
v -0.361279 -0.156406 -0.012447
v -0.361279 -0.156406 0.012487
v -0.361279 -0.156406 -0.012447
v -0.409541 -0.086630 0.010579
v -0.409541 -0.086630 -0.010245
v -0.409541 -0.086630 -0.010245
v -0.409541 -0.086630 0.010579
v -0.450046 -0.012082 0.012487
v -0.450046 -0.012082 -0.012447
v -0.450046 -0.012082 0.012487
v -0.450046 -0.012082 -0.012447
v -0.477883 0.062558 -0.009749
v -0.477883 0.062558 0.010151
v -0.477883 0.062558 0.010151
v -0.477883 0.062558 -0.009749
v -0.495009 0.140358 0.012487
v -0.495009 0.140358 -0.012447
v -0.495009 0.140358 0.012487
v -0.495009 0.140358 -0.012447
v -0.499071 0.232389 0.008990
v -0.499071 0.232389 -0.009347
v -0.479562 0.322397 0.012487
v -0.479562 0.322397 -0.012447
v -0.499071 0.232389 0.008990
v -0.499071 0.232389 -0.009347
v -0.430422 0.408528 0.012337
v -0.430423 0.408528 -0.011973
v -0.479562 0.322397 0.012487
v -0.479562 0.322397 -0.012447
v -0.354218 0.468691 0.021529
v -0.354218 0.468691 -0.020684
v -0.430422 0.408528 0.012337
v -0.430423 0.408528 -0.011973
v -0.265222 0.496417 -0.012943
v -0.265223 0.496417 0.012448
v -0.354218 0.468691 0.021529
v -0.354218 0.468691 -0.020684
v -0.172010 0.496623 0.025511
v -0.172010 0.496623 -0.025511
v -0.265222 0.496417 -0.012943
v -0.265223 0.496417 0.012448
v 0.000000 0.205896 -0.301651
v 0.000000 0.049318 -0.438622
v -0.122109 0.187049 -0.308623
v -0.172010 0.496623 -0.025511
v -0.122109 0.187049 -0.308623
v -0.172010 0.496623 -0.025511
v -0.265222 0.496417 -0.012943
v -0.354218 0.468691 -0.020684
v -0.122109 0.187049 -0.308623
v -0.354218 0.468691 -0.020684
v -0.430423 0.408528 -0.011973
v -0.479562 0.322397 -0.012447
v 0.000000 0.049318 -0.438622
v -0.122109 0.187049 -0.308623
v -0.179710 0.083454 -0.308623
v -0.479562 0.322397 -0.012447
v -0.179710 0.083454 -0.308623
v -0.450046 -0.012082 -0.012447
v -0.477883 0.062558 -0.009749
v -0.495009 0.140358 -0.012447
v 0.000000 0.049318 -0.438622
v -0.121308 -0.013839 -0.301651
v -0.179710 0.083454 -0.308623
v -0.450046 -0.012082 -0.012447
v -0.121308 -0.013839 -0.301651
v -0.361279 -0.156406 -0.012447
v -0.409541 -0.086630 -0.010245
v -0.450046 -0.012082 -0.012447
v -0.121308 -0.013839 -0.301651
v -0.267816 -0.268987 -0.012447
v -0.361279 -0.156406 -0.012447
v 0.000000 0.049318 -0.438622
v -0.042967 -0.132814 -0.301651
v -0.121308 -0.013839 -0.301651
v -0.267816 -0.268987 -0.012447
v 0.388278 0.183907 0.123698
v 0.495009 0.140358 0.012487
v 0.499071 0.232389 0.008990
v 0.479562 0.322397 0.012487
v 0.479562 0.322397 -0.012447
v 0.499071 0.232389 -0.009347
v 0.495009 0.140358 -0.012447
v 0.179710 0.083454 -0.308623
v 0.479562 0.322397 0.012487
v 0.430422 0.408528 0.012337
v 0.354218 0.468691 0.021529
v 0.323908 0.358822 0.131733
v 0.267816 -0.268987 0.012487
v 0.196549 -0.342365 0.010123
v 0.119371 -0.409522 0.012487
v 0.067890 -0.355539 0.109630
v 0.100689 0.475096 0.037422
v 0.074772 0.459391 0.054744
v 0.075000 0.459772 -0.060513
v 0.100423 0.475047 -0.046005
v 0.052452 0.440489 -0.078828
v 0.075000 0.459772 -0.060513
v 0.052122 0.440874 0.066093
v 0.034420 0.419190 -0.099059
v 0.052452 0.440489 -0.078828
v 0.033182 0.417439 0.078847
v 0.034420 0.419190 -0.099059
v 0.016661 0.390291 -0.120948
v 0.016921 0.388887 0.092872
v 0.033182 0.417439 0.078847
v 0.016661 0.390291 -0.120948
v 0.000000 0.347475 -0.167176
v 0.000000 0.347475 0.108036
v 0.134964 0.488234 0.031165
v 0.172010 0.496623 0.025511
v 0.172010 0.496623 -0.025511
v 0.135303 0.488383 -0.035075
v 0.100689 0.475096 0.037422
v 0.134964 0.488234 0.031165
v 0.135303 0.488383 -0.035075
v 0.100423 0.475047 -0.046005
v 0.067890 -0.355539 0.109630
v 0.119371 -0.409522 0.012487
v 0.000000 -0.500000 0.012487
v 0.000000 -0.500000 -0.012447
v 0.119371 -0.409522 -0.012447
v 0.042967 -0.132814 -0.301651
v 0.267816 -0.268987 -0.012447
v 0.196548 -0.342366 -0.010163
v 0.119371 -0.409522 -0.012447
v 0.042967 -0.132814 -0.301651
v 0.000084 0.261818 0.161378
v 0.000008 0.304646 0.131733
v 0.159874 0.285717 0.161378
v 0.000008 0.304646 0.131733
v 0.159874 0.285717 0.161378
v 0.172010 0.496623 0.025511
v 0.323908 0.358822 0.131733
v 0.172010 0.496623 0.025511
v 0.265223 0.496417 0.012448
v 0.323908 0.358822 0.131733
v 0.354218 0.468691 0.021529
v 0.159874 0.285717 0.161378
v 0.309630 0.243998 0.161378
v 0.323908 0.358822 0.131733
v 0.309630 0.243998 0.161378
v 0.323908 0.358822 0.131733
v 0.388278 0.183907 0.123698
v 0.479562 0.322397 0.012487
v 0.287963 0.080668 0.161378
v 0.309630 0.243998 0.161378
v 0.388278 0.183907 0.123698
v 0.277550 -0.074016 0.123698
v 0.287963 0.080668 0.161378
v 0.388278 0.183907 0.123698
v 0.450046 -0.012082 0.012487
v 0.388278 0.183907 0.123698
v 0.450046 -0.012082 0.012487
v 0.477883 0.062558 0.010151
v 0.495009 0.140358 0.012487
v 0.277550 -0.074016 0.123698
v 0.361279 -0.156406 0.012487
v 0.409541 -0.086630 0.010579
v 0.450046 -0.012082 0.012487
v 0.267816 -0.268987 0.012487
v 0.277550 -0.074016 0.123698
v 0.361279 -0.156406 0.012487
v 0.067890 -0.355539 0.109630
v 0.136944 -0.168060 0.161378
v 0.267816 -0.268987 0.012487
v 0.277550 -0.074016 0.123698
v 0.136944 -0.168060 0.161378
v 0.277550 -0.074016 0.123698
v 0.287963 0.080668 0.161378
v 0.000000 -0.268223 0.161378
v 0.067890 -0.355539 0.109630
v 0.136944 -0.168060 0.161378
v -0.067890 -0.355539 0.109630
v 0.000000 -0.268223 0.161378
v 0.000000 -0.500000 0.012487
v 0.067890 -0.355539 0.109630
v 0.000000 -0.500000 0.012487
v 0.000000 -0.500000 -0.012447
v 0.119371 -0.409522 0.012487
v 0.119371 -0.409522 -0.012447
v 0.119371 -0.409522 0.012487
v 0.119371 -0.409522 -0.012447
v 0.196548 -0.342366 -0.010163
v 0.196549 -0.342365 0.010123
v 0.196548 -0.342366 -0.010163
v 0.196549 -0.342365 0.010123
v 0.267816 -0.268987 0.012487
v 0.267816 -0.268987 -0.012447
v 0.267816 -0.268987 0.012487
v 0.267816 -0.268987 -0.012447
v 0.361279 -0.156406 0.012487
v 0.361279 -0.156406 -0.012447
v 0.361279 -0.156406 0.012487
v 0.361279 -0.156406 -0.012447
v 0.409541 -0.086630 0.010579
v 0.409541 -0.086630 -0.010245
v 0.409541 -0.086630 -0.010245
v 0.409541 -0.086630 0.010579
v 0.450046 -0.012082 0.012487
v 0.450046 -0.012082 -0.012447
v 0.450046 -0.012082 0.012487
v 0.450046 -0.012082 -0.012447
v 0.477883 0.062558 -0.009749
v 0.477883 0.062558 0.010151
v 0.477883 0.062558 0.010151
v 0.477883 0.062558 -0.009749
v 0.495009 0.140358 0.012487
v 0.495009 0.140358 -0.012447
v 0.495009 0.140358 0.012487
v 0.495009 0.140358 -0.012447
v 0.499071 0.232389 0.008990
v 0.499071 0.232389 -0.009347
v 0.479562 0.322397 0.012487
v 0.479562 0.322397 -0.012447
v 0.499071 0.232389 0.008990
v 0.499071 0.232389 -0.009347
v 0.430422 0.408528 0.012337
v 0.430423 0.408528 -0.011973
v 0.479562 0.322397 0.012487
v 0.479562 0.322397 -0.012447
v 0.354218 0.468691 0.021529
v 0.354218 0.468691 -0.020684
v 0.430422 0.408528 0.012337
v 0.430423 0.408528 -0.011973
v 0.265222 0.496417 -0.012943
v 0.265223 0.496417 0.012448
v 0.354218 0.468691 0.021529
v 0.354218 0.468691 -0.020684
v 0.172010 0.496623 0.025511
v 0.172010 0.496623 -0.025511
v 0.265222 0.496417 -0.012943
v 0.265223 0.496417 0.012448
v 0.000000 0.205896 -0.301651
v 0.000000 0.049318 -0.438622
v 0.122109 0.187049 -0.308623
v 0.172010 0.496623 -0.025511
v 0.122109 0.187049 -0.308623
v 0.172010 0.496623 -0.025511
v 0.265222 0.496417 -0.012943
v 0.354218 0.468691 -0.020684
v 0.122109 0.187049 -0.308623
v 0.354218 0.468691 -0.020684
v 0.430423 0.408528 -0.011973
v 0.479562 0.322397 -0.012447
v 0.000000 0.049318 -0.438622
v 0.122109 0.187049 -0.308623
v 0.179710 0.083454 -0.308623
v 0.479562 0.322397 -0.012447
v 0.179710 0.083454 -0.308623
v 0.450046 -0.012082 -0.012447
v 0.477883 0.062558 -0.009749
v 0.495009 0.140358 -0.012447
v 0.000000 0.049318 -0.438622
v 0.121308 -0.013839 -0.301651
v 0.179710 0.083454 -0.308623
v 0.450046 -0.012082 -0.012447
v 0.121308 -0.013839 -0.301651
v 0.361279 -0.156406 -0.012447
v 0.409541 -0.086630 -0.010245
v 0.450046 -0.012082 -0.012447
v 0.121308 -0.013839 -0.301651
v 0.267816 -0.268987 -0.012447
v 0.361279 -0.156406 -0.012447
v 0.000000 0.049318 -0.438622
v 0.042967 -0.132814 -0.301651
v 0.121308 -0.013839 -0.301651
v 0.267816 -0.268987 -0.012447
v -0.042967 -0.132814 -0.301651
v 0.000000 0.049318 -0.438622
v 0.000000 -0.500000 -0.012447
v 0.042967 -0.132814 -0.301651
v -0.309630 0.243998 0.161378
v -0.159874 0.285717 0.161378
v 0.000084 0.261818 0.161378
v 0.159874 0.285717 0.161378
v 0.309630 0.243998 0.161378
v 0.287963 0.080668 0.161378
v 0.136944 -0.168060 0.161378
v 0.000000 -0.268223 0.161378
v -0.136944 -0.168060 0.161378
v -0.287963 0.080668 0.161378
v 0.000008 0.304646 0.131733
v 0.000000 0.347475 0.108036
v -0.016921 0.388887 0.092872
v -0.033182 0.417439 0.078847
v -0.052122 0.440874 0.066093
v -0.074772 0.459391 0.054744
v -0.100689 0.475096 0.037422
v -0.134964 0.488234 0.031165
v -0.172010 0.496623 0.025511
v 0.000000 0.347475 -0.167176
v 0.000000 0.205896 -0.301651
v -0.172010 0.496623 -0.025511
v -0.135303 0.488383 -0.035075
v -0.100423 0.475047 -0.046005
v -0.075000 0.459772 -0.060513
v -0.052452 0.440489 -0.078828
v -0.034420 0.419190 -0.099059
v -0.016661 0.390291 -0.120948
v 0.000008 0.304646 0.131733
v 0.000000 0.347475 0.108036
v 0.016921 0.388887 0.092872
v 0.033182 0.417439 0.078847
v 0.052122 0.440874 0.066093
v 0.074772 0.459391 0.054744
v 0.100689 0.475096 0.037422
v 0.134964 0.488234 0.031165
v 0.172010 0.496623 0.025511
v 0.000000 0.347475 -0.167176
v 0.000000 0.205896 -0.301651
v 0.172010 0.496623 -0.025511
v 0.135303 0.488383 -0.035075
v 0.100423 0.475047 -0.046005
v 0.075000 0.459772 -0.060513
v 0.052452 0.440489 -0.078828
v 0.034420 0.419190 -0.099059
v 0.016661 0.390291 -0.120948
f 1 4 3 2
f 5 8 7 6
f 9 12 11 10
f 13 14 15 16
f 17 18 19 20
f 21 22 18 23
f 24 25 23 26
f 27 30 29 28
f 31 29 33 32
f 34 37 36 35
f 38 41 40 39
f 42 43 44
f 45 46 47
f 48 51 50 49
f 53 54 52
f 56 55 57 58
f 59 60 62 61
f 65 64 63
f 66 67 69 68
f 70 71 72
f 73 74 75 76
f 78 77 80 79
f 81 84 83 82
f 87 85 86
f 89 91 90 88
f 92 94 93
f 96 95 97
f 101 99 98 100
f 105 104 103 102
f 106 107 108 109
f 113 111 110 112
f 116 117 115 114
f 119 120 121 118
f 124 123 122 125
f 128 129 127 126
f 132 133 131 130
f 134 135 137 136
f 138 139 141 140
f 145 144 142 143
f 146 149 148 147
f 151 152 153 150
f 155 156 157 154
f 160 159 158 161
f 163 162 165 164
f 166 168 169 167
f 173 170 171 172
f 174 175 177 176
f 178 179 180 181
f 183 184 182
f 185 186 188 187
f 189 190 191 192
f 193 194 195 196
f 197 198 199 200
f 201 204 203 202
f 205 208 207 206
f 209 211 206 210
f 212 214 211 213
f 215 216 217 218
f 219 220 221 217
f 222 223 224 225
f 226 227 228 229
f 230 232 231
f 233 235 234
f 236 237 238 239
f 241 240 242
f 244 246 245 243
f 247 249 250 248
f 253 251 252
f 254 256 257 255
f 258 260 259
f 261 264 263 262
f 266 267 268 265
f 269 270 271 272
f 275 274 273
f 277 276 278 279
f 280 281 282
f 284 285 283
f 287 286 288 289
f 293 292 290 291
f 297 294 295 296
f 298 301 300 299
f 305 304 302 303
f 308 306 307 309
f 311 310 313 312
f 316 317 314 315
f 320 318 319 321
f 324 322 323 325
f 326 328 329 327
f 330 332 333 331
f 337 335 334 336
f 338 339 340 341
f 343 342 345 344
f 347 346 349 348
f 352 353 350 351
f 355 356 357 354
f 358 359 361 360
f 365 364 363 362
f 366 368 369 367
f 370 373 372 371
f 375 374 376
f 377 379 380 378
f 382 384 383 381
f 394 387 386
f 385 394 386
f 393 387 394
f 393 391 387
f 390 389 388
f 393 392 391
f 391 390 387
f 390 388 387
f 403 395 397
f 397 395 396
f 400 397 398
f 397 400 403
f 400 402 403
f 401 402 400
f 399 400 398
f 407 408 409
f 407 411 406
f 410 407 409
f 406 412 404
f 406 404 405
f 406 411 412
f 411 407 410
f 421 415 413
f 415 414 413
f 418 416 415
f 415 421 418
f 418 421 420
f 419 418 420
f 417 416 418
f 425 427 426
f 425 424 429
f 428 427 425
f 424 422 430
f 424 423 422
f 424 430 429
f 429 428 425
