# CrossGems gem mesh: hexagonal
v -0.401400 0.000000 -0.173100
v -0.122600 0.070800 -0.410100
v 0.000000 0.000000 -0.514400
v -0.122600 -0.070800 -0.410100
v -0.200700 0.347500 -0.173100
v 0.000000 0.141600 -0.410100
v 0.000000 0.000000 -0.514400
v -0.122600 0.070800 -0.410100
v 0.200700 0.347500 -0.173100
v 0.122600 0.070800 -0.410100
v 0.000000 0.000000 -0.514400
v 0.000000 0.141600 -0.410100
v 0.401400 0.000000 -0.173100
v 0.122600 -0.070800 -0.410100
v 0.000000 0.000000 -0.514400
v 0.122600 0.070800 -0.410100
v 0.200700 -0.347500 -0.173100
v 0.000000 -0.141600 -0.410100
v 0.000000 0.000000 -0.514400
v 0.122600 -0.070800 -0.410100
v -0.200700 -0.347500 -0.173100
v -0.122600 -0.070800 -0.410100
v 0.000000 0.000000 -0.514400
v 0.000000 -0.141600 -0.410100
v -0.500000 -0.288600 -0.012500
v -0.200700 -0.347500 -0.173100
v 0.000000 -0.577200 -0.012500
v -0.500000 0.288600 -0.012500
v -0.401400 0.000000 -0.173100
v -0.500000 -0.288600 -0.012500
v 0.000000 0.577200 -0.012500
v -0.200700 0.347500 -0.173100
v -0.500000 0.288600 -0.012500
v 0.500000 0.288600 -0.012500
v 0.200700 0.347500 -0.173100
v 0.000000 0.577200 -0.012500
v 0.500000 -0.288600 -0.012500
v 0.401400 0.000000 -0.173100
v 0.500000 0.288600 -0.012500
v 0.000000 -0.577200 -0.012500
v 0.200700 -0.347500 -0.173100
v 0.500000 -0.288600 -0.012500
v -0.308700 -0.178200 0.147100
v -0.500000 -0.288600 0.012500
v -0.211600 -0.366500 0.087500
v 0.000000 -0.356400 0.147100
v -0.211600 -0.366500 0.087500
v 0.000000 -0.577200 0.012500
v -0.211600 -0.366500 0.087500
v 0.000000 -0.356400 0.147100
v -0.308700 -0.178200 0.147100
v -0.308700 -0.178200 0.147100
v -0.423300 0.000000 0.087500
v -0.500000 -0.288600 0.012500
v -0.308700 -0.178200 0.147100
v -0.308700 0.178200 0.147100
v -0.423300 0.000000 0.087500
v -0.308700 0.178200 0.147100
v -0.500000 0.288600 0.012500
v -0.423300 0.000000 0.087500
v 0.000000 0.356400 0.147100
v 0.000000 0.577200 0.012500
v -0.211600 0.366500 0.087500
v -0.211600 0.366500 0.087500
v -0.308700 0.178200 0.147100
v 0.000000 0.356400 0.147100
v -0.308700 0.178200 0.147100
v -0.211600 0.366500 0.087500
v -0.500000 0.288600 0.012500
v 0.308700 0.178200 0.147100
v 0.500000 0.288600 0.012500
v 0.211600 0.366500 0.087500
v 0.211600 0.366500 0.087500
v 0.000000 0.356400 0.147100
v 0.308700 0.178200 0.147100
v 0.000000 0.356400 0.147100
v 0.211600 0.366500 0.087500
v 0.000000 0.577200 0.012500
v 0.308700 -0.178200 0.147100
v 0.423300 0.000000 0.087500
v 0.308700 0.178200 0.147100
v 0.308700 -0.178200 0.147100
v 0.500000 -0.288600 0.012500
v 0.423300 0.000000 0.087500
v 0.308700 0.178200 0.147100
v 0.423300 0.000000 0.087500
v 0.500000 0.288600 0.012500
v 0.000000 -0.356400 0.147100
v 0.000000 -0.577200 0.012500
v 0.211600 -0.366500 0.087500
v 0.211600 -0.366500 0.087500
v 0.308700 -0.178200 0.147100
v 0.000000 -0.356400 0.147100
v 0.308700 -0.178200 0.147100
v 0.211600 -0.366500 0.087500
v 0.500000 -0.288600 0.012500
v 0.401400 0.000000 -0.173100
v 0.500000 -0.288600 -0.012500
v 0.122600 -0.070800 -0.410100
v 0.401400 0.000000 -0.173100
v 0.122600 0.070800 -0.410100
v 0.500000 0.288600 -0.012500
v 0.200700 -0.347500 -0.173100
v 0.122600 -0.070800 -0.410100
v 0.500000 -0.288600 -0.012500
v 0.200700 -0.347500 -0.173100
v 0.000000 -0.577200 -0.012500
v 0.000000 -0.141600 -0.410100
v 0.200700 0.347500 -0.173100
v 0.500000 0.288600 -0.012500
v 0.122600 0.070800 -0.410100
v 0.200700 0.347500 -0.173100
v 0.000000 0.141600 -0.410100
v 0.000000 0.577200 -0.012500
v -0.200700 0.347500 -0.173100
v -0.122600 0.070800 -0.410100
v -0.500000 0.288600 -0.012500
v -0.200700 0.347500 -0.173100
v 0.000000 0.577200 -0.012500
v 0.000000 0.141600 -0.410100
v -0.200700 -0.347500 -0.173100
v -0.500000 -0.288600 -0.012500
v -0.122600 -0.070800 -0.410100
v -0.200700 -0.347500 -0.173100
v 0.000000 -0.141600 -0.410100
v 0.000000 -0.577200 -0.012500
v -0.401400 0.000000 -0.173100
v -0.122600 -0.070800 -0.410100
v -0.500000 -0.288600 -0.012500
v -0.401400 0.000000 -0.173100
v -0.500000 0.288600 -0.012500
v -0.122600 0.070800 -0.410100
v -0.500000 -0.288600 0.012500
v 0.000000 -0.577200 0.012500
v -0.211600 -0.366500 0.087500
v 0.500000 -0.288600 0.012500
v 0.500000 0.288600 0.012500
v 0.423300 0.000000 0.087500
v 0.000000 -0.577200 0.012500
v 0.500000 -0.288600 0.012500
v 0.211600 -0.366500 0.087500
v -0.500000 0.288600 0.012500
v -0.500000 -0.288600 0.012500
v -0.423300 0.000000 0.087500
v 0.000000 0.577200 0.012500
v -0.500000 0.288600 0.012500
v -0.211600 0.366500 0.087500
v 0.500000 0.288600 0.012500
v 0.000000 0.577200 0.012500
v 0.211600 0.366500 0.087500
v -0.500000 -0.288600 0.012500
v -0.500000 -0.288600 -0.012500
v -0.500000 0.288600 -0.012500
v -0.500000 0.288600 0.012500
v -0.500000 0.288600 0.012500
v -0.500000 0.288600 -0.012500
v 0.000000 0.577200 -0.012500
v 0.000000 0.577200 0.012500
v 0.000000 0.577200 0.012500
v 0.000000 0.577200 -0.012500
v 0.500000 0.288600 -0.012500
v 0.500000 0.288600 0.012500
v 0.500000 0.288600 0.012500
v 0.500000 0.288600 -0.012500
v 0.500000 -0.288600 -0.012500
v 0.500000 -0.288600 0.012500
v 0.500000 -0.288600 0.012500
v 0.500000 -0.288600 -0.012500
v 0.000000 -0.577200 -0.012500
v 0.000000 -0.577200 0.012500
v 0.000000 -0.577200 0.012500
v 0.000000 -0.577200 -0.012500
v -0.500000 -0.288600 -0.012500
v -0.500000 -0.288600 0.012500
v -0.308700 0.178200 0.147100
v -0.308700 -0.178200 0.147100
v 0.000000 -0.356400 0.147100
v 0.308700 -0.178200 0.147100
v 0.308700 0.178200 0.147100
v 0.000000 0.356400 0.147100
f 1 2 3 4
f 5 6 7 8
f 9 10 11 12
f 13 14 15 16
f 17 18 19 20
f 21 22 23 24
f 25 26 27
f 28 29 30
f 31 32 33
f 34 35 36
f 37 38 39
f 40 41 42
f 43 44 45
f 46 47 48
f 49 50 51
f 52 53 54
f 55 56 57
f 58 59 60
f 61 62 63
f 64 65 66
f 67 68 69
f 70 71 72
f 73 74 75
f 76 77 78
f 79 80 81
f 82 83 84
f 85 86 87
f 88 89 90
f 91 92 93
f 94 95 96
f 97 98 99
f 100 101 102
f 103 104 105
f 106 107 108
f 109 110 111
f 112 113 114
f 115 116 117
f 118 119 120
f 121 122 123
f 124 125 126
f 127 128 129
f 130 131 132
f 133 134 135
f 136 137 138
f 139 140 141
f 142 143 144
f 145 146 147
f 148 149 150
f 151 154 153 152
f 155 158 157 156
f 159 162 161 160
f 163 166 165 164
f 167 170 169 168
f 171 174 173 172
f 175 176 177
f 180 175 177
f 179 180 178
f 177 178 180
