# CrossGems gem mesh: marquise
v -0.162500 0.000037 0.075030
v -0.194000 0.118273 0.050733
v -0.119147 0.185833 0.075030
v 0.194000 0.118273 0.050733
v 0.162500 0.000037 0.075030
v 0.194000 -0.118273 0.050733
v 0.250000 0.000000 0.007539
v -0.000000 0.325009 0.075030
v 0.059207 0.387958 0.050733
v 0.000000 0.500000 0.007539
v -0.059207 0.387958 0.050733
v 0.059207 0.387958 0.050733
v 0.103926 0.405940 0.007539
v 0.054649 0.456636 0.003034
v 0.000000 0.500000 0.007539
v -0.000000 0.325009 0.075030
v 0.119147 0.185833 0.075030
v 0.059207 0.387958 0.050733
v 0.059207 0.387958 0.050733
v 0.183303 0.285910 0.007539
v 0.147042 0.348725 0.003511
v 0.103926 0.405940 0.007539
v 0.059207 0.387958 0.050733
v 0.119147 0.185833 0.075030
v 0.194000 0.118273 0.050733
v 0.183303 0.285910 0.007539
v 0.212129 0.218504 0.003550
v 0.183303 0.285910 0.007539
v 0.194000 0.118273 0.050733
v 0.233055 0.147587 0.007539
v 0.233055 0.147587 0.007539
v 0.194000 0.118273 0.050733
v 0.250000 0.000000 0.007539
v 0.245747 0.074299 0.003173
v 0.250000 0.000000 0.007539
v 0.194000 -0.118273 0.050733
v 0.233055 -0.147587 0.007539
v 0.245747 -0.074299 0.003173
v 0.194000 -0.118273 0.050733
v 0.183303 -0.285910 0.007539
v 0.212129 -0.218504 0.003550
v 0.233055 -0.147587 0.007539
v 0.059207 -0.387958 0.050733
v 0.183303 -0.285910 0.007539
v 0.194000 -0.118273 0.050733
v 0.119147 -0.185777 0.075030
v 0.119147 -0.185777 0.075030
v 0.000000 -0.324935 0.075030
v 0.059207 -0.387958 0.050733
v 0.000000 -0.500000 0.007539
v 0.059207 -0.387958 0.050733
v 0.000000 -0.324935 0.075030
v -0.059207 -0.387958 0.050733
v 0.054649 -0.456636 0.003034
v 0.103926 -0.405940 0.007539
v 0.059207 -0.387958 0.050733
v 0.000000 -0.500000 0.007539
v 0.103926 -0.405940 0.007539
v 0.147042 -0.348725 0.003511
v 0.183303 -0.285910 0.007539
v 0.059207 -0.387958 0.050733
v 0.054649 -0.456636 0.003034
v 0.000000 -0.500000 0.007539
v 0.000000 -0.500000 -0.007539
v 0.054649 -0.456636 -0.004890
v 0.103926 -0.405940 -0.007539
v 0.103926 -0.405940 0.007539
v 0.054649 -0.456636 0.003034
v 0.054649 -0.456636 -0.004890
v 0.147042 -0.348725 -0.004576
v 0.147042 -0.348725 0.003511
v 0.103926 -0.405940 0.007539
v 0.103926 -0.405940 -0.007539
v 0.147042 -0.348725 -0.004576
v 0.183303 -0.285910 -0.007539
v 0.183303 -0.285910 0.007539
v 0.147042 -0.348725 0.003511
v 0.212129 -0.218504 0.003550
v 0.183303 -0.285910 0.007539
v 0.183303 -0.285910 -0.007539
v 0.212129 -0.218504 -0.004209
v 0.212129 -0.218504 -0.004209
v 0.233055 -0.147587 -0.007539
v 0.233055 -0.147587 0.007539
v 0.212129 -0.218504 0.003550
v 0.233055 -0.147587 -0.007539
v 0.245747 -0.074299 -0.003811
v 0.245747 -0.074299 0.003173
v 0.233055 -0.147587 0.007539
v 0.245747 -0.074299 -0.003811
v 0.250000 0.000000 -0.007539
v 0.250000 0.000000 0.007539
v 0.245747 -0.074299 0.003173
v 0.245747 0.074299 -0.003811
v 0.245747 0.074299 0.003173
v 0.250000 0.000000 0.007539
v 0.250000 0.000000 -0.007539
v 0.245747 0.074299 0.003173
v 0.245747 0.074299 -0.003811
v 0.233055 0.147587 -0.007539
v 0.233055 0.147587 0.007539
v 0.233055 0.147587 -0.007539
v 0.212129 0.218504 -0.004209
v 0.212129 0.218504 0.003550
v 0.233055 0.147587 0.007539
v 0.212129 0.218504 0.003550
v 0.212129 0.218504 -0.004209
v 0.183303 0.285910 -0.007539
v 0.183303 0.285910 0.007539
v 0.147042 0.348725 -0.004576
v 0.147042 0.348725 0.003511
v 0.183303 0.285910 0.007539
v 0.183303 0.285910 -0.007539
v 0.147042 0.348725 0.003511
v 0.147042 0.348725 -0.004576
v 0.103926 0.405940 -0.007539
v 0.103926 0.405940 0.007539
v 0.103926 0.405940 -0.007539
v 0.054649 0.456636 -0.004890
v 0.054649 0.456636 0.003034
v 0.103926 0.405940 0.007539
v 0.054649 0.456636 0.003034
v 0.054649 0.456636 -0.004890
v 0.000000 0.500000 -0.007539
v 0.000000 0.500000 0.007539
v 0.000000 0.500000 -0.007539
v 0.054649 0.456636 -0.004890
v -0.000000 0.315191 -0.087845
v 0.054649 0.456636 -0.004890
v 0.103926 0.405940 -0.007539
v 0.000000 0.130382 -0.168151
v -0.000000 0.315191 -0.087845
v 0.147042 0.348725 -0.004576
v 0.183303 0.285910 -0.007539
v 0.000000 0.130382 -0.168151
v 0.103926 0.405940 -0.007539
v 0.000000 0.130382 -0.168151
v 0.183303 0.285910 -0.007539
v 0.065260 0.000000 -0.168151
v 0.000000 0.000000 -0.208304
v 0.183303 0.285910 -0.007539
v 0.212129 0.218504 -0.004209
v 0.233055 0.147587 -0.007539
v 0.065260 0.000000 -0.168151
v 0.233055 0.147587 -0.007539
v 0.245747 0.074299 -0.003811
v 0.250000 0.000000 -0.007539
v 0.065260 0.000000 -0.168151
v 0.245747 -0.074299 -0.003811
v 0.233055 -0.147587 -0.007539
v 0.065260 0.000000 -0.168151
v 0.250000 0.000000 -0.007539
v 0.212129 -0.218504 -0.004209
v 0.183303 -0.285910 -0.007539
v 0.065260 0.000000 -0.168151
v 0.233055 -0.147587 -0.007539
v 0.065260 0.000000 -0.168151
v 0.183303 -0.285910 -0.007539
v 0.000000 -0.130382 -0.168151
v 0.000000 0.000000 -0.208304
v 0.147042 -0.348725 -0.004576
v 0.103926 -0.405940 -0.007539
v 0.000000 -0.130382 -0.168151
v 0.183303 -0.285910 -0.007539
v 0.054649 -0.456636 -0.004890
v 0.000000 -0.500000 -0.007539
v 0.000000 -0.130382 -0.168151
v 0.103926 -0.405940 -0.007539
v -0.059207 0.387958 0.050733
v 0.000000 0.500000 0.007539
v -0.054649 0.456636 0.003034
v -0.103926 0.405940 0.007539
v -0.000000 0.325009 0.075030
v -0.059207 0.387958 0.050733
v -0.119147 0.185833 0.075030
v -0.059207 0.387958 0.050733
v -0.103926 0.405940 0.007539
v -0.147042 0.348725 0.003511
v -0.183303 0.285910 0.007539
v -0.059207 0.387958 0.050733
v -0.183303 0.285910 0.007539
v -0.194000 0.118273 0.050733
v -0.119147 0.185833 0.075030
v -0.212129 0.218504 0.003550
v -0.233055 0.147587 0.007539
v -0.194000 0.118273 0.050733
v -0.183303 0.285910 0.007539
v -0.233055 0.147587 0.007539
v -0.245747 0.074299 0.003173
v -0.250000 0.000000 0.007539
v -0.194000 0.118273 0.050733
v -0.250000 0.000000 0.007539
v -0.245747 -0.074299 0.003173
v -0.233055 -0.147587 0.007539
v -0.194000 -0.118273 0.050733
v -0.194000 -0.118273 0.050733
v -0.233055 -0.147587 0.007539
v -0.212129 -0.218504 0.003550
v -0.183303 -0.285910 0.007539
v -0.059207 -0.387958 0.050733
v -0.119147 -0.185777 0.075030
v -0.194000 -0.118273 0.050733
v -0.183303 -0.285910 0.007539
v -0.119147 -0.185777 0.075030
v -0.059207 -0.387958 0.050733
v 0.000000 -0.324935 0.075030
v -0.054649 -0.456636 0.003034
v 0.000000 -0.500000 0.007539
v -0.059207 -0.387958 0.050733
v -0.103926 -0.405940 0.007539
v -0.103926 -0.405940 0.007539
v -0.059207 -0.387958 0.050733
v -0.183303 -0.285910 0.007539
v -0.147042 -0.348725 0.003511
v -0.054649 -0.456636 0.003034
v -0.054649 -0.456636 -0.004890
v 0.000000 -0.500000 -0.007539
v 0.000000 -0.500000 0.007539
v -0.103926 -0.405940 -0.007539
v -0.054649 -0.456636 -0.004890
v -0.054649 -0.456636 0.003034
v -0.103926 -0.405940 0.007539
v -0.147042 -0.348725 -0.004576
v -0.103926 -0.405940 -0.007539
v -0.103926 -0.405940 0.007539
v -0.147042 -0.348725 0.003511
v -0.147042 -0.348725 -0.004576
v -0.147042 -0.348725 0.003511
v -0.183303 -0.285910 0.007539
v -0.183303 -0.285910 -0.007539
v -0.212129 -0.218504 0.003550
v -0.212129 -0.218504 -0.004209
v -0.183303 -0.285910 -0.007539
v -0.183303 -0.285910 0.007539
v -0.212129 -0.218504 -0.004209
v -0.212129 -0.218504 0.003550
v -0.233055 -0.147587 0.007539
v -0.233055 -0.147587 -0.007539
v -0.233055 -0.147587 -0.007539
v -0.233055 -0.147587 0.007539
v -0.245747 -0.074299 0.003173
v -0.245747 -0.074299 -0.003811
v -0.245747 -0.074299 -0.003811
v -0.245747 -0.074299 0.003173
v -0.250000 0.000000 0.007539
v -0.250000 0.000000 -0.007539
v -0.245747 0.074299 -0.003811
v -0.250000 0.000000 -0.007539
v -0.250000 0.000000 0.007539
v -0.245747 0.074299 0.003173
v -0.245747 0.074299 0.003173
v -0.233055 0.147587 0.007539
v -0.233055 0.147587 -0.007539
v -0.245747 0.074299 -0.003811
v -0.233055 0.147587 -0.007539
v -0.233055 0.147587 0.007539
v -0.212129 0.218504 0.003550
v -0.212129 0.218504 -0.004209
v -0.212129 0.218504 0.003550
v -0.183303 0.285910 0.007539
v -0.183303 0.285910 -0.007539
v -0.212129 0.218504 -0.004209
v -0.147042 0.348725 -0.004576
v -0.183303 0.285910 -0.007539
v -0.183303 0.285910 0.007539
v -0.147042 0.348725 0.003511
v -0.147042 0.348725 0.003511
v -0.103926 0.405940 0.007539
v -0.103926 0.405940 -0.007539
v -0.147042 0.348725 -0.004576
v -0.103926 0.405940 -0.007539
v -0.103926 0.405940 0.007539
v -0.054649 0.456636 0.003034
v -0.054649 0.456636 -0.004890
v -0.054649 0.456636 0.003034
v 0.000000 0.500000 0.007539
v 0.000000 0.500000 -0.007539
v -0.054649 0.456636 -0.004890
v 0.000000 0.500000 -0.007539
v -0.000000 0.315191 -0.087845
v -0.054649 0.456636 -0.004890
v -0.054649 0.456636 -0.004890
v -0.000000 0.315191 -0.087845
v 0.000000 0.130382 -0.168151
v -0.103926 0.405940 -0.007539
v -0.147042 0.348725 -0.004576
v -0.103926 0.405940 -0.007539
v 0.000000 0.130382 -0.168151
v -0.183303 0.285910 -0.007539
v 0.000000 0.130382 -0.168151
v 0.000000 0.000000 -0.208304
v -0.065260 0.000000 -0.168151
v -0.183303 0.285910 -0.007539
v -0.183303 0.285910 -0.007539
v -0.065260 0.000000 -0.168151
v -0.233055 0.147587 -0.007539
v -0.212129 0.218504 -0.004209
v -0.233055 0.147587 -0.007539
v -0.065260 0.000000 -0.168151
v -0.250000 0.000000 -0.007539
v -0.245747 0.074299 -0.003811
v -0.245747 -0.074299 -0.003811
v -0.250000 0.000000 -0.007539
v -0.065260 0.000000 -0.168151
v -0.233055 -0.147587 -0.007539
v -0.212129 -0.218504 -0.004209
v -0.233055 -0.147587 -0.007539
v -0.065260 0.000000 -0.168151
v -0.183303 -0.285910 -0.007539
v -0.065260 0.000000 -0.168151
v 0.000000 0.000000 -0.208304
v 0.000000 -0.130382 -0.168151
v -0.183303 -0.285910 -0.007539
v -0.147042 -0.348725 -0.004576
v -0.183303 -0.285910 -0.007539
v 0.000000 -0.130382 -0.168151
v -0.103926 -0.405940 -0.007539
v -0.054649 -0.456636 -0.004890
v -0.103926 -0.405940 -0.007539
v 0.000000 -0.130382 -0.168151
v 0.000000 -0.500000 -0.007539
v -0.162500 0.000037 0.075030
v 0.162500 0.000037 0.075030
v -0.119147 0.185833 0.075030
v 0.119147 0.185833 0.075030
v -0.000000 0.325009 0.075030
v 0.119147 -0.185777 0.075030
v -0.119147 -0.185777 0.075030
v 0.000000 -0.324935 0.075030
v -0.194000 0.118273 0.050733
v -0.250000 0.000000 0.007539
v -0.194000 -0.118273 0.050733
v -0.162500 0.000037 0.075030
v -0.162500 0.000037 0.075030
v -0.194000 -0.118273 0.050733
v -0.119147 -0.185777 0.075030
v 0.119147 0.185833 0.075030
v 0.194000 0.118273 0.050733
v 0.162500 0.000037 0.075030
v 0.162500 0.000037 0.075030
v 0.194000 -0.118273 0.050733
v 0.119147 -0.185777 0.075030
f 1 3 2
f 4 5 6 7
f 8 9 10 11
f 12 13 14 15
f 16 17 18
f 19 20 21 22
f 23 24 25 26
f 27 28 29 30
f 31 32 33 34
f 35 36 37 38
f 39 40 41 42
f 43 44 45 46
f 47 48 49
f 50 51 52 53
f 54 55 56 57
f 58 59 60 61
f 62 63 64 65
f 66 67 68 69
f 70 71 72 73
f 74 75 76 77
f 78 79 80 81
f 82 83 84 85
f 86 87 88 89
f 90 91 92 93
f 94 95 96 97
f 98 99 100 101
f 102 103 104 105
f 106 107 108 109
f 110 111 112 113
f 114 115 116 117
f 118 119 120 121
f 122 123 124 125
f 126 127 128
f 129 130 131 132
f 133 134 135 136
f 137 138 139 140
f 141 142 143 144
f 145 146 147 148
f 149 150 151 152
f 153 154 155 156
f 157 158 159 160
f 161 162 163 164
f 165 166 167 168
f 169 170 171 172
f 173 174 175
f 176 177 178 179
f 180 181 182 183
f 184 185 186 187
f 188 189 190 191
f 192 193 194 195
f 196 197 198 199
f 200 201 202 203
f 204 205 206
f 207 208 209 210
f 211 212 213 214
f 215 216 217 218
f 219 220 221 222
f 223 224 225 226
f 227 228 229 230
f 231 232 233 234
f 235 236 237 238
f 239 240 241 242
f 243 244 245 246
f 247 248 249 250
f 251 252 253 254
f 255 256 257 258
f 259 260 261 262
f 263 264 265 266
f 267 268 269 270
f 271 272 273 274
f 275 276 277 278
f 279 280 281
f 282 283 284 285
f 286 287 288 289
f 290 291 292 293
f 294 295 296 297
f 298 299 300 301
f 302 303 304 305
f 306 307 308 309
f 310 311 312 313
f 314 315 316 317
f 318 319 320 321
f 322 323 324
f 324 325 326
f 327 322 328
f 322 327 323
f 323 325 324
f 327 328 329
f 330 331 332 333
f 334 335 336
f 337 339 338
f 340 342 341
