# CrossGems gem mesh: octogonal
v 0.207107 0.500000 -0.009950
v 0.103600 0.103600 -0.359350
v 0.000000 0.000000 -0.475850
v 0.000000 0.145000 -0.359350
v 0.500000 0.207107 -0.009950
v 0.145000 0.000000 -0.359350
v 0.000000 0.000000 -0.475850
v 0.103600 0.103600 -0.359350
v 0.500000 -0.207107 -0.009950
v 0.103600 -0.103600 -0.359350
v 0.000000 0.000000 -0.475850
v 0.145000 0.000000 -0.359350
v 0.207107 -0.500000 -0.009950
v 0.000000 -0.145000 -0.359350
v 0.000000 0.000000 -0.475850
v 0.103600 -0.103600 -0.359350
v -0.207107 -0.500000 -0.009950
v -0.103600 -0.103600 -0.359350
v 0.000000 0.000000 -0.475850
v 0.000000 -0.145000 -0.359350
v -0.500000 -0.207107 -0.009950
v -0.145000 0.000000 -0.359350
v 0.000000 0.000000 -0.475850
v -0.103600 -0.103600 -0.359350
v -0.500000 0.207107 -0.009950
v -0.103600 0.103600 -0.359350
v 0.000000 0.000000 -0.475850
v -0.145000 0.000000 -0.359350
v -0.207107 0.500000 -0.009950
v 0.000000 0.145000 -0.359350
v 0.000000 0.000000 -0.475850
v -0.103600 0.103600 -0.359350
v 0.500000 0.000000 0.019250
v 0.500000 0.207107 0.009950
v 0.388600 0.000000 0.124850
v 0.500000 0.000000 0.019250
v 0.388600 0.000000 0.124850
v 0.500000 -0.207107 0.009950
v 0.353043 0.353043 0.019417
v 0.207107 0.500000 0.009950
v 0.277600 0.277600 0.124850
v 0.353043 0.353043 0.019417
v 0.277600 0.277600 0.124850
v 0.500000 0.207107 0.009950
v 0.000000 0.500000 0.019250
v -0.207107 0.500000 0.009950
v 0.000000 0.388600 0.124850
v 0.000000 0.500000 0.019250
v 0.000000 0.388600 0.124850
v 0.207107 0.500000 0.009950
v -0.353043 0.353043 0.019417
v -0.500000 0.207107 0.009950
v -0.277600 0.277600 0.124850
v -0.353043 0.353043 0.019417
v -0.277600 0.277600 0.124850
v -0.207107 0.500000 0.009950
v -0.500000 0.000000 0.019250
v -0.500000 -0.207107 0.009950
v -0.388600 0.000000 0.124850
v -0.500000 0.000000 0.019250
v -0.388600 0.000000 0.124850
v -0.500000 0.207107 0.009950
v -0.353043 -0.353043 0.019417
v -0.207107 -0.500000 0.009950
v -0.277600 -0.277600 0.124850
v -0.353043 -0.353043 0.019417
v -0.277600 -0.277600 0.124850
v -0.500000 -0.207107 0.009950
v 0.000000 -0.500000 0.019250
v 0.207107 -0.500000 0.009950
v 0.000000 -0.388600 0.124850
v 0.000000 -0.500000 0.019250
v 0.000000 -0.388600 0.124850
v -0.207107 -0.500000 0.009950
v 0.353043 -0.353043 0.019417
v 0.500000 -0.207107 0.009950
v 0.277600 -0.277600 0.124850
v 0.353043 -0.353043 0.019417
v 0.277600 -0.277600 0.124850
v 0.207107 -0.500000 0.009950
v 0.500000 0.000000 -0.019250
v 0.145000 0.000000 -0.359350
v 0.500000 0.207107 -0.009950
v 0.500000 0.000000 -0.019250
v 0.500000 -0.207107 -0.009950
v 0.145000 0.000000 -0.359350
v 0.353043 0.353043 -0.019417
v 0.103600 0.103600 -0.359350
v 0.207107 0.500000 -0.009950
v 0.353043 0.353043 -0.019417
v 0.500000 0.207107 -0.009950
v 0.103600 0.103600 -0.359350
v 0.000000 0.500000 -0.019250
v 0.000000 0.145000 -0.359350
v -0.207107 0.500000 -0.009950
v 0.000000 0.500000 -0.019250
v 0.207107 0.500000 -0.009950
v 0.000000 0.145000 -0.359350
v -0.353043 0.353043 -0.019417
v -0.103600 0.103600 -0.359350
v -0.500000 0.207107 -0.009950
v -0.353043 0.353043 -0.019417
v -0.207107 0.500000 -0.009950
v -0.103600 0.103600 -0.359350
v -0.500000 0.000000 -0.019250
v -0.145000 0.000000 -0.359350
v -0.500000 -0.207107 -0.009950
v -0.500000 0.000000 -0.019250
v -0.500000 0.207107 -0.009950
v -0.145000 0.000000 -0.359350
v -0.353043 -0.353043 -0.019417
v -0.103600 -0.103600 -0.359350
v -0.207107 -0.500000 -0.009950
v -0.353043 -0.353043 -0.019417
v -0.500000 -0.207107 -0.009950
v -0.103600 -0.103600 -0.359350
v 0.000000 -0.500000 -0.019250
v 0.000000 -0.145000 -0.359350
v 0.207107 -0.500000 -0.009950
v 0.000000 -0.500000 -0.019250
v -0.207107 -0.500000 -0.009950
v 0.000000 -0.145000 -0.359350
v 0.353043 -0.353043 -0.019417
v 0.103600 -0.103600 -0.359350
v 0.500000 -0.207107 -0.009950
v 0.353043 -0.353043 -0.019417
v 0.207107 -0.500000 -0.009950
v 0.103600 -0.103600 -0.359350
v 0.277600 -0.277600 0.124850
v 0.500000 -0.207107 0.009950
v 0.388600 0.000000 0.124850
v 0.277200 -0.114800 0.164150
v 0.388600 0.000000 0.124850
v 0.500000 0.207107 0.009950
v 0.277600 0.277600 0.124850
v 0.277200 0.114800 0.164150
v 0.277600 0.277600 0.124850
v 0.207107 0.500000 0.009950
v 0.000000 0.388600 0.124850
v 0.114800 0.277200 0.164150
v 0.000000 0.388600 0.124850
v -0.207107 0.500000 0.009950
v -0.277600 0.277600 0.124850
v -0.114800 0.277200 0.164150
v -0.277600 0.277600 0.124850
v -0.500000 0.207107 0.009950
v -0.388600 0.000000 0.124850
v -0.277200 0.114800 0.164150
v -0.388600 0.000000 0.124850
v -0.500000 -0.207107 0.009950
v -0.277600 -0.277600 0.124850
v -0.277200 -0.114800 0.164150
v -0.277600 -0.277600 0.124850
v -0.207107 -0.500000 0.009950
v 0.000000 -0.388600 0.124850
v -0.114800 -0.277200 0.164150
v 0.000000 -0.388600 0.124850
v 0.207107 -0.500000 0.009950
v 0.277600 -0.277600 0.124850
v 0.114800 -0.277200 0.164150
v 0.277600 -0.277600 0.124850
v 0.277200 -0.114800 0.164150
v 0.114800 -0.277200 0.164150
v 0.114800 -0.277200 0.164150
v -0.114800 -0.277200 0.164150
v 0.000000 -0.388600 0.124850
v -0.277600 -0.277600 0.124850
v -0.114800 -0.277200 0.164150
v -0.277200 -0.114800 0.164150
v -0.277200 0.114800 0.164150
v -0.388600 0.000000 0.124850
v -0.277200 -0.114800 0.164150
v -0.277600 0.277600 0.124850
v -0.277200 0.114800 0.164150
v -0.114800 0.277200 0.164150
v 0.000000 0.388600 0.124850
v -0.114800 0.277200 0.164150
v 0.114800 0.277200 0.164150
v 0.277600 0.277600 0.124850
v 0.114800 0.277200 0.164150
v 0.277200 0.114800 0.164150
v 0.277200 0.114800 0.164150
v 0.277200 -0.114800 0.164150
v 0.388600 0.000000 0.124850
v -0.500000 0.207107 0.009950
v -0.500000 0.207107 -0.009950
v -0.500000 0.000000 -0.019250
v -0.500000 0.000000 0.019250
v -0.500000 0.000000 -0.019250
v -0.500000 0.000000 0.019250
v -0.500000 -0.207107 0.009950
v -0.500000 -0.207107 -0.009950
v -0.500000 -0.207107 0.009950
v -0.500000 -0.207107 -0.009950
v -0.353043 -0.353043 -0.019417
v -0.353043 -0.353043 0.019417
v -0.353043 -0.353043 0.019417
v -0.353043 -0.353043 -0.019417
v -0.207107 -0.500000 -0.009950
v -0.207107 -0.500000 0.009950
v -0.207107 -0.500000 0.009950
v -0.207107 -0.500000 -0.009950
v 0.000000 -0.500000 -0.019250
v 0.000000 -0.500000 0.019250
v 0.000000 -0.500000 -0.019250
v 0.000000 -0.500000 0.019250
v 0.207107 -0.500000 0.009950
v 0.207107 -0.500000 -0.009950
v 0.207107 -0.500000 0.009950
v 0.207107 -0.500000 -0.009950
v 0.353043 -0.353043 -0.019417
v 0.353043 -0.353043 0.019417
v 0.353043 -0.353043 0.019417
v 0.353043 -0.353043 -0.019417
v 0.500000 -0.207107 -0.009950
v 0.500000 -0.207107 0.009950
v 0.500000 -0.207107 0.009950
v 0.500000 -0.207107 -0.009950
v 0.500000 0.000000 -0.019250
v 0.500000 0.000000 0.019250
v 0.500000 0.000000 -0.019250
v 0.500000 0.000000 0.019250
v 0.500000 0.207107 0.009950
v 0.500000 0.207107 -0.009950
v 0.500000 0.207107 0.009950
v 0.500000 0.207107 -0.009950
v 0.353043 0.353043 -0.019417
v 0.353043 0.353043 0.019417
v 0.353043 0.353043 0.019417
v 0.353043 0.353043 -0.019417
v 0.207107 0.500000 -0.009950
v 0.207107 0.500000 0.009950
v 0.207107 0.500000 0.009950
v 0.207107 0.500000 -0.009950
v 0.000000 0.500000 -0.019250
v 0.000000 0.500000 0.019250
v 0.000000 0.500000 -0.019250
v 0.000000 0.500000 0.019250
v -0.207107 0.500000 0.009950
v -0.207107 0.500000 -0.009950
v -0.207107 0.500000 0.009950
v -0.207107 0.500000 -0.009950
v -0.353043 0.353043 -0.019417
v -0.353043 0.353043 0.019417
v -0.353043 0.353043 0.019417
v -0.353043 0.353043 -0.019417
v -0.500000 0.207107 -0.009950
v -0.500000 0.207107 0.009950
v 0.277200 0.114800 0.164150
v 0.114800 0.277200 0.164150
v -0.114800 0.277200 0.164150
v -0.277200 0.114800 0.164150
v -0.277200 -0.114800 0.164150
v -0.114800 -0.277200 0.164150
v 0.114800 -0.277200 0.164150
v 0.277200 -0.114800 0.164150
f 1 2 3 4
f 5 6 7 8
f 9 10 11 12
f 13 14 15 16
f 17 18 19 20
f 21 22 23 24
f 25 26 27 28
f 29 30 31 32
f 33 34 35
f 36 37 38
f 39 40 41
f 42 43 44
f 45 46 47
f 48 49 50
f 51 52 53
f 54 55 56
f 57 58 59
f 60 61 62
f 63 64 65
f 66 67 68
f 69 70 71
f 72 73 74
f 75 76 77
f 78 79 80
f 81 82 83
f 84 85 86
f 87 88 89
f 90 91 92
f 93 94 95
f 96 97 98
f 99 100 101
f 102 103 104
f 105 106 107
f 108 109 110
f 111 112 113
f 114 115 116
f 117 118 119
f 120 121 122
f 123 124 125
f 126 127 128
f 129 130 131 132
f 133 134 135 136
f 137 138 139 140
f 141 142 143 144
f 145 146 147 148
f 149 150 151 152
f 153 154 155 156
f 157 158 159 160
f 161 162 163
f 164 165 166
f 167 168 169
f 170 171 172
f 173 174 175
f 176 177 178
f 179 180 181
f 182 183 184
f 185 186 187 188
f 189 192 191 190
f 193 194 195 196
f 197 198 199 200
f 201 202 203 204
f 205 208 207 206
f 209 210 211 212
f 213 214 215 216
f 217 218 219 220
f 221 224 223 222
f 225 226 227 228
f 229 230 231 232
f 233 234 235 236
f 237 240 239 238
f 241 242 243 244
f 245 246 247 248
f 251 253 254
f 253 251 252
f 251 254 255
f 249 255 256
f 255 249 250
f 251 255 250
