# CrossGems gem mesh: oval
v 0.000000 -0.300000 0.098900
v -0.132600 -0.212100 0.098900
v -0.187500 0.000000 0.098900
v -0.132600 0.212100 0.098900
v 0.000000 0.300000 0.098900
v 0.132600 0.212100 0.098900
v 0.187500 0.000000 0.098900
v 0.132600 -0.212100 0.098900
v 0.306500 0.097500 0.006200
v 0.288700 0.191300 0.011700
v 0.226300 0.150000 0.071800
v 0.312500 0.000000 0.011700
v 0.226300 0.150000 0.071800
v 0.221000 0.353600 0.011700
v 0.259800 0.277800 0.006200
v 0.288700 0.191300 0.011700
v 0.093800 0.362100 0.071800
v 0.173600 0.415700 0.006200
v 0.221000 0.353600 0.011700
v 0.119600 0.461900 0.011700
v 0.306500 -0.097500 0.006200
v 0.288700 -0.191300 0.011700
v 0.226300 -0.150000 0.071800
v 0.312500 0.000000 0.011700
v 0.226300 -0.150000 0.071800
v 0.259800 -0.277800 0.006200
v 0.221000 -0.353600 0.011700
v 0.288700 -0.191300 0.011700
v 0.173600 -0.415700 0.006200
v 0.119600 -0.461900 0.011700
v 0.093800 -0.362100 0.071800
v 0.221000 -0.353600 0.011700
v 0.221000 0.353600 -0.011700
v 0.078100 0.051800 -0.214700
v 0.000000 0.000000 -0.282400
v 0.032400 0.125000 -0.214700
v 0.312500 0.000000 -0.011700
v 0.078100 -0.051800 -0.214700
v 0.000000 0.000000 -0.282400
v 0.078100 0.051800 -0.214700
v 0.221000 -0.353600 -0.011700
v 0.032400 -0.125000 -0.214700
v 0.000000 0.000000 -0.282400
v 0.078100 -0.051800 -0.214700
v 0.221000 0.353600 -0.011700
v 0.032400 0.125000 -0.214700
v 0.119600 0.461900 -0.011700
v 0.173600 0.415700 -0.006300
v 0.288700 0.191300 -0.011700
v 0.078100 0.051800 -0.214700
v 0.221000 0.353600 -0.011700
v 0.259800 0.277800 -0.006300
v 0.312500 0.000000 -0.011700
v 0.078100 0.051800 -0.214700
v 0.288700 0.191300 -0.011700
v 0.306500 0.097500 -0.006300
v 0.119600 -0.461900 -0.011700
v 0.032400 -0.125000 -0.214700
v 0.221000 -0.353600 -0.011700
v 0.173600 -0.415700 -0.006300
v 0.221000 -0.353600 -0.011700
v 0.078100 -0.051800 -0.214700
v 0.288700 -0.191300 -0.011700
v 0.259800 -0.277800 -0.006300
v 0.288700 -0.191300 -0.011700
v 0.078100 -0.051800 -0.214700
v 0.312500 0.000000 -0.011700
v 0.306500 -0.097500 -0.006300
v -0.093800 0.362100 0.071800
v -0.132600 0.212100 0.098900
v 0.000000 0.300000 0.098900
v -0.226300 0.150000 0.071800
v -0.187500 0.000000 0.098900
v -0.132600 0.212100 0.098900
v -0.226300 -0.150000 0.071800
v -0.132600 -0.212100 0.098900
v -0.187500 0.000000 0.098900
v -0.093800 -0.362100 0.071800
v 0.000000 -0.300000 0.098900
v -0.132600 -0.212100 0.098900
v 0.093800 -0.362100 0.071800
v 0.132600 -0.212100 0.098900
v 0.000000 -0.300000 0.098900
v 0.226300 -0.150000 0.071800
v 0.187500 0.000000 0.098900
v 0.132600 -0.212100 0.098900
v 0.226300 0.150000 0.071800
v 0.132600 0.212100 0.098900
v 0.187500 0.000000 0.098900
v 0.093800 0.362100 0.071800
v 0.000000 0.300000 0.098900
v 0.132600 0.212100 0.098900
v 0.093800 -0.362100 0.071800
v 0.221000 -0.353600 0.011700
v 0.226300 -0.150000 0.071800
v 0.132600 -0.212100 0.098900
v 0.226300 -0.150000 0.071800
v 0.312500 0.000000 0.011700
v 0.226300 0.150000 0.071800
v 0.187500 0.000000 0.098900
v 0.226300 0.150000 0.071800
v 0.221000 0.353600 0.011700
v 0.093800 0.362100 0.071800
v 0.132600 0.212100 0.098900
v -0.061000 -0.490400 0.006200
v -0.119600 -0.461900 0.011700
v -0.093800 -0.362100 0.071800
v 0.000000 -0.500000 0.011700
v -0.173600 -0.415700 0.006200
v -0.093800 -0.362100 0.071800
v -0.119600 -0.461900 0.011700
v -0.221000 -0.353600 0.011700
v -0.226300 -0.150000 0.071800
v -0.221000 -0.353600 0.011700
v -0.259800 -0.277800 0.006200
v -0.288700 -0.191300 0.011700
v -0.306500 -0.097500 0.006200
v -0.226300 -0.150000 0.071800
v -0.288700 -0.191300 0.011700
v -0.312500 0.000000 0.011700
v -0.061000 0.490400 0.006200
v -0.093800 0.362100 0.071800
v -0.119600 0.461900 0.011700
v 0.000000 0.500000 0.011700
v -0.093800 0.362100 0.071800
v -0.221000 0.353600 0.011700
v -0.173600 0.415700 0.006200
v -0.119600 0.461900 0.011700
v -0.226300 0.150000 0.071800
v -0.259800 0.277800 0.006200
v -0.221000 0.353600 0.011700
v -0.288700 0.191300 0.011700
v -0.306500 0.097500 0.006200
v -0.226300 0.150000 0.071800
v -0.288700 0.191300 0.011700
v -0.312500 0.000000 0.011700
v -0.093800 -0.362100 0.071800
v 0.000000 -0.500000 0.011700
v 0.093800 -0.362100 0.071800
v 0.000000 -0.300000 0.098900
v -0.093800 0.362100 0.071800
v -0.221000 0.353600 0.011700
v -0.226300 0.150000 0.071800
v -0.132600 0.212100 0.098900
v 0.093800 0.362100 0.071800
v 0.000000 0.500000 0.011700
v -0.093800 0.362100 0.071800
v 0.000000 0.300000 0.098900
v -0.226300 -0.150000 0.071800
v -0.221000 -0.353600 0.011700
v -0.093800 -0.362100 0.071800
v -0.132600 -0.212100 0.098900
v -0.226300 0.150000 0.071800
v -0.312500 0.000000 0.011700
v -0.226300 -0.150000 0.071800
v -0.187500 0.000000 0.098900
v 0.000000 -0.500000 -0.011700
v 0.032400 -0.125000 -0.214700
v 0.119600 -0.461900 -0.011700
v 0.061000 -0.490400 -0.006300
v -0.119600 -0.461900 -0.011700
v -0.032400 -0.125000 -0.214700
v 0.000000 -0.500000 -0.011700
v -0.061000 -0.490400 -0.006300
v -0.221000 -0.353600 -0.011700
v -0.032400 -0.125000 -0.214700
v -0.119600 -0.461900 -0.011700
v -0.173600 -0.415700 -0.006300
v -0.288700 -0.191300 -0.011700
v -0.078100 -0.051800 -0.214700
v -0.221000 -0.353600 -0.011700
v -0.259800 -0.277800 -0.006300
v -0.312500 0.000000 -0.011700
v -0.078100 -0.051800 -0.214700
v -0.288700 -0.191300 -0.011700
v -0.306500 -0.097500 -0.006300
v -0.288700 0.191300 -0.011700
v -0.078100 0.051800 -0.214700
v -0.312500 0.000000 -0.011700
v -0.306500 0.097500 -0.006300
v -0.221000 0.353600 -0.011700
v -0.078100 0.051800 -0.214700
v -0.288700 0.191300 -0.011700
v -0.259800 0.277800 -0.006300
v 0.119600 0.461900 -0.011700
v 0.032400 0.125000 -0.214700
v 0.000000 0.500000 -0.011700
v 0.061000 0.490400 -0.006300
v 0.000000 0.500000 -0.011700
v -0.032400 0.125000 -0.214700
v -0.119600 0.461900 -0.011700
v -0.061000 0.490400 -0.006300
v -0.119600 0.461900 -0.011700
v -0.032400 0.125000 -0.214700
v -0.221000 0.353600 -0.011700
v -0.173600 0.415700 -0.006300
v 0.000000 0.500000 -0.011700
v 0.032400 0.125000 -0.214700
v 0.000000 0.000000 -0.282400
v -0.032400 0.125000 -0.214700
v 0.000000 -0.500000 -0.011700
v -0.032400 -0.125000 -0.214700
v 0.000000 0.000000 -0.282400
v 0.032400 -0.125000 -0.214700
v -0.221000 -0.353600 -0.011700
v -0.078100 -0.051800 -0.214700
v 0.000000 0.000000 -0.282400
v -0.032400 -0.125000 -0.214700
v -0.312500 0.000000 -0.011700
v -0.078100 0.051800 -0.214700
v 0.000000 0.000000 -0.282400
v -0.078100 -0.051800 -0.214700
v -0.221000 0.353600 -0.011700
v -0.032400 0.125000 -0.214700
v 0.000000 0.000000 -0.282400
v -0.078100 0.051800 -0.214700
v 0.061000 -0.490400 0.006200
v 0.093800 -0.362100 0.071800
v 0.119600 -0.461900 0.011700
v 0.000000 -0.500000 0.011700
v 0.061000 0.490400 0.006200
v 0.119600 0.461900 0.011700
v 0.093800 0.362100 0.071800
v 0.000000 0.500000 0.011700
v 0.000000 0.500000 0.011700
v 0.000000 0.500000 -0.011700
v -0.061000 0.490400 -0.006300
v -0.061000 0.490400 0.006200
v -0.061000 0.490400 0.006200
v -0.061000 0.490400 -0.006300
v -0.119600 0.461900 -0.011700
v -0.119600 0.461900 0.011700
v -0.119600 0.461900 -0.011700
v -0.119600 0.461900 0.011700
v -0.173600 0.415700 0.006200
v -0.173600 0.415700 -0.006300
v -0.173600 0.415700 -0.006300
v -0.221000 0.353600 -0.011700
v -0.221000 0.353600 0.011700
v -0.173600 0.415700 0.006200
v -0.221000 0.353600 0.011700
v -0.221000 0.353600 -0.011700
v -0.259800 0.277800 -0.006300
v -0.259800 0.277800 0.006200
v -0.259800 0.277800 -0.006300
v -0.259800 0.277800 0.006200
v -0.288700 0.191300 0.011700
v -0.288700 0.191300 -0.011700
v -0.288700 0.191300 -0.011700
v -0.288700 0.191300 0.011700
v -0.306500 0.097500 0.006200
v -0.306500 0.097500 -0.006300
v -0.306500 0.097500 0.006200
v -0.306500 0.097500 -0.006300
v -0.312500 0.000000 -0.011700
v -0.312500 0.000000 0.011700
v 0.000000 -0.500000 0.011700
v 0.000000 -0.500000 -0.011700
v -0.061000 -0.490400 -0.006300
v -0.061000 -0.490400 0.006200
v -0.061000 -0.490400 0.006200
v -0.061000 -0.490400 -0.006300
v -0.119600 -0.461900 -0.011700
v -0.119600 -0.461900 0.011700
v -0.119600 -0.461900 -0.011700
v -0.119600 -0.461900 0.011700
v -0.173600 -0.415700 0.006200
v -0.173600 -0.415700 -0.006300
v -0.173600 -0.415700 -0.006300
v -0.221000 -0.353600 -0.011700
v -0.221000 -0.353600 0.011700
v -0.173600 -0.415700 0.006200
v -0.221000 -0.353600 0.011700
v -0.221000 -0.353600 -0.011700
v -0.259800 -0.277800 -0.006300
v -0.259800 -0.277800 0.006200
v -0.259800 -0.277800 -0.006300
v -0.259800 -0.277800 0.006200
v -0.288700 -0.191300 0.011700
v -0.288700 -0.191300 -0.011700
v -0.288700 -0.191300 -0.011700
v -0.288700 -0.191300 0.011700
v -0.306500 -0.097500 0.006200
v -0.306500 -0.097500 -0.006300
v -0.306500 -0.097500 0.006200
v -0.306500 -0.097500 -0.006300
v -0.312500 0.000000 -0.011700
v -0.312500 0.000000 0.011700
v 0.000000 0.500000 0.011700
v 0.000000 0.500000 -0.011700
v 0.061000 0.490400 -0.006300
v 0.061000 0.490400 0.006200
v 0.061000 0.490400 0.006200
v 0.061000 0.490400 -0.006300
v 0.119600 0.461900 -0.011700
v 0.119600 0.461900 0.011700
v 0.119600 0.461900 -0.011700
v 0.119600 0.461900 0.011700
v 0.173600 0.415700 0.006200
v 0.173600 0.415700 -0.006300
v 0.173600 0.415700 -0.006300
v 0.221000 0.353600 -0.011700
v 0.221000 0.353600 0.011700
v 0.173600 0.415700 0.006200
v 0.221000 0.353600 0.011700
v 0.221000 0.353600 -0.011700
v 0.259800 0.277800 -0.006300
v 0.259800 0.277800 0.006200
v 0.259800 0.277800 -0.006300
v 0.259800 0.277800 0.006200
v 0.288700 0.191300 0.011700
v 0.288700 0.191300 -0.011700
v 0.288700 0.191300 -0.011700
v 0.288700 0.191300 0.011700
v 0.306500 0.097500 0.006200
v 0.306500 0.097500 -0.006300
v 0.306500 0.097500 0.006200
v 0.306500 0.097500 -0.006300
v 0.312500 0.000000 -0.011700
v 0.312500 0.000000 0.011700
v 0.000000 -0.500000 0.011700
v 0.000000 -0.500000 -0.011700
v 0.061000 -0.490400 -0.006300
v 0.061000 -0.490400 0.006200
v 0.061000 -0.490400 0.006200
v 0.061000 -0.490400 -0.006300
v 0.119600 -0.461900 -0.011700
v 0.119600 -0.461900 0.011700
v 0.119600 -0.461900 -0.011700
v 0.119600 -0.461900 0.011700
v 0.173600 -0.415700 0.006200
v 0.173600 -0.415700 -0.006300
v 0.173600 -0.415700 -0.006300
v 0.221000 -0.353600 -0.011700
v 0.221000 -0.353600 0.011700
v 0.173600 -0.415700 0.006200
v 0.221000 -0.353600 0.011700
v 0.221000 -0.353600 -0.011700
v 0.259800 -0.277800 -0.006300
v 0.259800 -0.277800 0.006200
v 0.259800 -0.277800 -0.006300
v 0.259800 -0.277800 0.006200
v 0.288700 -0.191300 0.011700
v 0.288700 -0.191300 -0.011700
v 0.288700 -0.191300 -0.011700
v 0.288700 -0.191300 0.011700
v 0.306500 -0.097500 0.006200
v 0.306500 -0.097500 -0.006300
v 0.306500 -0.097500 0.006200
v 0.306500 -0.097500 -0.006300
v 0.312500 0.000000 -0.011700
v 0.312500 0.000000 0.011700
f 6 4 3
f 3 2 7
f 5 4 6
f 7 2 8
f 8 2 1
f 6 3 7
f 9 10 11
f 11 12 9
f 13 15 14
f 15 13 16
f 17 19 18
f 18 20 17
f 21 23 22
f 23 21 24
f 25 27 26
f 26 28 25
f 29 31 30
f 31 29 32
f 33 34 35 36
f 37 38 39 40
f 41 42 43 44
f 45 46 47 48
f 49 50 51 52
f 53 54 55 56
f 57 58 59 60
f 61 62 63 64
f 65 66 67 68
f 69 70 71
f 72 73 74
f 75 76 77
f 78 79 80
f 81 82 83
f 84 85 86
f 87 88 89
f 90 91 92
f 93 94 95 96
f 97 98 99 100
f 101 102 103 104
f 105 107 106
f 107 105 108
f 109 111 110
f 110 112 109
f 113 115 114
f 115 113 116
f 117 119 118
f 118 120 117
f 121 123 122
f 122 124 121
f 125 127 126
f 127 125 128
f 129 131 130
f 130 132 129
f 133 134 135
f 134 133 136
f 137 138 139 140
f 141 142 143 144
f 145 146 147 148
f 149 150 151 152
f 153 154 155 156
f 157 158 159 160
f 161 162 163 164
f 165 166 167 168
f 169 170 171 172
f 173 174 175 176
f 177 178 179 180
f 181 182 183 184
f 185 186 187 188
f 189 190 191 192
f 193 194 195 196
f 197 198 199 200
f 201 202 203 204
f 205 206 207 208
f 209 210 211 212
f 213 214 215 216
f 217 219 218
f 218 220 217
f 221 223 222
f 223 221 224
f 225 226 227 228
f 229 230 231 232
f 233 236 235 234
f 237 238 239 240
f 241 242 243 244
f 245 248 247 246
f 249 252 251 250
f 253 254 255 256
f 257 260 259 258
f 261 264 263 262
f 265 266 267 268
f 269 272 271 270
f 273 276 275 274
f 277 278 279 280
f 281 282 283 284
f 285 288 287 286
f 289 292 291 290
f 293 296 295 294
f 297 298 299 300
f 301 304 303 302
f 305 308 307 306
f 309 310 311 312
f 313 314 315 316
f 317 320 319 318
f 321 322 323 324
f 325 326 327 328
f 329 332 331 330
f 333 334 335 336
f 337 338 339 340
f 341 344 343 342
f 345 348 347 346
f 349 350 351 352
