# CrossGems gem mesh: pear
v 0.065070 -0.310432 0.071751
v 0.000000 -0.500000 0.011672
v 0.000000 -0.225000 0.098827
v -0.065070 -0.310432 0.071751
v 0.000000 -0.225000 0.098827
v -0.065070 -0.310432 0.071751
v -0.138426 -0.039057 0.098827
v 0.000000 -0.500000 0.011672
v -0.065070 -0.310432 0.071751
v -0.069778 -0.432220 0.006224
v -0.131944 -0.357398 0.011672
v -0.065070 -0.310432 0.071751
v -0.131944 -0.357398 0.011672
v -0.185792 -0.276383 0.006224
v -0.230709 -0.190095 0.011672
v -0.065070 -0.310432 0.071751
v -0.138426 -0.039057 0.098827
v -0.226333 0.044345 0.071751
v -0.230709 -0.190095 0.011672
v -0.138426 -0.039057 0.098827
v -0.187500 0.187500 0.098827
v -0.226333 0.044345 0.071751
v -0.226333 0.044345 0.071751
v -0.230709 -0.190095 0.011672
v -0.266186 -0.099517 0.006224
v -0.291818 -0.005676 0.011672
v -0.226333 0.044345 0.071751
v -0.291818 -0.005676 0.011672
v -0.307315 0.090360 0.006224
v -0.312500 0.187500 0.011672
v -0.187500 0.187500 0.098827
v -0.226333 0.281250 0.071751
v -0.226333 0.044345 0.071751
v -0.312500 0.187500 0.011672
v -0.132583 0.320083 0.098827
v -0.187500 0.187500 0.098827
v -0.226333 0.281250 0.071751
v -0.226333 0.281250 0.071751
v -0.288712 0.307089 0.011672
v -0.306495 0.248466 0.006224
v -0.312500 0.187500 0.011672
v -0.220971 0.408471 0.011672
v -0.226333 0.281250 0.071751
v -0.259834 0.361116 0.006224
v -0.288712 0.307089 0.011672
v -0.093750 0.413833 0.071751
v -0.132583 0.320083 0.098827
v -0.220971 0.408471 0.011672
v -0.226333 0.281250 0.071751
v -0.093750 0.413833 0.071751
v -0.119589 0.476212 0.011672
v -0.173616 0.447334 0.006224
v -0.220971 0.408471 0.011672
v -0.000000 0.375000 0.098827
v -0.093750 0.413833 0.071751
v -0.132583 0.320083 0.098827
v 0.093750 0.413833 0.071751
v -0.000000 0.500000 0.011672
v -0.000000 0.375000 0.098827
v -0.093750 0.413833 0.071751
v -0.000000 0.500000 0.011672
v -0.060966 0.493995 0.006224
v -0.093750 0.413833 0.071751
v -0.119589 0.476212 0.011672
v -0.000000 0.500000 0.011672
v -0.000000 0.500000 -0.011672
v -0.060966 0.493995 0.006224
v -0.060966 0.493995 -0.006223
v -0.060966 0.493995 0.006224
v -0.060966 0.493995 -0.006223
v -0.119589 0.476212 0.011672
v -0.119589 0.476212 -0.011672
v -0.119589 0.476212 0.011672
v -0.119589 0.476212 -0.011672
v -0.173616 0.447334 0.006224
v -0.173616 0.447334 -0.006223
v -0.173616 0.447334 0.006224
v -0.173616 0.447334 -0.006223
v -0.220971 0.408471 0.011672
v -0.220971 0.408471 -0.011672
v -0.220971 0.408471 0.011672
v -0.220971 0.408471 -0.011672
v -0.259834 0.361116 0.006224
v -0.259834 0.361116 -0.006223
v -0.259834 0.361116 0.006224
v -0.259834 0.361116 -0.006223
v -0.288712 0.307089 0.011672
v -0.288712 0.307089 -0.011672
v -0.288712 0.307089 0.011672
v -0.288712 0.307089 -0.011672
v -0.306495 0.248466 0.006224
v -0.306495 0.248466 -0.006223
v -0.306495 0.248466 0.006224
v -0.306495 0.248466 -0.006223
v -0.312500 0.187500 0.011672
v -0.312500 0.187500 -0.011672
v -0.307315 0.090360 0.006224
v -0.307315 0.090360 -0.007054
v -0.312500 0.187500 0.011672
v -0.312500 0.187500 -0.011672
v -0.291818 -0.005676 0.011672
v -0.291818 -0.005676 -0.011672
v -0.307315 0.090360 0.006224
v -0.307315 0.090360 -0.007054
v -0.266186 -0.099517 0.006224
v -0.266186 -0.099517 -0.007431
v -0.291818 -0.005676 0.011672
v -0.291818 -0.005676 -0.011672
v -0.230709 -0.190095 0.011672
v -0.230709 -0.190095 -0.011672
v -0.266186 -0.099517 0.006224
v -0.266186 -0.099517 -0.007431
v -0.185792 -0.276383 0.006224
v -0.185792 -0.276383 -0.007945
v -0.230709 -0.190095 0.011672
v -0.230709 -0.190095 -0.011672
v -0.131944 -0.357398 0.011672
v -0.131944 -0.357398 -0.011672
v -0.185792 -0.276383 0.006224
v -0.185792 -0.276383 -0.007945
v -0.069778 -0.432220 0.006224
v -0.069778 -0.432220 -0.008444
v -0.131944 -0.357398 0.011672
v -0.131944 -0.357398 -0.011672
v 0.000000 -0.500000 0.011672
v 0.000000 -0.500000 -0.011672
v -0.069778 -0.432220 0.006224
v -0.069778 -0.432220 -0.008444
v 0.000000 -0.500000 -0.011672
v -0.000000 0.015625 -0.229649
v -0.069778 -0.432220 -0.008444
v -0.131944 -0.357398 -0.011672
v -0.000000 0.015625 -0.229649
v -0.131944 -0.357398 -0.011672
v -0.185792 -0.276383 -0.007945
v -0.230709 -0.190095 -0.011672
v -0.000000 0.015625 -0.229649
v -0.000000 0.187500 -0.282173
v -0.078125 0.138086 -0.214548
v -0.230709 -0.190095 -0.011672
v -0.078125 0.138086 -0.214548
v -0.230709 -0.190095 -0.011672
v -0.266186 -0.099517 -0.007431
v -0.291818 -0.005676 -0.011672
v -0.078125 0.138086 -0.214548
v -0.291818 -0.005676 -0.011672
v -0.307315 0.090360 -0.007054
v -0.312500 0.187500 -0.011672
v -0.000000 0.187500 -0.282173
v -0.078125 0.219860 -0.214548
v -0.078125 0.138086 -0.214548
v -0.312500 0.187500 -0.011672
v -0.078125 0.219860 -0.214548
v -0.288712 0.307089 -0.011672
v -0.306495 0.248466 -0.006223
v -0.312500 0.187500 -0.011672
v -0.078125 0.219860 -0.214548
v -0.220971 0.408471 -0.011672
v -0.259834 0.361116 -0.006223
v -0.288712 0.307089 -0.011672
v -0.000000 0.187500 -0.282173
v -0.032360 0.265625 -0.214548
v -0.078125 0.219860 -0.214548
v -0.220971 0.408471 -0.011672
v -0.032360 0.265625 -0.214548
v -0.119589 0.476212 -0.011672
v -0.173616 0.447334 -0.006223
v -0.220971 0.408471 -0.011672
v -0.000000 0.500000 -0.011672
v -0.032360 0.265625 -0.214548
v -0.060966 0.493995 -0.006223
v -0.119589 0.476212 -0.011672
v 0.032360 0.265625 -0.214548
v -0.000000 0.187500 -0.282173
v -0.000000 0.500000 -0.011672
v -0.032360 0.265625 -0.214548
v 0.000000 -0.225000 0.098827
v 0.065070 -0.310432 0.071751
v 0.138426 -0.039057 0.098827
v 0.000000 -0.500000 0.011672
v 0.065070 -0.310432 0.071751
v 0.069778 -0.432220 0.006224
v 0.131944 -0.357398 0.011672
v 0.065070 -0.310432 0.071751
v 0.131944 -0.357398 0.011672
v 0.185792 -0.276383 0.006224
v 0.230709 -0.190095 0.011672
v 0.065070 -0.310432 0.071751
v 0.138426 -0.039057 0.098827
v 0.226333 0.044345 0.071751
v 0.230709 -0.190095 0.011672
v 0.138426 -0.039057 0.098827
v 0.187500 0.187500 0.098827
v 0.226333 0.044345 0.071751
v 0.226333 0.044345 0.071751
v 0.230709 -0.190095 0.011672
v 0.266186 -0.099517 0.006224
v 0.291818 -0.005676 0.011672
v 0.226333 0.044345 0.071751
v 0.291818 -0.005676 0.011672
v 0.307315 0.090360 0.006224
v 0.312500 0.187500 0.011672
v 0.187500 0.187500 0.098827
v 0.226333 0.281250 0.071751
v 0.226333 0.044345 0.071751
v 0.312500 0.187500 0.011672
v 0.132583 0.320083 0.098827
v 0.187500 0.187500 0.098827
v 0.226333 0.281250 0.071751
v 0.226333 0.281250 0.071751
v 0.288712 0.307089 0.011672
v 0.306495 0.248466 0.006224
v 0.312500 0.187500 0.011672
v 0.220971 0.408471 0.011672
v 0.226333 0.281250 0.071751
v 0.259834 0.361116 0.006224
v 0.288712 0.307089 0.011672
v 0.093750 0.413833 0.071751
v 0.132583 0.320083 0.098827
v 0.220971 0.408471 0.011672
v 0.226333 0.281250 0.071751
v 0.093750 0.413833 0.071751
v 0.119589 0.476212 0.011672
v 0.173616 0.447334 0.006224
v 0.220971 0.408471 0.011672
v -0.000000 0.375000 0.098827
v 0.093750 0.413833 0.071751
v 0.132583 0.320083 0.098827
v -0.000000 0.500000 0.011672
v 0.060966 0.493995 0.006224
v 0.093750 0.413833 0.071751
v 0.119589 0.476212 0.011672
v -0.000000 0.500000 0.011672
v -0.000000 0.500000 -0.011672
v 0.060966 0.493995 0.006224
v 0.060966 0.493995 -0.006223
v 0.060966 0.493995 0.006224
v 0.060966 0.493995 -0.006223
v 0.119589 0.476212 0.011672
v 0.119589 0.476212 -0.011672
v 0.119589 0.476212 0.011672
v 0.119589 0.476212 -0.011672
v 0.173616 0.447334 0.006224
v 0.173616 0.447334 -0.006223
v 0.173616 0.447334 0.006224
v 0.173616 0.447334 -0.006223
v 0.220971 0.408471 0.011672
v 0.220971 0.408471 -0.011672
v 0.220971 0.408471 0.011672
v 0.220971 0.408471 -0.011672
v 0.259834 0.361116 0.006224
v 0.259834 0.361116 -0.006223
v 0.259834 0.361116 0.006224
v 0.259834 0.361116 -0.006223
v 0.288712 0.307089 0.011672
v 0.288712 0.307089 -0.011672
v 0.288712 0.307089 0.011672
v 0.288712 0.307089 -0.011672
v 0.306495 0.248466 0.006224
v 0.306495 0.248466 -0.006223
v 0.306495 0.248466 0.006224
v 0.306495 0.248466 -0.006223
v 0.312500 0.187500 0.011672
v 0.312500 0.187500 -0.011672
v 0.307315 0.090360 0.006224
v 0.307315 0.090360 -0.007054
v 0.312500 0.187500 0.011672
v 0.312500 0.187500 -0.011672
v 0.291818 -0.005676 0.011672
v 0.291818 -0.005676 -0.011672
v 0.307315 0.090360 0.006224
v 0.307315 0.090360 -0.007054
v 0.266186 -0.099517 0.006224
v 0.266186 -0.099517 -0.007431
v 0.291818 -0.005676 0.011672
v 0.291818 -0.005676 -0.011672
v 0.230709 -0.190095 0.011672
v 0.230709 -0.190095 -0.011672
v 0.266186 -0.099517 0.006224
v 0.266186 -0.099517 -0.007431
v 0.185792 -0.276383 0.006224
v 0.185792 -0.276383 -0.007945
v 0.230709 -0.190095 0.011672
v 0.230709 -0.190095 -0.011672
v 0.131944 -0.357398 0.011672
v 0.131944 -0.357398 -0.011672
v 0.185792 -0.276383 0.006224
v 0.185792 -0.276383 -0.007945
v 0.069778 -0.432220 0.006224
v 0.069778 -0.432220 -0.008444
v 0.131944 -0.357398 0.011672
v 0.131944 -0.357398 -0.011672
v 0.000000 -0.500000 0.011672
v 0.000000 -0.500000 -0.011672
v 0.069778 -0.432220 0.006224
v 0.069778 -0.432220 -0.008444
v 0.000000 -0.500000 -0.011672
v -0.000000 0.015625 -0.229649
v 0.069778 -0.432220 -0.008444
v 0.131944 -0.357398 -0.011672
v -0.000000 0.015625 -0.229649
v 0.131944 -0.357398 -0.011672
v 0.185792 -0.276383 -0.007945
v 0.230709 -0.190095 -0.011672
v -0.000000 0.015625 -0.229649
v -0.000000 0.187500 -0.282173
v 0.078125 0.138086 -0.214548
v 0.230709 -0.190095 -0.011672
v 0.078125 0.138086 -0.214548
v 0.230709 -0.190095 -0.011672
v 0.266186 -0.099517 -0.007431
v 0.291818 -0.005676 -0.011672
v 0.078125 0.138086 -0.214548
v 0.291818 -0.005676 -0.011672
v 0.307315 0.090360 -0.007054
v 0.312500 0.187500 -0.011672
v -0.000000 0.187500 -0.282173
v 0.078125 0.219860 -0.214548
v 0.078125 0.138086 -0.214548
v 0.312500 0.187500 -0.011672
v 0.078125 0.219860 -0.214548
v 0.288712 0.307089 -0.011672
v 0.306495 0.248466 -0.006223
v 0.312500 0.187500 -0.011672
v 0.078125 0.219860 -0.214548
v 0.220971 0.408471 -0.011672
v 0.259834 0.361116 -0.006223
v 0.288712 0.307089 -0.011672
v -0.000000 0.187500 -0.282173
v 0.032360 0.265625 -0.214548
v 0.078125 0.219860 -0.214548
v 0.220971 0.408471 -0.011672
v 0.032360 0.265625 -0.214548
v 0.119589 0.476212 -0.011672
v 0.173616 0.447334 -0.006223
v 0.220971 0.408471 -0.011672
v -0.000000 0.500000 -0.011672
v 0.032360 0.265625 -0.214548
v 0.060966 0.493995 -0.006223
v 0.119589 0.476212 -0.011672
v 0.000000 -0.225000 0.098827
v 0.138426 -0.039057 0.098827
v 0.187500 0.187500 0.098827
v 0.132583 0.320083 0.098827
v -0.000000 0.375000 0.098827
v -0.132583 0.320083 0.098827
v -0.187500 0.187500 0.098827
v -0.138426 -0.039057 0.098827
f 4 2 1 3
f 6 5 7
f 9 11 10 8
f 15 14 13 12
f 18 19 16 17
f 21 22 20
f 23 26 25 24
f 27 30 29 28
f 32 34 33 31
f 37 36 35
f 38 39 40 41
f 43 42 44 45
f 46 48 49 47
f 50 51 52 53
f 54 55 56
f 57 58 60 59
f 61 62 64 63
f 66 68 67 65
f 70 72 71 69
f 74 76 75 73
f 78 80 79 77
f 82 84 83 81
f 86 88 87 85
f 90 92 91 89
f 94 96 95 93
f 100 98 97 99
f 104 102 101 103
f 107 108 106 105
f 111 112 110 109
f 116 114 113 115
f 120 118 117 119
f 123 124 122 121
f 127 128 126 125
f 132 130 129 131
f 136 133 134 135
f 139 138 137 140
f 144 141 142 143
f 148 145 146 147
f 152 150 149 151
f 154 153 156 155
f 158 157 160 159
f 164 162 161 163
f 166 165 168 167
f 169 170 172 171
f 175 173 174 176
f 178 179 177
f 181 180 182 183
f 187 184 185 186
f 190 189 188 191
f 193 192 194
f 195 196 197 198
f 199 200 201 202
f 204 203 205 206
f 209 207 208
f 210 213 212 211
f 215 217 216 214
f 218 219 221 220
f 222 225 224 223
f 226 228 227
f 229 231 232 230
f 234 233 235 236
f 238 237 239 240
f 242 241 243 244
f 246 245 247 248
f 250 249 251 252
f 254 253 255 256
f 258 257 259 260
f 262 261 263 264
f 268 267 265 266
f 272 271 269 270
f 275 273 274 276
f 279 277 278 280
f 284 283 281 282
f 288 287 285 286
f 291 289 290 292
f 295 293 294 296
f 300 299 297 298
f 304 303 302 301
f 307 308 305 306
f 312 311 310 309
f 316 315 314 313
f 320 319 317 318
f 322 323 324 321
f 326 327 328 325
f 332 331 329 330
f 334 335 336 333
f 337 339 340 338
f 343 345 347
f 347 345 346
f 342 347 348
f 342 343 347
f 343 344 345
f 341 342 348
