# CrossGems gem mesh: princess
v -0.500000 -0.500000 0.014986
v -0.350402 -0.400000 0.093044
v -0.271468 -0.271468 0.157927
v -0.400000 -0.350402 0.093044
v -0.271468 -0.271468 0.157927
v -0.350402 -0.400000 0.093044
v 0.000000 -0.300000 0.157927
v -0.350402 -0.400000 0.093044
v 0.000000 -0.300000 0.157927
v 0.350402 -0.400000 0.093044
v 0.000000 -0.300000 0.157927
v 0.271468 -0.271468 0.157927
v 0.350402 -0.400000 0.093044
v -0.500000 -0.500000 0.014986
v -0.350402 -0.400000 0.093044
v 0.350402 -0.400000 0.093044
v 0.500000 -0.500000 0.014986
v -0.500000 0.500000 0.014986
v -0.350402 0.400000 0.093044
v -0.271468 0.271468 0.157927
v -0.400000 0.350402 0.093044
v -0.271468 0.271468 0.157927
v -0.350402 0.400000 0.093044
v 0.000000 0.300000 0.157927
v -0.350402 0.400000 0.093044
v 0.000000 0.300000 0.157927
v 0.350402 0.400000 0.093044
v 0.000000 0.300000 0.157927
v 0.271468 0.271468 0.157927
v 0.350402 0.400000 0.093044
v -0.500000 0.500000 0.014986
v -0.350402 0.400000 0.093044
v 0.350402 0.400000 0.093044
v 0.500000 0.500000 0.014986
v 0.500000 -0.500000 0.014986
v 0.350402 -0.400000 0.093044
v 0.271468 -0.271468 0.157927
v 0.400000 -0.350402 0.093044
v 0.271468 -0.271468 0.157927
v 0.400000 -0.350402 0.093044
v 0.300000 0.000000 0.157927
v 0.400000 -0.350402 0.093044
v 0.300000 0.000000 0.157927
v 0.400000 0.350402 0.093044
v 0.300000 0.000000 0.157927
v 0.271468 0.271468 0.157927
v 0.400000 0.350402 0.093044
v 0.271468 0.271468 0.157927
v 0.350402 0.400000 0.093044
v 0.500000 0.500000 0.014986
v 0.400000 0.350402 0.093044
v 0.500000 0.500000 0.014986
v 0.400000 0.350402 0.093044
v 0.400000 -0.350402 0.093044
v 0.500000 -0.500000 0.014986
v -0.271468 0.271468 0.157927
v -0.400000 0.350402 0.093044
v -0.300000 0.000000 0.157927
v -0.300000 0.000000 0.157927
v -0.400000 0.350402 0.093044
v -0.400000 -0.350402 0.093044
v -0.400000 -0.350402 0.093044
v -0.271468 -0.271468 0.157927
v -0.300000 0.000000 0.157927
v -0.500000 -0.500000 0.014986
v -0.400000 -0.350402 0.093044
v -0.400000 0.350402 0.093044
v -0.500000 0.500000 0.014986
v -0.271468 0.271468 0.157927
v -0.300000 0.000000 0.157927
v -0.271468 -0.271468 0.157927
v 0.000000 -0.300000 0.157927
v 0.271468 -0.271468 0.157927
v 0.300000 0.000000 0.157927
v 0.271468 0.271468 0.157927
v 0.000000 0.300000 0.157927
v -0.500000 0.500000 0.014986
v -0.500000 0.500000 -0.014986
v -0.500000 -0.500000 -0.014986
v -0.500000 -0.500000 0.014986
v -0.500000 -0.500000 0.014986
v -0.500000 -0.500000 -0.014986
v 0.500000 -0.500000 -0.014986
v 0.500000 -0.500000 0.014986
v 0.500000 -0.500000 0.014986
v 0.500000 -0.500000 -0.014986
v 0.500000 0.500000 -0.014986
v 0.500000 0.500000 0.014986
v 0.500000 0.500000 0.014986
v 0.500000 0.500000 -0.014986
v -0.500000 0.500000 -0.014986
v -0.500000 0.500000 0.014986
v 0.000000 0.050000 -0.558469
v 0.000000 0.000000 -0.587073
v -0.050000 0.000000 -0.558469
v -0.500000 0.500000 -0.014986
v 0.000000 0.112500 -0.519406
v 0.000000 0.050000 -0.558469
v 0.500000 0.500000 -0.014986
v 0.000000 0.112500 -0.519406
v 0.000000 0.050000 -0.558469
v -0.500000 0.500000 -0.014986
v 0.000000 0.175000 -0.472781
v 0.000000 0.112500 -0.519406
v 0.500000 0.500000 -0.014986
v 0.000000 0.175000 -0.472781
v 0.000000 0.112500 -0.519406
v -0.500000 0.500000 -0.014986
v 0.000000 0.237500 -0.416345
v 0.000000 0.175000 -0.472781
v -0.500000 0.500000 -0.014986
v 0.000000 0.237500 -0.416345
v 0.000000 0.175000 -0.472781
v 0.500000 0.500000 -0.014986
v 0.000000 0.300000 -0.344810
v 0.000000 0.237500 -0.416345
v -0.500000 0.500000 -0.014986
v 0.000000 0.300000 -0.344810
v 0.000000 0.237500 -0.416345
v 0.500000 0.500000 -0.014986
v 0.500000 0.500000 -0.014986
v 0.000000 0.300000 -0.344810
v -0.500000 0.500000 -0.014986
v 0.000000 0.050000 -0.558469
v 0.000000 0.000000 -0.587073
v 0.050000 0.000000 -0.558469
v 0.500000 0.500000 -0.014986
v -0.050000 0.000000 -0.558469
v -0.112500 0.000000 -0.519406
v -0.500000 0.500000 -0.014986
v -0.112500 0.000000 -0.519406
v -0.175000 0.000000 -0.472781
v -0.500000 0.500000 -0.014986
v -0.175000 0.000000 -0.472781
v -0.237500 0.000000 -0.416345
v -0.500000 0.500000 -0.014986
v -0.300000 0.000000 -0.344810
v -0.237500 0.000000 -0.416345
v -0.500000 0.500000 -0.014986
v -0.300000 0.000000 -0.344810
v -0.500000 0.500000 -0.014986
v -0.500000 -0.500000 -0.014986
v -0.050000 0.000000 -0.558469
v 0.000000 0.000000 -0.587073
v 0.000000 -0.050000 -0.558469
v -0.500000 -0.500000 -0.014986
v -0.112500 0.000000 -0.519406
v -0.050000 0.000000 -0.558469
v -0.500000 -0.500000 -0.014986
v -0.175000 0.000000 -0.472781
v -0.112500 0.000000 -0.519406
v -0.500000 -0.500000 -0.014986
v -0.237500 0.000000 -0.416345
v -0.175000 0.000000 -0.472781
v -0.500000 -0.500000 -0.014986
v -0.300000 0.000000 -0.344810
v -0.237500 0.000000 -0.416345
v -0.500000 -0.500000 -0.014986
v 0.112500 0.000000 -0.519406
v 0.050000 0.000000 -0.558469
v 0.500000 0.500000 -0.014986
v 0.175000 0.000000 -0.472781
v 0.112500 0.000000 -0.519406
v 0.500000 0.500000 -0.014986
v 0.237500 0.000000 -0.416345
v 0.175000 0.000000 -0.472781
v 0.500000 0.500000 -0.014986
v 0.300000 0.000000 -0.344810
v 0.237500 0.000000 -0.416345
v 0.500000 0.500000 -0.014986
v 0.500000 0.500000 -0.014986
v 0.300000 0.000000 -0.344810
v 0.500000 -0.500000 -0.014986
v 0.000000 -0.050000 -0.558469
v 0.000000 -0.112500 -0.519406
v -0.500000 -0.500000 -0.014986
v 0.000000 -0.112500 -0.519406
v 0.000000 -0.175000 -0.472781
v -0.500000 -0.500000 -0.014986
v 0.000000 -0.175000 -0.472781
v 0.000000 -0.237500 -0.416345
v -0.500000 -0.500000 -0.014986
v 0.000000 -0.237500 -0.416345
v 0.000000 -0.300000 -0.344810
v -0.500000 -0.500000 -0.014986
v 0.000000 -0.300000 -0.344810
v -0.500000 -0.500000 -0.014986
v 0.500000 -0.500000 -0.014986
v 0.000000 -0.050000 -0.558469
v 0.000000 0.000000 -0.587073
v 0.050000 0.000000 -0.558469
v 0.500000 -0.500000 -0.014986
v 0.000000 -0.112500 -0.519406
v 0.000000 -0.050000 -0.558469
v 0.500000 -0.500000 -0.014986
v 0.000000 -0.175000 -0.472781
v 0.000000 -0.112500 -0.519406
v 0.500000 -0.500000 -0.014986
v 0.000000 -0.237500 -0.416345
v 0.000000 -0.175000 -0.472781
v 0.500000 -0.500000 -0.014986
v 0.000000 -0.300000 -0.344810
v 0.000000 -0.237500 -0.416345
v 0.500000 -0.500000 -0.014986
v 0.050000 0.000000 -0.558469
v 0.112500 0.000000 -0.519406
v 0.500000 -0.500000 -0.014986
v 0.112500 0.000000 -0.519406
v 0.175000 0.000000 -0.472781
v 0.500000 -0.500000 -0.014986
v 0.175000 0.000000 -0.472781
v 0.237500 0.000000 -0.416345
v 0.500000 -0.500000 -0.014986
v 0.237500 0.000000 -0.416345
v 0.300000 0.000000 -0.344810
v 0.500000 -0.500000 -0.014986
f 1 2 3 4
f 5 6 7
f 8 10 9
f 11 13 12
f 14 17 16 15
f 18 21 20 19
f 22 24 23
f 25 26 27
f 28 29 30
f 31 32 33 34
f 35 38 37 36
f 39 40 41
f 42 44 43
f 45 47 46
f 48 51 50 49
f 52 53 54 55
f 56 57 58
f 59 60 61
f 62 63 64
f 65 66 67 68
f 70 71 72
f 70 76 69
f 74 70 72
f 70 74 76
f 74 75 76
f 73 74 72
f 77 78 79 80
f 81 82 83 84
f 85 86 87 88
f 89 90 91 92
f 93 94 95 96
f 97 99 98
f 100 101 102
f 103 105 104
f 106 107 108
f 109 110 111
f 112 114 113
f 115 116 117
f 118 120 119
f 121 122 123
f 124 127 126 125
f 128 129 130
f 131 132 133
f 134 135 136
f 137 139 138
f 140 142 141
f 143 144 145 146
f 147 148 149
f 150 151 152
f 153 154 155
f 156 157 158
f 159 160 161
f 162 163 164
f 165 166 167
f 168 169 170
f 171 173 172
f 174 175 176
f 177 178 179
f 180 181 182
f 183 184 185
f 186 188 187
f 189 190 191 192
f 193 194 195
f 196 197 198
f 199 200 201
f 202 203 204
f 205 206 207
f 208 209 210
f 211 212 213
f 214 215 216
