# CrossGems gem mesh: radiant
v -0.429600 0.320800 0.070500
v -0.500000 0.350000 0.011500
v -0.500000 -0.350000 0.011500
v -0.429600 -0.320800 0.070500
v -0.429600 -0.320800 0.070500
v -0.324000 0.000000 0.146500
v -0.429600 0.320800 0.070500
v -0.324000 0.000000 0.146500
v -0.295500 0.295500 0.146500
v -0.429600 0.320800 0.070500
v -0.324000 0.000000 0.146500
v -0.295500 -0.295500 0.146500
v -0.429600 -0.320800 0.070500
v -0.500000 0.350000 0.011500
v -0.500000 0.350000 -0.011500
v -0.500000 -0.350000 -0.011500
v -0.500000 -0.350000 0.011500
v -0.500000 0.350000 0.011500
v -0.350000 0.500000 0.011500
v -0.350000 0.500000 -0.011500
v -0.500000 0.350000 -0.011500
v -0.500000 0.350000 0.011500
v -0.429600 0.320800 0.070500
v -0.320800 0.429600 0.070500
v -0.350000 0.500000 0.011500
v -0.320800 0.429600 0.070500
v -0.429600 0.320800 0.070500
v -0.295500 0.295500 0.146500
v -0.295500 -0.295500 0.146500
v -0.429600 -0.320800 0.070500
v -0.320800 -0.429600 0.070500
v -0.429600 -0.320800 0.070500
v -0.500000 -0.350000 0.011500
v -0.350000 -0.500000 0.011500
v -0.320800 -0.429600 0.070500
v -0.500000 -0.350000 0.011500
v -0.500000 -0.350000 -0.011500
v -0.350000 -0.500000 -0.011500
v -0.350000 -0.500000 0.011500
v -0.295500 -0.295500 0.146500
v -0.320800 -0.429600 0.070500
v 0.000000 -0.324000 0.146500
v -0.320800 -0.429600 0.070500
v 0.320800 -0.429600 0.070500
v 0.000000 -0.324000 0.146500
v 0.000000 -0.324000 0.146500
v 0.320800 -0.429600 0.070500
v 0.295500 -0.295500 0.146500
v -0.320800 -0.429600 0.070500
v -0.350000 -0.500000 0.011500
v 0.350000 -0.500000 0.011500
v 0.320800 -0.429600 0.070500
v -0.350000 -0.500000 0.011500
v -0.350000 -0.500000 -0.011500
v 0.350000 -0.500000 -0.011500
v 0.350000 -0.500000 0.011500
v 0.350000 -0.500000 0.011500
v 0.350000 -0.500000 -0.011500
v 0.500000 -0.350000 -0.011500
v 0.500000 -0.350000 0.011500
v 0.500000 -0.350000 0.011500
v 0.429600 -0.320800 0.070500
v 0.320800 -0.429600 0.070500
v 0.350000 -0.500000 0.011500
v 0.429600 -0.320800 0.070500
v 0.320800 -0.429600 0.070500
v 0.295500 -0.295500 0.146500
v 0.295500 -0.295500 0.146500
v 0.429600 -0.320800 0.070500
v 0.324000 0.000000 0.146500
v 0.429600 -0.320800 0.070500
v 0.324000 0.000000 0.146500
v 0.429600 0.320800 0.070500
v 0.324000 0.000000 0.146500
v 0.295500 0.295500 0.146500
v 0.429600 0.320800 0.070500
v 0.429600 -0.320800 0.070500
v 0.500000 -0.350000 0.011500
v 0.500000 0.350000 0.011500
v 0.429600 0.320800 0.070500
v 0.500000 -0.350000 0.011500
v 0.500000 -0.350000 -0.011500
v 0.500000 0.350000 -0.011500
v 0.500000 0.350000 0.011500
v 0.500000 0.350000 0.011500
v 0.500000 0.350000 -0.011500
v 0.350000 0.500000 -0.011500
v 0.350000 0.500000 0.011500
v 0.500000 0.350000 0.011500
v 0.429600 0.320800 0.070500
v 0.320800 0.429600 0.070500
v 0.350000 0.500000 0.011500
v 0.429600 0.320800 0.070500
v 0.295500 0.295500 0.146500
v 0.320800 0.429600 0.070500
v 0.295500 0.295500 0.146500
v 0.320800 0.429600 0.070500
v 0.000000 0.324000 0.146500
v 0.000000 0.324000 0.146500
v -0.295500 0.295500 0.146500
v -0.320800 0.429600 0.070500
v 0.000000 0.324000 0.146500
v 0.320800 0.429600 0.070500
v -0.320800 0.429600 0.070500
v 0.320800 0.429600 0.070500
v 0.350000 0.500000 0.011500
v -0.350000 0.500000 0.011500
v -0.320800 0.429600 0.070500
v 0.350000 0.500000 0.011500
v 0.350000 0.500000 -0.011500
v -0.350000 0.500000 -0.011500
v -0.350000 0.500000 0.011500
v -0.295500 -0.295500 0.146500
v 0.000000 -0.324000 0.146500
v 0.295500 -0.295500 0.146500
v 0.324000 0.000000 0.146500
v 0.295500 0.295500 0.146500
v 0.000000 0.324000 0.146500
v -0.295500 0.295500 0.146500
v -0.324000 0.000000 0.146500
v -0.500000 0.350000 -0.011500
v -0.400000 0.176300 -0.159600
v -0.400000 -0.176300 -0.159600
v -0.500000 -0.350000 -0.011500
v -0.500000 0.350000 -0.011500
v -0.400000 0.176300 -0.159600
v -0.120000 0.000000 -0.497300
v -0.307500 0.307500 -0.224000
v -0.400000 0.176300 -0.159600
v -0.316000 0.000000 -0.275100
v -0.400000 -0.176300 -0.159600
v -0.400000 0.176300 -0.159600
v -0.316000 0.000000 -0.275100
v -0.120000 0.000000 -0.497300
v -0.316000 0.000000 -0.275100
v -0.400000 -0.176300 -0.159600
v -0.120000 0.000000 -0.497300
v -0.120000 0.000000 -0.497300
v -0.400000 -0.176300 -0.159600
v -0.500000 -0.350000 -0.011500
v -0.307500 -0.307500 -0.224000
v -0.307500 -0.307500 -0.224000
v -0.500000 -0.350000 -0.011500
v -0.350000 -0.500000 -0.011500
v -0.307500 -0.307500 -0.224000
v -0.120000 0.000000 -0.497300
v 0.000000 0.000000 -0.563500
v 0.000000 -0.120000 -0.497300
v 0.000000 -0.120000 -0.497300
v -0.307500 -0.307500 -0.224000
v -0.350000 -0.500000 -0.011500
v -0.176300 -0.400000 -0.159600
v 0.000000 -0.120000 -0.497300
v -0.176300 -0.400000 -0.159600
v 0.000000 -0.316000 -0.275100
v 0.000000 -0.316000 -0.275100
v -0.176300 -0.400000 -0.159600
v 0.176300 -0.400000 -0.159600
v -0.176300 -0.400000 -0.159600
v -0.350000 -0.500000 -0.011500
v 0.350000 -0.500000 -0.011500
v 0.176300 -0.400000 -0.159600
v 0.000000 -0.120000 -0.497300
v 0.000000 -0.316000 -0.275100
v 0.176300 -0.400000 -0.159600
v 0.000000 -0.120000 -0.497300
v 0.176300 -0.400000 -0.159600
v 0.350000 -0.500000 -0.011500
v 0.307500 -0.307500 -0.224000
v 0.000000 -0.120000 -0.497300
v 0.000000 0.000000 -0.563500
v 0.120000 0.000000 -0.497300
v 0.307500 -0.307500 -0.224000
v 0.307500 -0.307500 -0.224000
v 0.350000 -0.500000 -0.011500
v 0.500000 -0.350000 -0.011500
v 0.307500 -0.307500 -0.224000
v 0.120000 0.000000 -0.497300
v 0.400000 -0.176300 -0.159600
v 0.500000 -0.350000 -0.011500
v 0.400000 -0.176300 -0.159600
v 0.316000 0.000000 -0.275100
v 0.120000 0.000000 -0.497300
v 0.400000 -0.176300 -0.159600
v 0.316000 0.000000 -0.275100
v 0.400000 0.176300 -0.159600
v 0.400000 -0.176300 -0.159600
v 0.500000 -0.350000 -0.011500
v 0.500000 0.350000 -0.011500
v 0.400000 0.176300 -0.159600
v 0.120000 0.000000 -0.497300
v 0.316000 0.000000 -0.275100
v 0.400000 0.176300 -0.159600
v 0.120000 0.000000 -0.497300
v 0.400000 0.176300 -0.159600
v 0.500000 0.350000 -0.011500
v 0.307500 0.307500 -0.224000
v 0.500000 0.350000 -0.011500
v 0.350000 0.500000 -0.011500
v 0.307500 0.307500 -0.224000
v 0.120000 0.000000 -0.497300
v 0.000000 0.000000 -0.563500
v 0.000000 0.120000 -0.497300
v 0.307500 0.307500 -0.224000
v 0.000000 0.120000 -0.497300
v 0.307500 0.307500 -0.224000
v 0.350000 0.500000 -0.011500
v 0.176300 0.400000 -0.159600
v 0.000000 0.120000 -0.497300
v 0.000000 0.316000 -0.275100
v 0.176300 0.400000 -0.159600
v 0.000000 0.316000 -0.275100
v 0.000000 0.120000 -0.497300
v -0.176300 0.400000 -0.159600
v -0.176300 0.400000 -0.159600
v 0.000000 0.316000 -0.275100
v 0.176300 0.400000 -0.159600
v 0.176300 0.400000 -0.159600
v 0.350000 0.500000 -0.011500
v -0.350000 0.500000 -0.011500
v -0.176300 0.400000 -0.159600
v 0.000000 0.120000 -0.497300
v -0.176300 0.400000 -0.159600
v -0.350000 0.500000 -0.011500
v -0.307500 0.307500 -0.224000
v -0.307500 0.307500 -0.224000
v -0.350000 0.500000 -0.011500
v -0.500000 0.350000 -0.011500
v -0.307500 0.307500 -0.224000
v 0.000000 0.120000 -0.497300
v 0.000000 0.000000 -0.563500
v -0.120000 0.000000 -0.497300
f 1 2 3 4
f 5 6 7
f 8 9 10
f 11 13 12
f 14 15 16 17
f 18 19 20 21
f 22 23 24 25
f 26 27 28
f 29 30 31
f 32 33 34 35
f 36 37 38 39
f 40 41 42
f 43 44 45
f 46 47 48
f 49 50 51 52
f 53 54 55 56
f 57 58 59 60
f 61 62 63 64
f 65 67 66
f 68 69 70
f 71 73 72
f 74 76 75
f 77 78 79 80
f 81 82 83 84
f 85 86 87 88
f 89 92 91 90
f 93 95 94
f 96 97 98
f 99 101 100
f 102 103 104
f 105 106 107 108
f 109 110 111 112
f 120 113 114
f 120 118 119
f 116 120 114
f 120 116 118
f 116 117 118
f 115 116 114
f 121 122 123 124
f 128 126 125
f 126 128 127
f 129 130 131
f 132 134 133
f 135 137 136
f 139 138 141
f 141 140 139
f 142 144 143
f 148 145 146
f 146 147 148
f 152 150 149
f 150 152 151
f 153 155 154
f 156 158 157
f 159 162 161 160
f 163 165 164
f 167 166 169
f 169 168 167
f 172 173 170
f 170 171 172
f 174 176 175
f 177 179 180
f 179 177 178
f 181 183 182
f 184 185 186
f 187 190 189 188
f 191 193 192
f 195 194 197
f 197 196 195
f 198 200 199
f 203 204 201
f 201 202 203
f 208 206 205
f 206 208 207
f 209 210 211
f 212 213 214
f 215 217 216
f 218 221 220 219
f 223 222 225
f 225 224 223
f 226 228 227
f 232 229 230
f 230 231 232
