# CrossGems gem mesh: trillion-straight
v 0.000000 -0.275001 0.166677
v -0.056495 -0.354859 0.112449
v -0.194710 0.000228 0.166677
v -0.318893 0.319266 0.166677
v -0.194710 0.000228 0.166677
v -0.411420 0.306555 0.112449
v 0.056495 -0.354859 0.112449
v 0.000000 -0.275001 0.166677
v 0.000000 -0.500000 0.013890
v -0.056495 -0.354859 0.112449
v 0.000000 -0.500000 0.013890
v -0.056495 -0.354859 0.112449
v -0.104244 -0.422353 0.013890
v -0.056495 -0.354859 0.112449
v -0.104244 -0.422353 0.013890
v -0.304713 -0.068627 0.013890
v -0.304713 -0.068627 0.013890
v -0.411420 0.306555 0.112449
v -0.489622 0.295811 0.013890
v -0.411420 0.306555 0.112449
v -0.489622 0.295811 0.013890
v -0.500000 0.431766 0.013890
v -0.318893 0.319266 0.166677
v -0.354925 0.411835 0.112449
v -0.411420 0.306555 0.112449
v -0.500000 0.431766 0.013890
v -0.000000 0.363076 0.166677
v -0.318893 0.319266 0.166677
v -0.354925 0.411835 0.112449
v -0.000421 0.500000 0.013890
v -0.354925 0.411835 0.112449
v -0.385378 0.490073 0.013890
v -0.354925 0.411835 0.112449
v -0.385378 0.490073 0.013890
v -0.500000 0.431766 0.013890
v -0.000421 0.500000 0.013890
v -0.000421 0.500000 -0.013890
v -0.385378 0.490073 0.013890
v -0.385378 0.490073 -0.013890
v -0.385378 0.490073 0.013890
v -0.385378 0.490073 -0.013890
v -0.500000 0.431766 0.013890
v -0.500000 0.431766 -0.013890
v -0.489622 0.295811 0.013890
v -0.489622 0.295811 -0.013890
v -0.500000 0.431766 0.013890
v -0.500000 0.431766 -0.013890
v -0.304713 -0.068627 0.013890
v -0.304713 -0.068627 -0.013890
v -0.489622 0.295811 0.013890
v -0.489622 0.295811 -0.013890
v -0.104244 -0.422353 0.013890
v -0.104244 -0.422353 -0.013890
v -0.304713 -0.068627 0.013890
v -0.304713 -0.068627 -0.013890
v 0.000000 -0.500000 0.013890
v -0.000000 -0.500000 -0.013890
v -0.104244 -0.422353 0.013890
v -0.104244 -0.422353 -0.013890
v -0.000000 -0.500000 -0.013890
v -0.052194 -0.321551 -0.105655
v -0.104244 -0.422353 -0.013890
v -0.052194 -0.321551 -0.105655
v -0.104244 -0.422353 -0.013890
v -0.304713 -0.068627 -0.013890
v -0.382459 0.293909 -0.105655
v -0.489622 0.295811 -0.013890
v -0.500000 0.431766 -0.013890
v -0.330266 0.391174 -0.105655
v -0.385378 0.490073 -0.013890
v -0.500000 0.431766 -0.013890
v -0.000421 0.500000 -0.013890
v -0.330266 0.391174 -0.105655
v -0.385378 0.490073 -0.013890
v 0.330266 0.391174 -0.105655
v 0.000000 0.121177 -0.333323
v -0.000421 0.500000 -0.013890
v -0.330266 0.391174 -0.105655
v -0.052194 -0.321551 -0.105655
v -0.304713 -0.068627 -0.013890
v -0.382459 0.293909 -0.105655
v 0.000000 0.121177 -0.333323
v -0.411420 0.306555 0.112449
v -0.194710 0.000228 0.166677
v -0.056495 -0.354859 0.112449
v -0.304713 -0.068627 0.013890
v 0.000000 -0.500000 0.013890
v 0.056495 -0.354859 0.112449
v 0.104244 -0.422353 0.013890
v 0.056495 -0.354859 0.112449
v 0.104244 -0.422353 0.013890
v 0.304713 -0.068627 0.013890
v 0.304713 -0.068627 0.013890
v 0.411420 0.306555 0.112449
v 0.489622 0.295811 0.013890
v 0.411420 0.306555 0.112449
v 0.489622 0.295811 0.013890
v 0.500000 0.431766 0.013890
v 0.318893 0.319266 0.166677
v 0.354925 0.411835 0.112449
v 0.411420 0.306555 0.112449
v 0.500000 0.431766 0.013890
v -0.000000 0.363076 0.166677
v 0.318893 0.319266 0.166677
v 0.354925 0.411835 0.112449
v -0.000421 0.500000 0.013890
v 0.354925 0.411835 0.112449
v 0.385378 0.490073 0.013890
v 0.354925 0.411835 0.112449
v 0.385378 0.490073 0.013890
v 0.500000 0.431766 0.013890
v -0.000421 0.500000 0.013890
v -0.000421 0.500000 -0.013890
v 0.385378 0.490073 0.013890
v 0.385378 0.490073 -0.013890
v 0.385378 0.490073 0.013890
v 0.385378 0.490073 -0.013890
v 0.500000 0.431766 0.013890
v 0.500000 0.431766 -0.013890
v 0.489622 0.295811 0.013890
v 0.489622 0.295811 -0.013890
v 0.500000 0.431766 0.013890
v 0.500000 0.431766 -0.013890
v 0.304713 -0.068627 0.013890
v 0.304713 -0.068627 -0.013890
v 0.489622 0.295811 0.013890
v 0.489622 0.295811 -0.013890
v 0.104244 -0.422353 0.013890
v 0.104244 -0.422353 -0.013890
v 0.304713 -0.068627 0.013890
v 0.304713 -0.068627 -0.013890
v 0.000000 -0.500000 0.013890
v -0.000000 -0.500000 -0.013890
v 0.104244 -0.422353 0.013890
v 0.104244 -0.422353 -0.013890
v -0.000000 -0.500000 -0.013890
v 0.052194 -0.321551 -0.105655
v 0.104244 -0.422353 -0.013890
v 0.052194 -0.321551 -0.105655
v 0.104244 -0.422353 -0.013890
v 0.304713 -0.068627 -0.013890
v 0.382459 0.293909 -0.105655
v 0.489622 0.295811 -0.013890
v 0.500000 0.431766 -0.013890
v 0.330266 0.391174 -0.105655
v 0.385378 0.490073 -0.013890
v 0.500000 0.431766 -0.013890
v -0.000421 0.500000 -0.013890
v 0.330266 0.391174 -0.105655
v 0.385378 0.490073 -0.013890
v 0.052194 -0.321551 -0.105655
v 0.304713 -0.068627 -0.013890
v 0.382459 0.293909 -0.105655
v 0.000000 0.121177 -0.333323
v 0.411420 0.306555 0.112449
v 0.194710 0.000228 0.166677
v 0.056495 -0.354859 0.112449
v 0.304713 -0.068627 0.013890
v -0.000000 0.363076 0.166677
v -0.354925 0.411835 0.112449
v -0.000421 0.500000 0.013890
v 0.354925 0.411835 0.112449
v 0.000000 -0.275001 0.166677
v -0.194710 0.000228 0.166677
v -0.318893 0.319266 0.166677
v -0.000000 0.363076 0.166677
v 0.318893 0.319266 0.166677
v 0.194710 0.000228 0.166677
v -0.304713 -0.068627 -0.013890
v -0.382459 0.293909 -0.105655
v -0.489622 0.295811 -0.013890
v 0.194710 0.000228 0.166677
v 0.318893 0.319266 0.166677
v 0.411420 0.306555 0.112449
v 0.194710 0.000228 0.166677
v 0.056495 -0.354859 0.112449
v 0.000000 -0.275001 0.166677
v 0.489622 0.295811 -0.013890
v 0.382459 0.293909 -0.105655
v 0.304713 -0.068627 -0.013890
v -0.000000 -0.500000 -0.013890
v 0.052194 -0.321551 -0.105655
v 0.000000 0.121177 -0.333323
v -0.052194 -0.321551 -0.105655
v 0.000000 0.121177 -0.333323
v 0.382459 0.293909 -0.105655
v 0.500000 0.431766 -0.013890
v 0.330266 0.391174 -0.105655
v 0.000000 0.121177 -0.333323
v -0.330266 0.391174 -0.105655
v -0.500000 0.431766 -0.013890
v -0.382459 0.293909 -0.105655
f 1 3 2
f 4 6 5
f 9 7 8 10
f 13 11 12
f 16 15 14
f 18 19 17
f 21 20 22
f 25 23 24 26
f 28 27 29
f 31 30 32
f 34 35 33
f 38 36 37 39
f 43 42 40 41
f 47 45 44 46
f 48 50 51 49
f 52 54 55 53
f 57 56 58 59
f 62 61 60
f 64 65 63
f 68 66 67
f 70 69 71
f 73 74 72
f 76 78 77 75
f 79 80 81 82
f 86 84 83
f 84 86 85
f 89 88 87
f 92 90 91
f 94 93 95
f 97 98 96
f 101 102 100 99
f 104 105 103
f 107 108 106
f 110 109 111
f 114 115 113 112
f 119 117 116 118
f 123 122 120 121
f 124 125 127 126
f 128 129 131 130
f 133 135 134 132
f 138 136 137
f 140 139 141
f 144 143 142
f 146 147 145
f 149 148 150
f 151 154 153 152
f 158 155 156
f 156 157 158
f 161 159 162
f 159 161 160
f 164 166 165
f 168 166 164
f 163 168 164
f 167 166 168
f 169 171 170
f 172 174 173
f 175 177 176
f 178 180 179
f 181 184 183 182
f 185 188 187 186
f 189 192 191 190
