# CrossGems gem mesh: trillion
v 0.000000 -0.500000 0.012478
v -0.039008 -0.252589 0.070898
v -0.000465 -0.139840 0.097567
v 0.039008 -0.252589 0.070898
v -0.039008 -0.252589 0.070898
v -0.104530 -0.415320 0.012478
v 0.000000 -0.500000 0.012478
v -0.104530 -0.415320 0.012478
v -0.235274 -0.252589 0.012478
v -0.039008 -0.252589 0.070898
v -0.039008 -0.252589 0.070898
v -0.000465 -0.139840 0.097567
v -0.096198 -0.093962 0.097567
v -0.039008 -0.252589 0.070898
v -0.235274 -0.252589 0.012478
v -0.223672 -0.032651 0.075857
v -0.096198 -0.093962 0.097567
v -0.223672 -0.032651 0.075857
v -0.235274 -0.252589 0.012478
v -0.329772 -0.095291 0.012478
v -0.329772 -0.095291 0.012478
v -0.223672 -0.032651 0.075857
v -0.401543 0.052589 0.012478
v -0.223672 -0.032651 0.075857
v -0.096198 -0.093962 0.097567
v -0.211193 0.092036 0.097567
v -0.223672 -0.032651 0.075857
v -0.211193 0.092036 0.097567
v -0.305258 0.227660 0.075441
v -0.401543 0.052589 0.012478
v -0.305258 0.227660 0.075441
v -0.210508 0.225691 0.097567
v -0.211193 0.092036 0.097567
v -0.401543 0.052589 0.012478
v -0.463284 0.215320 0.012478
v -0.305258 0.227660 0.075441
v -0.463284 0.215320 0.012478
v -0.500000 0.400000 0.012478
v -0.305258 0.227660 0.075441
v -0.500000 0.400000 0.012478
v -0.260771 0.308316 0.075441
v -0.210508 0.225691 0.097567
v -0.305258 0.227660 0.075441
v 0.000000 -0.500000 0.012478
v 0.104530 -0.415320 0.012478
v 0.039008 -0.252589 0.070898
v 0.104530 -0.415320 0.012478
v 0.235274 -0.252589 0.012478
v 0.039008 -0.252589 0.070898
v 0.235274 -0.252589 0.012478
v 0.039008 -0.252589 0.070898
v 0.096198 -0.093962 0.097567
v 0.223672 -0.032651 0.075857
v -0.000465 -0.139840 0.097567
v 0.039008 -0.252589 0.070898
v 0.096198 -0.093962 0.097567
v 0.235274 -0.252589 0.012478
v 0.329772 -0.095291 0.012478
v 0.223672 -0.032651 0.075857
v 0.329772 -0.095291 0.012478
v 0.401543 0.052589 0.012478
v 0.223672 -0.032651 0.075857
v 0.401543 0.052589 0.012478
v 0.223672 -0.032651 0.075857
v 0.211193 0.092036 0.097567
v 0.305258 0.227660 0.075441
v 0.223672 -0.032651 0.075857
v 0.211193 0.092036 0.097567
v 0.096198 -0.093962 0.097567
v 0.401543 0.052589 0.012478
v 0.463284 0.215320 0.012478
v 0.305258 0.227660 0.075441
v 0.463284 0.215320 0.012478
v 0.500000 0.400000 0.012478
v 0.305258 0.227660 0.075441
v 0.305258 0.227660 0.075441
v 0.210508 0.225691 0.097567
v 0.211193 0.092036 0.097567
v 0.305258 0.227660 0.075441
v 0.210508 0.225691 0.097567
v 0.260771 0.308316 0.075441
v 0.500000 0.400000 0.012478
v 0.500000 0.400000 0.012478
v 0.326460 0.467277 0.012478
v 0.260771 0.308316 0.075441
v 0.260771 0.308316 0.075441
v 0.157021 0.495915 0.012478
v 0.326460 0.467277 0.012478
v 0.210508 0.225691 0.097567
v 0.260771 0.308316 0.075441
v 0.116290 0.294710 0.097567
v 0.260771 0.308316 0.075441
v 0.116290 0.294710 0.097567
v 0.000000 0.380320 0.075267
v 0.157021 0.495915 0.012478
v 0.116290 0.294710 0.097567
v 0.000000 0.380320 0.075267
v -0.117220 0.294710 0.097567
v 0.157021 0.495915 0.012478
v 0.000000 0.500000 0.012478
v 0.000000 0.380320 0.075267
v 0.000000 0.500000 0.012478
v 0.000000 0.380320 0.075267
v -0.157021 0.495915 0.012478
v 0.000000 0.380320 0.075267
v -0.117220 0.294710 0.097567
v -0.260771 0.308316 0.075441
v -0.157021 0.495915 0.012478
v -0.117220 0.294710 0.097567
v -0.210508 0.225691 0.097567
v -0.260771 0.308316 0.075441
v -0.157021 0.495915 0.012478
v -0.326460 0.467277 0.012478
v -0.260771 0.308316 0.075441
v -0.260771 0.308316 0.075441
v -0.326460 0.467277 0.012478
v -0.500000 0.400000 0.012478
v -0.117220 0.294710 0.097567
v -0.210508 0.225691 0.097567
v -0.211193 0.092036 0.097567
v -0.096198 -0.093962 0.097567
v -0.000465 -0.139840 0.097567
v 0.096198 -0.093962 0.097567
v 0.211193 0.092036 0.097567
v 0.210508 0.225691 0.097567
v 0.116290 0.294710 0.097567
v 0.000000 0.500000 0.012478
v 0.000000 0.500000 -0.012478
v -0.157021 0.495915 -0.012478
v -0.157021 0.495915 0.012478
v -0.157021 0.495915 0.012478
v -0.157021 0.495915 -0.012478
v -0.326460 0.467277 -0.012478
v -0.326460 0.467277 0.012478
v -0.326460 0.467277 -0.012478
v -0.326460 0.467277 0.012478
v -0.500000 0.400000 0.012478
v -0.500000 0.400000 -0.012478
v -0.500000 0.400000 0.012478
v -0.500000 0.400000 -0.012478
v -0.463284 0.215320 -0.012478
v -0.463284 0.215320 0.012478
v -0.463284 0.215320 -0.012478
v -0.463284 0.215320 0.012478
v -0.401543 0.052589 0.012478
v -0.401543 0.052589 -0.012478
v -0.401543 0.052589 0.012478
v -0.401543 0.052589 -0.012478
v -0.329772 -0.095291 -0.012478
v -0.329772 -0.095291 0.012478
v -0.329772 -0.095291 0.012478
v -0.329772 -0.095291 -0.012478
v -0.235274 -0.252589 -0.012478
v -0.235274 -0.252589 0.012478
v -0.235274 -0.252589 -0.012478
v -0.235274 -0.252589 0.012478
v -0.104530 -0.415320 0.012478
v -0.104530 -0.415320 -0.012478
v -0.104530 -0.415320 0.012478
v 0.000000 -0.500000 0.012478
v 0.000000 -0.500000 -0.012478
v -0.104530 -0.415320 -0.012478
v 0.000000 -0.500000 0.012478
v 0.000000 -0.500000 -0.012478
v 0.104530 -0.415320 -0.012478
v 0.104530 -0.415320 0.012478
v 0.104530 -0.415320 0.012478
v 0.104530 -0.415320 -0.012478
v 0.235274 -0.252589 -0.012478
v 0.235274 -0.252589 0.012478
v 0.235274 -0.252589 0.012478
v 0.235274 -0.252589 -0.012478
v 0.329772 -0.095291 -0.012478
v 0.329772 -0.095291 0.012478
v 0.329772 -0.095291 0.012478
v 0.329772 -0.095291 -0.012478
v 0.401543 0.052589 -0.012478
v 0.401543 0.052589 0.012478
v 0.401543 0.052589 0.012478
v 0.401543 0.052589 -0.012478
v 0.463284 0.215320 -0.012478
v 0.463284 0.215320 0.012478
v 0.463284 0.215320 0.012478
v 0.463284 0.215320 -0.012478
v 0.500000 0.400000 -0.012478
v 0.500000 0.400000 0.012478
v 0.500000 0.400000 0.012478
v 0.500000 0.400000 -0.012478
v 0.326460 0.467277 -0.012478
v 0.326460 0.467277 0.012478
v 0.326460 0.467277 0.012478
v 0.326460 0.467277 -0.012478
v 0.157021 0.495915 -0.012478
v 0.157021 0.495915 0.012478
v 0.157021 0.495915 0.012478
v 0.157021 0.495915 -0.012478
v 0.000000 0.500000 -0.012478
v 0.000000 0.500000 0.012478
v 0.000000 -0.500000 -0.012478
v 0.104530 -0.415320 -0.012478
v 0.000004 -0.034631 -0.321508
v 0.104530 -0.415320 -0.012478
v 0.235274 -0.252589 -0.012478
v 0.000004 -0.034631 -0.321508
v 0.000004 -0.034631 -0.321508
v 0.000000 0.101550 -0.402433
v 0.072501 0.058529 -0.321955
v 0.235274 -0.252589 -0.012478
v 0.072501 0.058529 -0.321955
v 0.235274 -0.252589 -0.012478
v 0.329772 -0.095291 -0.012478
v 0.000000 0.101550 -0.402433
v 0.072501 0.058529 -0.321955
v 0.401543 0.052589 -0.012478
v 0.088946 0.152922 -0.336729
v 0.072501 0.058529 -0.321955
v 0.329772 -0.095291 -0.012478
v 0.401543 0.052589 -0.012478
v 0.088946 0.152922 -0.336729
v 0.401543 0.052589 -0.012478
v 0.463284 0.215320 -0.012478
v 0.463284 0.215320 -0.012478
v 0.500000 0.400000 -0.012478
v 0.088946 0.152922 -0.336729
v 0.500000 0.400000 -0.012478
v 0.326460 0.467277 -0.012478
v 0.088946 0.152922 -0.336729
v 0.088946 0.152922 -0.336729
v 0.326460 0.467277 -0.012478
v 0.157021 0.495915 -0.012478
v 0.088946 0.152922 -0.336729
v 0.000000 0.101550 -0.402433
v -0.000929 0.179680 -0.332087
v 0.157021 0.495915 -0.012478
v 0.157021 0.495915 -0.012478
v 0.000000 0.500000 -0.012478
v -0.000929 0.179680 -0.332087
v 0.000000 0.500000 -0.012478
v -0.157021 0.495915 -0.012478
v -0.000929 0.179680 -0.332087
v -0.000929 0.179680 -0.332087
v 0.000000 0.101550 -0.402433
v -0.090805 0.152922 -0.336729
v -0.157021 0.495915 -0.012478
v -0.157021 0.495915 -0.012478
v -0.326460 0.467277 -0.012478
v -0.090805 0.152922 -0.336729
v -0.090805 0.152922 -0.336729
v -0.500000 0.400000 -0.012478
v -0.326460 0.467277 -0.012478
v -0.090805 0.152922 -0.336729
v -0.500000 0.400000 -0.012478
v -0.463284 0.215320 -0.012478
v -0.090805 0.152922 -0.336729
v -0.401543 0.052589 -0.012478
v -0.463284 0.215320 -0.012478
v 0.000000 0.101550 -0.402433
v -0.090805 0.152922 -0.336729
v -0.401543 0.052589 -0.012478
v -0.072074 0.058529 -0.321955
v 0.000000 0.101550 -0.402433
v -0.072074 0.058529 -0.321955
v -0.235274 -0.252589 -0.012478
v 0.000004 -0.034631 -0.321508
v -0.072074 0.058529 -0.321955
v -0.401543 0.052589 -0.012478
v -0.329772 -0.095291 -0.012478
v -0.072074 0.058529 -0.321955
v -0.329772 -0.095291 -0.012478
v -0.235274 -0.252589 -0.012478
v 0.000004 -0.034631 -0.321508
v -0.235274 -0.252589 -0.012478
v -0.104530 -0.415320 -0.012478
v -0.104530 -0.415320 -0.012478
v 0.000000 -0.500000 -0.012478
v 0.000004 -0.034631 -0.321508
f 2 1 4
f 4 3 2
f 5 6 7
f 8 10 9
f 11 12 13
f 17 15 14
f 15 17 16
f 18 20 19
f 21 22 23
f 24 25 26
f 30 27 28
f 28 29 30
f 31 33 32
f 34 36 35
f 37 39 38
f 43 41 40
f 41 43 42
f 44 45 46
f 47 48 49
f 50 53 52
f 52 51 50
f 54 55 56
f 57 58 59
f 60 61 62
f 65 63 66
f 63 65 64
f 67 68 69
f 70 71 72
f 73 74 75
f 76 77 78
f 79 82 81
f 81 80 79
f 83 84 85
f 86 88 87
f 89 90 91
f 95 93 92
f 93 95 94
f 96 97 98
f 99 100 101
f 102 104 103
f 106 105 108
f 108 107 106
f 109 111 110
f 112 113 114
f 115 116 117
f 126 118 120
f 120 118 119
f 124 120 121
f 123 124 121
f 125 126 124
f 124 126 120
f 122 123 121
f 127 128 129 130
f 131 132 133 134
f 135 138 137 136
f 139 140 141 142
f 143 146 145 144
f 147 148 149 150
f 151 152 153 154
f 155 158 157 156
f 159 162 161 160
f 163 164 165 166
f 167 168 169 170
f 171 172 173 174
f 175 176 177 178
f 179 180 181 182
f 183 184 185 186
f 187 188 189 190
f 191 192 193 194
f 195 196 197 198
f 199 201 200
f 202 204 203
f 207 208 205
f 205 206 207
f 209 211 210
f 213 212 215
f 215 214 213
f 216 218 217
f 219 221 220
f 222 224 223
f 225 227 226
f 228 230 229
f 233 234 231
f 231 232 233
f 235 237 236
f 238 240 239
f 241 243 244
f 243 241 242
f 245 247 246
f 248 249 250
f 251 253 252
f 254 255 256
f 260 258 257
f 258 260 259
f 264 262 261
f 262 264 263
f 265 267 266
f 268 270 269
f 271 273 272
f 274 276 275
