# CrossGems gem mesh: trilliant
v -0.165007 0.056662 0.142045
v -0.041660 -0.240838 0.113386
v -0.250000 0.000000 0.014196
v -0.326459 0.328759 0.113386
v 0.041660 -0.240838 0.113386
v 0.165007 0.056662 0.142045
v 0.326459 0.328759 0.113386
v 0.250000 0.000000 0.014196
v -0.000000 -0.500000 -0.014196
v -0.000000 0.166667 -0.309955
v -0.500000 0.500000 -0.014196
v -0.250000 0.000000 -0.014196
v 0.041660 -0.240838 0.113386
v -0.000000 -0.165959 0.142045
v -0.000000 -0.500000 0.014196
v -0.041660 -0.240838 0.113386
v -0.000000 -0.500000 0.014196
v -0.041660 -0.240838 0.113386
v -0.098783 -0.302435 0.014196
v -0.000000 -0.165959 0.142045
v -0.041660 -0.240838 0.113386
v -0.165007 0.056662 0.142045
v -0.041660 -0.240838 0.113386
v -0.098783 -0.302435 0.014196
v -0.250000 0.000000 0.014196
v -0.250000 0.000000 0.014196
v -0.326459 0.328759 0.113386
v -0.401217 0.302435 0.014196
v -0.165007 0.056662 0.142045
v -0.249469 0.332980 0.142045
v -0.326459 0.328759 0.113386
v -0.326459 0.328759 0.113386
v -0.401217 0.302435 0.014196
v -0.500000 0.500000 0.014196
v -0.249469 0.332980 0.142045
v -0.284799 0.412079 0.113386
v -0.326459 0.328759 0.113386
v -0.500000 0.500000 0.014196
v -0.000000 0.500000 0.014196
v -0.284799 0.412079 0.113386
v -0.302435 0.500000 0.014196
v 0.000000 0.386676 0.142045
v -0.249469 0.332980 0.142045
v -0.284799 0.412079 0.113386
v -0.000000 -0.500000 0.014196
v 0.041660 -0.240838 0.113386
v 0.098783 -0.302435 0.014196
v -0.000000 -0.165959 0.142045
v 0.041660 -0.240838 0.113386
v 0.165007 0.056662 0.142045
v 0.041660 -0.240838 0.113386
v 0.098783 -0.302435 0.014196
v 0.250000 0.000000 0.014196
v 0.250000 0.000000 0.014196
v 0.326459 0.328759 0.113386
v 0.401217 0.302435 0.014196
v 0.165007 0.056662 0.142045
v 0.249469 0.332980 0.142045
v 0.326459 0.328759 0.113386
v 0.326459 0.328759 0.113386
v 0.401217 0.302435 0.014196
v 0.500000 0.500000 0.014196
v 0.249469 0.332980 0.142045
v 0.284799 0.412079 0.113386
v 0.326459 0.328759 0.113386
v 0.500000 0.500000 0.014196
v -0.000000 0.500000 0.014196
v 0.284799 0.412079 0.113386
v 0.302435 0.500000 0.014196
v 0.000000 0.386676 0.142045
v 0.249469 0.332980 0.142045
v 0.284799 0.412079 0.113386
v 0.284799 0.412079 0.113386
v 0.500000 0.500000 0.014196
v 0.302435 0.500000 0.014196
v -0.284799 0.412079 0.113386
v -0.302435 0.500000 0.014196
v -0.500000 0.500000 0.014196
v -0.249469 0.332980 0.142045
v 0.000000 0.386676 0.142045
v 0.249469 0.332980 0.142045
v 0.165007 0.056662 0.142045
v -0.000000 -0.165959 0.142045
v -0.165007 0.056662 0.142045
v 0.500000 0.500000 0.014196
v 0.500000 0.500000 -0.014196
v 0.250000 0.000000 -0.014196
v 0.250000 0.000000 0.014196
v 0.401217 0.302435 0.014196
v 0.250000 0.000000 0.014196
v 0.250000 0.000000 -0.014196
v -0.000000 -0.500000 -0.014196
v -0.000000 -0.500000 0.014196
v 0.098783 -0.302435 0.014196
v -0.000000 -0.500000 0.014196
v -0.000000 -0.500000 -0.014196
v -0.250000 0.000000 -0.014196
v -0.250000 0.000000 0.014196
v -0.098783 -0.302435 0.014196
v -0.250000 0.000000 0.014196
v -0.250000 0.000000 -0.014196
v -0.500000 0.500000 -0.014196
v -0.500000 0.500000 0.014196
v -0.401217 0.302435 0.014196
v -0.500000 0.500000 0.014196
v -0.500000 0.500000 -0.014196
v -0.000000 0.500000 -0.014196
v -0.000000 0.500000 0.014196
v -0.302435 0.500000 0.014196
v -0.000000 0.500000 -0.014196
v 0.500000 0.500000 -0.014196
v 0.500000 0.500000 0.014196
v 0.302435 0.500000 0.014196
v -0.000000 0.500000 0.014196
v 0.250000 0.000000 -0.014196
v 0.500000 0.500000 -0.014196
v -0.000000 0.166667 -0.309955
v -0.000000 -0.500000 -0.014196
v -0.500000 0.500000 -0.014196
v -0.000000 0.166667 -0.309955
v 0.500000 0.500000 -0.014196
v -0.000000 0.500000 -0.014196
v 0.000000 0.386676 0.142045
v -0.284799 0.412079 0.113386
v -0.000000 0.500000 0.014196
v 0.284799 0.412079 0.113386
f 1 4 3 2
f 5 8 7 6
f 10 9 12
f 12 11 10
f 15 13 14 16
f 17 18 19
f 21 20 22
f 24 23 25
f 26 27 28
f 30 31 29
f 32 34 33
f 38 37 35 36
f 40 39 41
f 43 42 44
f 45 47 46
f 49 50 48
f 52 53 51
f 54 56 55
f 58 57 59
f 60 61 62
f 66 64 63 65
f 68 69 67
f 71 72 70
f 73 74 75
f 76 77 78
f 83 82 84
f 79 84 80
f 82 81 80
f 84 82 80
f 89 86 85
f 88 87 89
f 86 89 87
f 94 91 90
f 93 92 94
f 91 94 92
f 99 96 95
f 98 97 99
f 96 99 97
f 104 101 100
f 103 102 104
f 101 104 102
f 109 107 106
f 107 109 108
f 106 105 109
f 113 111 110
f 111 113 112
f 110 114 113
f 117 115 118
f 115 117 116
f 122 120 119
f 120 122 121
f 123 126 125 124
