<svg xmlns="http://www.w3.org/2000/svg" viewBox="0 0 18.7074 6.8802" width="18.7074" height="6.8802"><defs><radialGradient id="dew"><stop offset="0" stop-color="#000"/><stop offset="0.55" stop-color="#141414"/><stop offset="1" stop-color="#a0a0a0"/></radialGradient><filter id="soft" filterUnits="userSpaceOnUse" x="0" y="0" width="18.7074" height="6.8802"><feGaussianBlur stdDeviation="0.07"/></filter></defs><rect width="18.7074" height="6.8802" fill="#fff"/><g filter="url(#soft)"><path fill="#000000" d="M-0.273 4.880 L-0.182 4.900 L-0.091 4.921 L0.001 4.941 L0.092 4.962 L0.183 4.982 L0.275 5.003 L0.366 5.023 L0.458 5.044 L0.549 5.064 L0.640 5.085 L0.732 5.106 L0.823 5.127 L0.915 5.148 L1.006 5.169 L1.098 5.190 L1.189 5.211 L1.281 5.232 L1.372 5.254 L1.464 5.275 L1.555 5.297 L1.647 5.318 L1.739 5.340 L1.830 5.362 L1.922 5.384 L2.014 5.406 L2.105 5.429 L2.197 5.451 L2.289 5.473 L2.381 5.496 L2.473 5.519 L2.565 5.542 L2.656 5.565 L2.748 5.588 L2.840 5.611 L2.932 5.634 L3.024 5.658 L3.117 5.681 L3.209 5.705 L3.301 5.729 L3.393 5.753 L3.485 5.777 L3.577 5.801 L3.670 5.825 L3.762 5.849 L3.854 5.874 L3.947 5.899 L4.039 5.924 L4.132 5.948 L4.224 5.973 L4.317 5.999 L4.409 6.024 L4.502 6.049 L4.595 6.075 L4.687 6.100 L4.780 6.126 L4.873 6.152 L4.966 6.178 L5.059 6.204 L5.152 6.230 L5.245 6.257 L5.338 6.283 L5.399 6.312 L5.444 6.356 L5.465 6.409 L5.459 6.463 L5.427 6.509 L5.374 6.541 L5.308 6.553 L5.239 6.544 L5.146 6.517 L5.054 6.490 L4.961 6.464 L4.868 6.437 L4.776 6.411 L4.683 6.385 L4.591 6.359 L4.498 6.333 L4.406 6.307 L4.313 6.281 L4.221 6.255 L4.129 6.230 L4.037 6.205 L3.944 6.179 L3.852 6.154 L3.760 6.129 L3.668 6.104 L3.576 6.080 L3.484 6.055 L3.392 6.031 L3.300 6.006 L3.208 5.982 L3.116 5.958 L3.024 5.934 L2.932 5.910 L2.840 5.886 L2.748 5.863 L2.656 5.839 L2.565 5.816 L2.473 5.793 L2.381 5.770 L2.290 5.747 L2.198 5.724 L2.106 5.701 L2.015 5.679 L1.923 5.656 L1.832 5.634 L1.740 5.612 L1.649 5.590 L1.557 5.568 L1.466 5.546 L1.374 5.524 L1.283 5.503 L1.191 5.481 L1.100 5.460 L1.009 5.439 L0.917 5.417 L0.826 5.396 L0.735 5.375 L0.643 5.354 L0.552 5.333 L0.461 5.313 L0.369 5.292 L0.278 5.271 L0.187 5.251 L0.096 5.230 L0.004 5.209 L-0.087 5.189 L-0.178 5.168 L-0.269 5.148 L-0.360 5.128 L-0.337 4.876 L-0.398 4.891 L-0.447 4.924 L-0.476 4.969 L-0.480 5.019 L-0.460 5.066 L-0.418 5.105 Z"/><path fill="#000000" d="M-0.360 1.753 L-0.269 1.732 L-0.178 1.712 L-0.087 1.691 L0.004 1.671 L0.096 1.650 L0.187 1.630 L0.278 1.609 L0.369 1.588 L0.461 1.568 L0.552 1.547 L0.643 1.526 L0.735 1.505 L0.826 1.484 L0.917 1.463 L1.009 1.442 L1.100 1.420 L1.191 1.399 L1.283 1.377 L1.374 1.356 L1.466 1.334 L1.557 1.312 L1.649 1.290 L1.740 1.268 L1.832 1.246 L1.923 1.224 L2.015 1.201 L2.106 1.179 L2.198 1.156 L2.290 1.133 L2.381 1.110 L2.473 1.087 L2.565 1.064 L2.656 1.041 L2.748 1.017 L2.840 0.994 L2.932 0.970 L3.024 0.946 L3.116 0.922 L3.208 0.898 L3.300 0.874 L3.392 0.850 L3.484 0.825 L3.576 0.801 L3.668 0.776 L3.760 0.751 L3.852 0.726 L3.944 0.701 L4.037 0.676 L4.129 0.650 L4.221 0.625 L4.313 0.599 L4.406 0.573 L4.498 0.548 L4.591 0.522 L4.683 0.495 L4.776 0.469 L4.868 0.443 L4.961 0.416 L5.054 0.390 L5.146 0.363 L5.239 0.336 L5.308 0.327 L5.374 0.339 L5.427 0.371 L5.459 0.417 L5.465 0.471 L5.444 0.524 L5.399 0.568 L5.338 0.597 L5.245 0.623 L5.152 0.650 L5.059 0.676 L4.966 0.702 L4.873 0.728 L4.780 0.754 L4.687 0.780 L4.595 0.805 L4.502 0.831 L4.409 0.856 L4.317 0.882 L4.224 0.907 L4.132 0.932 L4.039 0.957 L3.947 0.981 L3.854 1.006 L3.762 1.031 L3.670 1.055 L3.577 1.079 L3.485 1.104 L3.393 1.128 L3.301 1.152 L3.209 1.175 L3.117 1.199 L3.024 1.223 L2.932 1.246 L2.840 1.269 L2.748 1.293 L2.656 1.316 L2.565 1.339 L2.473 1.361 L2.381 1.384 L2.289 1.407 L2.197 1.429 L2.105 1.452 L2.014 1.474 L1.922 1.496 L1.830 1.518 L1.739 1.540 L1.647 1.562 L1.555 1.584 L1.464 1.605 L1.372 1.627 L1.281 1.648 L1.189 1.669 L1.098 1.691 L1.006 1.712 L0.915 1.733 L0.823 1.753 L0.732 1.774 L0.640 1.795 L0.549 1.816 L0.458 1.836 L0.366 1.857 L0.275 1.878 L0.183 1.898 L0.092 1.919 L0.001 1.939 L-0.091 1.959 L-0.182 1.980 L-0.273 2.000 L-0.418 1.776 L-0.460 1.814 L-0.480 1.862 L-0.476 1.912 L-0.447 1.956 L-0.398 1.989 L-0.337 2.004 Z"/><path fill="#000000" d="M3.759 3.686 L3.854 3.690 L3.949 3.693 L4.045 3.697 L4.140 3.700 L4.236 3.704 L4.331 3.708 L4.427 3.711 L4.523 3.715 L4.618 3.718 L4.714 3.722 L4.810 3.725 L4.906 3.729 L5.002 3.733 L5.097 3.736 L5.193 3.740 L5.289 3.744 L5.385 3.748 L5.481 3.751 L5.578 3.755 L5.674 3.759 L5.770 3.763 L5.866 3.766 L5.962 3.770 L6.059 3.774 L6.155 3.778 L6.252 3.782 L6.348 3.786 L6.445 3.790 L6.541 3.793 L6.638 3.797 L6.734 3.801 L6.831 3.805 L6.928 3.809 L7.025 3.813 L7.121 3.817 L7.218 3.821 L7.315 3.825 L7.412 3.829 L7.509 3.833 L7.606 3.837 L7.703 3.841 L7.800 3.845 L7.897 3.849 L7.994 3.853 L8.091 3.857 L8.189 3.861 L8.286 3.865 L8.383 3.869 L8.480 3.873 L8.578 3.877 L8.675 3.881 L8.773 3.885 L8.870 3.889 L8.968 3.893 L9.065 3.897 L9.163 3.901 L9.260 3.905 L9.358 3.909 L9.455 3.914 L9.553 3.918 L9.651 3.922 L9.748 3.926 L9.846 3.930 L9.944 3.934 L10.041 3.938 L10.139 3.942 L10.237 3.947 L10.335 3.951 L10.433 3.955 L10.531 3.959 L10.629 3.963 L10.727 3.968 L10.825 3.972 L10.923 3.976 L11.021 3.980 L11.119 3.985 L11.217 3.989 L11.315 3.993 L11.413 3.998 L11.511 4.002 L11.609 4.006 L11.708 4.011 L11.806 4.015 L11.904 4.019 L12.002 4.024 L12.101 4.028 L12.199 4.032 L12.297 4.037 L12.396 4.041 L12.494 4.046 L12.593 4.050 L12.691 4.055 L12.790 4.059 L12.888 4.064 L12.987 4.068 L13.085 4.073 L13.184 4.077 L13.282 4.082 L13.381 4.086 L13.480 4.091 L13.578 4.095 L13.677 4.100 L13.776 4.104 L13.874 4.109 L13.973 4.114 L14.072 4.118 L14.171 4.123 L14.270 4.128 L14.369 4.132 L14.467 4.137 L14.566 4.142 L14.665 4.146 L14.764 4.151 L14.863 4.156 L14.962 4.160 L15.061 4.165 L15.160 4.170 L15.259 4.174 L15.358 4.179 L15.458 4.184 L15.557 4.189 L15.656 4.193 L15.755 4.198 L15.854 4.203 L15.953 4.208 L16.053 4.213 L16.152 4.217 L16.251 4.222 L16.350 4.227 L16.450 4.232 L16.549 4.237 L16.648 4.241 L16.748 4.246 L16.847 4.251 L16.947 4.256 L17.046 4.261 L17.146 4.266 L17.245 4.271 L17.344 4.275 L17.444 4.280 L17.544 4.285 L17.643 4.290 L17.743 4.295 L17.842 4.300 L17.942 4.305 L18.041 4.310 L18.141 4.314 L18.241 4.319 L18.340 4.324 L18.440 4.329 L18.540 4.334 L18.640 4.339 L18.739 4.344 L18.839 4.349 L18.939 4.354 L19.039 4.359 L19.096 4.373 L19.144 4.408 L19.175 4.459 L19.184 4.518 L19.171 4.575 L19.136 4.623 L19.085 4.653 L19.027 4.662 L18.927 4.657 L18.827 4.651 L18.728 4.646 L18.628 4.641 L18.528 4.635 L18.428 4.630 L18.329 4.625 L18.229 4.620 L18.129 4.614 L18.030 4.609 L17.930 4.604 L17.831 4.599 L17.731 4.593 L17.631 4.588 L17.532 4.583 L17.432 4.578 L17.333 4.572 L17.233 4.567 L17.134 4.562 L17.034 4.557 L16.935 4.551 L16.836 4.546 L16.736 4.541 L16.637 4.536 L16.537 4.530 L16.438 4.525 L16.339 4.520 L16.239 4.515 L16.140 4.510 L16.041 4.504 L15.942 4.499 L15.843 4.494 L15.743 4.489 L15.644 4.484 L15.545 4.479 L15.446 4.473 L15.347 4.468 L15.248 4.463 L15.149 4.458 L15.050 4.453 L14.951 4.448 L14.852 4.443 L14.753 4.437 L14.654 4.432 L14.555 4.427 L14.456 4.422 L14.357 4.417 L14.258 4.412 L14.159 4.407 L14.060 4.402 L13.962 4.397 L13.863 4.392 L13.764 4.387 L13.665 4.382 L13.567 4.377 L13.468 4.372 L13.369 4.367 L13.271 4.362 L13.172 4.357 L13.074 4.352 L12.975 4.347 L12.877 4.342 L12.778 4.337 L12.680 4.332 L12.581 4.328 L12.483 4.323 L12.384 4.318 L12.286 4.313 L12.187 4.308 L12.089 4.303 L11.991 4.299 L11.893 4.294 L11.794 4.289 L11.696 4.284 L11.598 4.279 L11.500 4.275 L11.402 4.270 L11.303 4.265 L11.205 4.261 L11.107 4.256 L11.009 4.251 L10.911 4.246 L10.813 4.242 L10.715 4.237 L10.617 4.233 L10.519 4.228 L10.421 4.223 L10.324 4.219 L10.226 4.214 L10.128 4.210 L10.030 4.205 L9.932 4.200 L9.835 4.196 L9.737 4.191 L9.639 4.187 L9.542 4.182 L9.444 4.178 L9.346 4.174 L9.249 4.169 L9.151 4.165 L9.054 4.160 L8.956 4.155 L8.859 4.151 L8.761 4.146 L8.664 4.142 L8.566 4.137 L8.469 4.133 L8.372 4.129 L8.275 4.124 L8.177 4.120 L8.080 4.115 L7.983 4.111 L7.886 4.106 L7.789 4.102 L7.692 4.097 L7.595 4.093 L7.498 4.089 L7.401 4.084 L7.304 4.080 L7.207 4.075 L7.110 4.071 L7.013 4.067 L6.917 4.062 L6.820 4.058 L6.723 4.053 L6.627 4.049 L6.530 4.044 L6.433 4.040 L6.337 4.036 L6.240 4.031 L6.144 4.027 L6.048 4.023 L5.951 4.018 L5.855 4.014 L5.759 4.010 L5.663 4.005 L5.566 4.001 L5.470 3.997 L5.374 3.993 L5.278 3.989 L5.182 3.984 L5.086 3.980 L4.990 3.976 L4.895 3.972 L4.799 3.968 L4.703 3.964 L4.607 3.960 L4.512 3.956 L4.416 3.952 L4.320 3.948 L4.225 3.944 L4.129 3.940 L4.034 3.936 L3.938 3.932 L3.843 3.928 L3.748 3.924 L3.703 3.694 L3.655 3.718 L3.622 3.755 L3.609 3.800 L3.618 3.846 L3.648 3.885 L3.693 3.913 Z"/><path fill="#000000" d="M3.748 2.956 L3.843 2.952 L3.938 2.948 L4.034 2.944 L4.129 2.941 L4.225 2.937 L4.320 2.933 L4.416 2.929 L4.512 2.925 L4.607 2.920 L4.703 2.916 L4.799 2.912 L4.895 2.908 L4.990 2.904 L5.086 2.900 L5.182 2.896 L5.278 2.892 L5.374 2.887 L5.470 2.883 L5.566 2.879 L5.663 2.875 L5.759 2.870 L5.855 2.866 L5.951 2.862 L6.048 2.858 L6.144 2.853 L6.240 2.849 L6.337 2.844 L6.433 2.840 L6.530 2.836 L6.627 2.831 L6.723 2.827 L6.820 2.822 L6.917 2.818 L7.013 2.814 L7.110 2.809 L7.207 2.805 L7.304 2.800 L7.401 2.796 L7.498 2.792 L7.595 2.787 L7.692 2.783 L7.789 2.778 L7.886 2.774 L7.983 2.769 L8.080 2.765 L8.177 2.761 L8.275 2.756 L8.372 2.752 L8.469 2.747 L8.566 2.743 L8.664 2.738 L8.761 2.734 L8.859 2.729 L8.956 2.725 L9.054 2.720 L9.151 2.716 L9.249 2.711 L9.346 2.707 L9.444 2.702 L9.542 2.698 L9.639 2.693 L9.737 2.689 L9.835 2.684 L9.932 2.680 L10.030 2.675 L10.128 2.671 L10.226 2.666 L10.324 2.661 L10.421 2.657 L10.519 2.652 L10.617 2.648 L10.715 2.643 L10.813 2.638 L10.911 2.634 L11.009 2.629 L11.107 2.624 L11.205 2.620 L11.303 2.615 L11.402 2.610 L11.500 2.605 L11.598 2.601 L11.696 2.596 L11.794 2.591 L11.893 2.586 L11.991 2.582 L12.089 2.577 L12.187 2.572 L12.286 2.567 L12.384 2.562 L12.483 2.557 L12.581 2.553 L12.680 2.548 L12.778 2.543 L12.877 2.538 L12.975 2.533 L13.074 2.528 L13.172 2.523 L13.271 2.518 L13.369 2.513 L13.468 2.508 L13.567 2.503 L13.665 2.498 L13.764 2.493 L13.863 2.488 L13.962 2.483 L14.060 2.478 L14.159 2.473 L14.258 2.468 L14.357 2.463 L14.456 2.458 L14.555 2.453 L14.654 2.448 L14.753 2.443 L14.852 2.438 L14.951 2.433 L15.050 2.427 L15.149 2.422 L15.248 2.417 L15.347 2.412 L15.446 2.407 L15.545 2.402 L15.644 2.397 L15.743 2.391 L15.843 2.386 L15.942 2.381 L16.041 2.376 L16.140 2.371 L16.239 2.365 L16.339 2.360 L16.438 2.355 L16.537 2.350 L16.637 2.345 L16.736 2.339 L16.836 2.334 L16.935 2.329 L17.034 2.324 L17.134 2.318 L17.233 2.313 L17.333 2.308 L17.432 2.303 L17.532 2.297 L17.631 2.292 L17.731 2.287 L17.831 2.282 L17.930 2.276 L18.030 2.271 L18.129 2.266 L18.229 2.260 L18.329 2.255 L18.428 2.250 L18.528 2.245 L18.628 2.239 L18.728 2.234 L18.827 2.229 L18.927 2.224 L19.027 2.218 L19.085 2.227 L19.136 2.257 L19.171 2.305 L19.184 2.362 L19.175 2.421 L19.144 2.472 L19.096 2.507 L19.039 2.522 L18.939 2.527 L18.839 2.531 L18.739 2.536 L18.640 2.541 L18.540 2.546 L18.440 2.551 L18.340 2.556 L18.241 2.561 L18.141 2.566 L18.041 2.571 L17.942 2.576 L17.842 2.580 L17.743 2.585 L17.643 2.590 L17.544 2.595 L17.444 2.600 L17.344 2.605 L17.245 2.610 L17.146 2.615 L17.046 2.619 L16.947 2.624 L16.847 2.629 L16.748 2.634 L16.648 2.639 L16.549 2.644 L16.450 2.648 L16.350 2.653 L16.251 2.658 L16.152 2.663 L16.053 2.668 L15.953 2.672 L15.854 2.677 L15.755 2.682 L15.656 2.687 L15.557 2.692 L15.458 2.696 L15.358 2.701 L15.259 2.706 L15.160 2.710 L15.061 2.715 L14.962 2.720 L14.863 2.725 L14.764 2.729 L14.665 2.734 L14.566 2.739 L14.467 2.743 L14.369 2.748 L14.270 2.753 L14.171 2.757 L14.072 2.762 L13.973 2.767 L13.874 2.771 L13.776 2.776 L13.677 2.780 L13.578 2.785 L13.480 2.789 L13.381 2.794 L13.282 2.799 L13.184 2.803 L13.085 2.808 L12.987 2.812 L12.888 2.817 L12.790 2.821 L12.691 2.826 L12.593 2.830 L12.494 2.834 L12.396 2.839 L12.297 2.843 L12.199 2.848 L12.101 2.852 L12.002 2.857 L11.904 2.861 L11.806 2.865 L11.708 2.870 L11.609 2.874 L11.511 2.878 L11.413 2.883 L11.315 2.887 L11.217 2.891 L11.119 2.896 L11.021 2.900 L10.923 2.904 L10.825 2.908 L10.727 2.913 L10.629 2.917 L10.531 2.921 L10.433 2.925 L10.335 2.929 L10.237 2.934 L10.139 2.938 L10.041 2.942 L9.944 2.946 L9.846 2.950 L9.748 2.954 L9.651 2.958 L9.553 2.963 L9.455 2.967 L9.358 2.971 L9.260 2.975 L9.163 2.979 L9.065 2.983 L8.968 2.987 L8.870 2.991 L8.773 2.995 L8.675 2.999 L8.578 3.003 L8.480 3.007 L8.383 3.011 L8.286 3.015 L8.189 3.019 L8.091 3.023 L7.994 3.027 L7.897 3.032 L7.800 3.036 L7.703 3.040 L7.606 3.044 L7.509 3.047 L7.412 3.051 L7.315 3.055 L7.218 3.059 L7.121 3.063 L7.025 3.067 L6.928 3.071 L6.831 3.075 L6.734 3.079 L6.638 3.083 L6.541 3.087 L6.445 3.091 L6.348 3.095 L6.252 3.098 L6.155 3.102 L6.059 3.106 L5.962 3.110 L5.866 3.114 L5.770 3.118 L5.674 3.121 L5.578 3.125 L5.481 3.129 L5.385 3.133 L5.289 3.136 L5.193 3.140 L5.097 3.144 L5.002 3.147 L4.906 3.151 L4.810 3.155 L4.714 3.158 L4.618 3.162 L4.523 3.166 L4.427 3.169 L4.331 3.173 L4.236 3.176 L4.140 3.180 L4.045 3.183 L3.949 3.187 L3.854 3.190 L3.759 3.194 L3.693 2.967 L3.648 2.995 L3.618 3.035 L3.609 3.080 L3.622 3.125 L3.655 3.163 L3.703 3.187 Z"/><path fill="#000000" d="M7.056 6.373 L6.924 6.094 L6.828 5.822 L6.781 5.559 L6.793 5.303 L6.868 5.056 L7.002 4.820 L7.185 4.591 L7.405 4.364 L7.649 4.135 L7.873 3.942 L7.789 3.977 L7.669 3.880 L7.561 3.781 L7.472 3.677 L7.410 3.564 L7.387 3.440 L7.410 3.316 L7.472 3.203 L7.561 3.099 L7.669 3.000 L7.789 2.904 L7.873 2.938 L7.649 2.746 L7.405 2.516 L7.185 2.289 L7.002 2.060 L6.868 1.824 L6.793 1.578 L6.781 1.322 L6.828 1.058 L6.924 0.786 L7.056 0.508 L7.087 0.467 L7.134 0.438 L7.190 0.425 L7.246 0.430 L7.294 0.452 L7.326 0.489 L7.338 0.534 L7.327 0.580 L7.197 0.851 L7.106 1.098 L7.063 1.324 L7.071 1.534 L7.130 1.735 L7.243 1.936 L7.406 2.141 L7.613 2.356 L7.851 2.580 L8.132 2.857 L7.970 3.082 L7.859 3.172 L7.768 3.254 L7.704 3.328 L7.670 3.390 L7.660 3.440 L7.670 3.490 L7.704 3.552 L7.768 3.626 L7.859 3.709 L7.970 3.798 L8.132 4.023 L7.851 4.300 L7.613 4.524 L7.406 4.739 L7.243 4.945 L7.130 5.145 L7.071 5.346 L7.063 5.556 L7.106 5.782 L7.197 6.030 L7.327 6.300 L7.087 6.413 L7.134 6.442 L7.190 6.455 L7.246 6.450 L7.294 6.428 L7.326 6.391 L7.338 6.347 Z"/><path fill="#000000" d="M9.703 6.230 L9.597 5.963 L9.540 5.697 L9.544 5.436 L9.614 5.183 L9.745 4.942 L9.926 4.709 L10.146 4.479 L10.390 4.249 L10.611 4.068 L10.507 4.081 L10.366 3.963 L10.240 3.844 L10.138 3.719 L10.067 3.585 L10.041 3.440 L10.067 3.295 L10.138 3.161 L10.240 3.036 L10.366 2.917 L10.507 2.800 L10.611 2.812 L10.390 2.631 L10.146 2.401 L9.926 2.172 L9.745 1.938 L9.614 1.697 L9.544 1.444 L9.540 1.184 L9.597 0.917 L9.703 0.650 L9.732 0.607 L9.777 0.576 L9.832 0.561 L9.889 0.566 L9.938 0.588 L9.973 0.625 L9.987 0.672 L9.979 0.720 L9.876 0.971 L9.825 1.197 L9.826 1.406 L9.880 1.607 L9.988 1.809 L10.148 2.016 L10.353 2.231 L10.590 2.454 L10.877 2.741 L10.690 2.986 L10.558 3.096 L10.449 3.199 L10.371 3.292 L10.329 3.372 L10.316 3.440 L10.329 3.508 L10.371 3.588 L10.449 3.681 L10.558 3.784 L10.690 3.894 L10.877 4.139 L10.590 4.426 L10.353 4.649 L10.148 4.864 L9.988 5.071 L9.880 5.273 L9.826 5.474 L9.825 5.683 L9.876 5.909 L9.979 6.160 L9.732 6.273 L9.777 6.304 L9.832 6.319 L9.889 6.314 L9.938 6.292 L9.973 6.255 L9.987 6.208 Z"/><path fill="#000000" d="M12.903 6.329 L12.786 6.069 L12.718 5.806 L12.714 5.547 L12.779 5.296 L12.907 5.057 L13.087 4.828 L13.306 4.605 L13.551 4.382 L13.766 4.223 L13.639 4.207 L13.474 4.064 L13.328 3.920 L13.209 3.770 L13.128 3.610 L13.099 3.440 L13.128 3.270 L13.209 3.110 L13.328 2.961 L13.474 2.816 L13.639 2.673 L13.766 2.657 L13.551 2.499 L13.306 2.276 L13.087 2.052 L12.907 1.823 L12.779 1.584 L12.714 1.333 L12.718 1.074 L12.786 0.811 L12.903 0.551 L12.935 0.507 L12.983 0.477 L13.040 0.464 L13.096 0.471 L13.144 0.497 L13.177 0.538 L13.188 0.588 L13.177 0.638 L13.064 0.881 L13.006 1.097 L13.000 1.297 L13.048 1.489 L13.151 1.683 L13.307 1.883 L13.509 2.091 L13.746 2.307 L14.039 2.599 L13.824 2.868 L13.667 3.004 L13.538 3.131 L13.445 3.247 L13.392 3.350 L13.376 3.440 L13.392 3.530 L13.445 3.633 L13.538 3.749 L13.667 3.877 L13.824 4.012 L14.039 4.281 L13.746 4.574 L13.509 4.789 L13.307 4.997 L13.151 5.197 L13.048 5.391 L13.000 5.583 L13.006 5.783 L13.064 5.999 L13.177 6.242 L12.935 6.373 L12.983 6.404 L13.040 6.416 L13.096 6.409 L13.144 6.383 L13.177 6.342 L13.188 6.292 Z"/><path fill="#000000" d="M16.379 6.244 L16.309 5.990 L16.299 5.727 L16.361 5.472 L16.488 5.230 L16.667 4.999 L16.887 4.774 L17.132 4.552 L17.345 4.411 L17.190 4.360 L16.999 4.186 L16.829 4.011 L16.692 3.831 L16.600 3.641 L16.566 3.440 L16.600 3.239 L16.692 3.049 L16.829 2.869 L16.999 2.694 L17.190 2.520 L17.345 2.469 L17.132 2.328 L16.887 2.106 L16.667 1.881 L16.488 1.650 L16.361 1.408 L16.299 1.153 L16.309 0.890 L16.379 0.636 L16.405 0.587 L16.449 0.550 L16.504 0.531 L16.561 0.532 L16.613 0.554 L16.652 0.593 L16.670 0.643 L16.666 0.697 L16.599 0.922 L16.590 1.119 L16.634 1.309 L16.733 1.501 L16.887 1.701 L17.089 1.907 L17.325 2.122 L17.624 2.428 L17.377 2.726 L17.194 2.891 L17.041 3.048 L16.929 3.193 L16.865 3.324 L16.846 3.440 L16.865 3.557 L16.929 3.687 L17.041 3.832 L17.194 3.989 L17.377 4.155 L17.624 4.452 L17.325 4.758 L17.089 4.973 L16.887 5.180 L16.733 5.379 L16.634 5.571 L16.590 5.761 L16.599 5.958 L16.666 6.183 L16.405 6.293 L16.449 6.330 L16.504 6.349 L16.561 6.348 L16.613 6.326 L16.652 6.287 L16.670 6.237 Z"/><path fill="#6b6b6b" d="M5.278 3.358 L5.455 3.358 L5.631 3.358 L5.808 3.358 L5.985 3.357 L6.161 3.357 L6.338 3.357 L6.516 3.356 L6.693 3.356 L6.871 3.356 L7.048 3.355 L7.226 3.355 L7.404 3.355 L7.582 3.355 L7.760 3.354 L7.939 3.354 L8.117 3.354 L8.296 3.354 L8.474 3.353 L8.653 3.353 L8.833 3.353 L9.012 3.352 L9.191 3.352 L9.370 3.352 L9.549 3.352 L9.729 3.351 L9.909 3.351 L10.088 3.351 L10.268 3.351 L10.448 3.350 L10.628 3.350 L10.808 3.350 L10.988 3.350 L11.168 3.350 L11.349 3.349 L11.529 3.349 L11.709 3.349 L11.890 3.348 L12.071 3.348 L12.252 3.348 L12.433 3.348 L12.613 3.347 L12.794 3.347 L12.975 3.347 L13.157 3.347 L13.338 3.346 L13.519 3.346 L13.701 3.346 L13.882 3.346 L14.064 3.345 L14.246 3.345 L14.427 3.345 L14.609 3.345 L14.791 3.344 L14.973 3.344 L15.155 3.344 L15.337 3.344 L15.520 3.343 L15.702 3.343 L15.884 3.343 L16.066 3.343 L16.249 3.342 L16.432 3.342 L16.614 3.342 L16.797 3.342 L16.980 3.341 L17.162 3.341 L17.346 3.341 L17.529 3.341 L17.712 3.340 L17.895 3.340 L18.078 3.340 L18.116 3.348 L18.149 3.369 L18.170 3.402 L18.178 3.440 L18.170 3.478 L18.149 3.511 L18.116 3.533 L18.078 3.540 L17.895 3.540 L17.712 3.540 L17.529 3.539 L17.346 3.539 L17.162 3.539 L16.980 3.539 L16.797 3.539 L16.614 3.538 L16.432 3.538 L16.249 3.538 L16.066 3.538 L15.884 3.537 L15.702 3.537 L15.520 3.537 L15.337 3.537 L15.155 3.536 L14.973 3.536 L14.791 3.536 L14.609 3.536 L14.427 3.535 L14.246 3.535 L14.064 3.535 L13.882 3.535 L13.701 3.534 L13.519 3.534 L13.338 3.534 L13.157 3.533 L12.975 3.533 L12.794 3.533 L12.613 3.533 L12.433 3.532 L12.252 3.532 L12.071 3.532 L11.890 3.532 L11.709 3.531 L11.529 3.531 L11.349 3.531 L11.168 3.531 L10.988 3.530 L10.808 3.530 L10.628 3.530 L10.448 3.530 L10.268 3.529 L10.088 3.529 L9.909 3.529 L9.729 3.529 L9.549 3.528 L9.370 3.528 L9.191 3.528 L9.012 3.528 L8.833 3.527 L8.653 3.527 L8.474 3.527 L8.296 3.527 L8.117 3.526 L7.939 3.526 L7.760 3.526 L7.582 3.526 L7.404 3.525 L7.226 3.525 L7.048 3.525 L6.871 3.524 L6.693 3.524 L6.516 3.524 L6.338 3.524 L6.161 3.523 L5.985 3.523 L5.808 3.523 L5.631 3.522 L5.455 3.522 L5.278 3.522 L5.241 3.365 L5.210 3.382 L5.189 3.409 L5.182 3.440 L5.189 3.471 L5.210 3.498 L5.241 3.515 Z"/></g><path fill="url(#dew)" d="M7.738 3.440 L7.731 3.396 L7.712 3.354 L7.681 3.319 L7.640 3.292 L7.593 3.275 L7.543 3.269 L7.493 3.275 L7.446 3.292 L7.405 3.320 L7.374 3.355 L7.355 3.396 L7.348 3.440 L7.355 3.484 L7.374 3.525 L7.405 3.561 L7.446 3.588 L7.493 3.605 L7.543 3.611 L7.593 3.605 L7.640 3.588 L7.681 3.561 L7.712 3.526 L7.731 3.484 Z"/><path fill="url(#dew)" d="M10.394 3.440 L10.388 3.394 L10.368 3.351 L10.337 3.314 L10.296 3.285 L10.249 3.268 L10.198 3.262 L10.147 3.268 L10.100 3.286 L10.059 3.314 L10.028 3.351 L10.008 3.394 L10.002 3.440 L10.008 3.486 L10.028 3.529 L10.059 3.566 L10.100 3.594 L10.147 3.612 L10.198 3.619 L10.249 3.613 L10.296 3.595 L10.337 3.567 L10.368 3.530 L10.388 3.486 Z"/><path fill="url(#dew)" d="M13.455 3.440 L13.448 3.392 L13.429 3.346 L13.397 3.308 L13.356 3.278 L13.308 3.259 L13.257 3.253 L13.206 3.260 L13.158 3.278 L13.117 3.308 L13.086 3.347 L13.066 3.392 L13.059 3.440 L13.066 3.488 L13.086 3.533 L13.117 3.572 L13.158 3.602 L13.206 3.621 L13.257 3.627 L13.308 3.621 L13.356 3.602 L13.397 3.573 L13.429 3.534 L13.448 3.489 Z"/><path fill="url(#dew)" d="M16.925 3.440 L16.919 3.389 L16.899 3.342 L16.867 3.301 L16.826 3.270 L16.778 3.250 L16.726 3.243 L16.674 3.250 L16.626 3.270 L16.585 3.301 L16.553 3.342 L16.533 3.389 L16.526 3.440 L16.533 3.491 L16.553 3.538 L16.585 3.579 L16.626 3.610 L16.674 3.630 L16.726 3.637 L16.778 3.630 L16.826 3.611 L16.867 3.579 L16.899 3.539 L16.919 3.491 Z"/><path fill="url(#dew)" d="M6.556 3.440 L6.549 3.391 L6.527 3.346 L6.492 3.307 L6.447 3.277 L6.395 3.259 L6.338 3.252 L6.282 3.259 L6.229 3.278 L6.184 3.308 L6.149 3.347 L6.128 3.392 L6.120 3.440 L6.128 3.488 L6.149 3.534 L6.184 3.572 L6.229 3.602 L6.282 3.621 L6.338 3.628 L6.395 3.622 L6.447 3.603 L6.492 3.573 L6.527 3.534 L6.549 3.489 Z"/><path fill="url(#dew)" d="M7.618 3.440 L7.610 3.391 L7.589 3.346 L7.555 3.307 L7.511 3.277 L7.459 3.259 L7.404 3.253 L7.348 3.259 L7.296 3.278 L7.252 3.308 L7.218 3.347 L7.197 3.392 L7.189 3.440 L7.197 3.488 L7.218 3.534 L7.252 3.572 L7.296 3.602 L7.348 3.621 L7.404 3.628 L7.459 3.621 L7.511 3.603 L7.555 3.573 L7.589 3.534 L7.610 3.489 Z"/><path fill="url(#dew)" d="M8.684 3.440 L8.677 3.392 L8.656 3.346 L8.623 3.308 L8.579 3.278 L8.529 3.260 L8.474 3.253 L8.420 3.260 L8.369 3.279 L8.326 3.308 L8.292 3.347 L8.271 3.392 L8.264 3.440 L8.271 3.488 L8.292 3.533 L8.326 3.572 L8.369 3.602 L8.420 3.620 L8.474 3.627 L8.529 3.621 L8.579 3.602 L8.623 3.572 L8.656 3.534 L8.677 3.489 Z"/><path fill="url(#dew)" d="M9.755 3.440 L9.748 3.392 L9.728 3.347 L9.695 3.309 L9.652 3.279 L9.603 3.261 L9.549 3.255 L9.496 3.261 L9.446 3.280 L9.404 3.309 L9.371 3.348 L9.350 3.392 L9.343 3.440 L9.350 3.488 L9.371 3.533 L9.404 3.571 L9.446 3.601 L9.496 3.619 L9.549 3.626 L9.603 3.619 L9.652 3.601 L9.695 3.572 L9.728 3.533 L9.748 3.488 Z"/><path fill="url(#dew)" d="M10.829 3.440 L10.822 3.392 L10.802 3.348 L10.770 3.310 L10.728 3.280 L10.680 3.262 L10.628 3.256 L10.575 3.262 L10.527 3.281 L10.485 3.310 L10.453 3.348 L10.433 3.393 L10.426 3.440 L10.433 3.488 L10.453 3.532 L10.485 3.570 L10.527 3.599 L10.575 3.618 L10.628 3.624 L10.680 3.618 L10.728 3.600 L10.770 3.571 L10.802 3.532 L10.822 3.488 Z"/><path fill="url(#dew)" d="M11.907 3.440 L11.900 3.393 L11.880 3.349 L11.849 3.311 L11.808 3.282 L11.760 3.263 L11.709 3.257 L11.658 3.264 L11.611 3.282 L11.570 3.311 L11.538 3.349 L11.519 3.393 L11.512 3.440 L11.519 3.487 L11.538 3.531 L11.570 3.569 L11.611 3.598 L11.658 3.616 L11.709 3.623 L11.760 3.617 L11.808 3.599 L11.849 3.570 L11.880 3.532 L11.900 3.488 Z"/><path fill="url(#dew)" d="M12.987 3.440 L12.980 3.393 L12.961 3.349 L12.931 3.312 L12.891 3.283 L12.844 3.265 L12.794 3.259 L12.744 3.265 L12.698 3.283 L12.658 3.312 L12.627 3.350 L12.608 3.393 L12.601 3.440 L12.608 3.487 L12.627 3.530 L12.658 3.568 L12.698 3.597 L12.744 3.615 L12.794 3.621 L12.844 3.615 L12.891 3.597 L12.931 3.568 L12.961 3.531 L12.980 3.487 Z"/><path fill="url(#dew)" d="M14.070 3.440 L14.064 3.394 L14.045 3.350 L14.015 3.313 L13.976 3.285 L13.931 3.267 L13.882 3.261 L13.833 3.267 L13.788 3.285 L13.749 3.314 L13.719 3.351 L13.700 3.394 L13.694 3.440 L13.700 3.486 L13.719 3.530 L13.749 3.567 L13.788 3.595 L13.833 3.613 L13.882 3.619 L13.931 3.613 L13.976 3.596 L14.015 3.567 L14.045 3.530 L14.064 3.487 Z"/><path fill="url(#dew)" d="M15.157 3.440 L15.150 3.394 L15.132 3.351 L15.103 3.314 L15.065 3.286 L15.020 3.269 L14.973 3.263 L14.925 3.269 L14.881 3.287 L14.843 3.315 L14.814 3.352 L14.795 3.394 L14.789 3.440 L14.795 3.486 L14.814 3.529 L14.843 3.565 L14.881 3.594 L14.925 3.611 L14.973 3.618 L15.020 3.612 L15.065 3.594 L15.103 3.566 L15.132 3.529 L15.150 3.486 Z"/><path fill="url(#dew)" d="M16.246 3.440 L16.240 3.395 L16.222 3.352 L16.193 3.316 L16.156 3.288 L16.113 3.271 L16.066 3.265 L16.020 3.271 L15.977 3.288 L15.940 3.316 L15.911 3.353 L15.893 3.395 L15.887 3.440 L15.893 3.485 L15.911 3.528 L15.940 3.564 L15.977 3.592 L16.020 3.609 L16.066 3.615 L16.113 3.610 L16.156 3.592 L16.193 3.564 L16.222 3.528 L16.240 3.486 Z"/><path fill="url(#dew)" d="M17.337 3.440 L17.331 3.395 L17.314 3.353 L17.286 3.318 L17.250 3.290 L17.208 3.273 L17.162 3.267 L17.117 3.273 L17.075 3.290 L17.039 3.318 L17.011 3.354 L16.994 3.395 L16.988 3.440 L16.994 3.485 L17.011 3.526 L17.039 3.562 L17.075 3.590 L17.117 3.607 L17.162 3.613 L17.208 3.607 L17.250 3.590 L17.286 3.563 L17.314 3.527 L17.331 3.485 Z"/><path fill="url(#dew)" d="M18.431 3.440 L18.425 3.396 L18.408 3.355 L18.381 3.319 L18.346 3.292 L18.305 3.275 L18.261 3.270 L18.217 3.276 L18.176 3.293 L18.141 3.320 L18.114 3.355 L18.097 3.396 L18.091 3.440 L18.097 3.484 L18.114 3.525 L18.141 3.560 L18.176 3.588 L18.217 3.605 L18.261 3.611 L18.305 3.605 L18.346 3.588 L18.381 3.561 L18.408 3.525 L18.425 3.484 Z"/></svg>