<svg xmlns="http://www.w3.org/2000/svg" viewBox="-18.0000 -2.8000 36.0000 5.6000" width="36.0000" height="5.6000"><rect x="-18.0000" y="-2.8000" width="36.0000" height="5.6000" fill="#fff"/><g fill="none" stroke="#000" stroke-linecap="round"><line x1="0" y1="0" x2="-14.0000" y2="-3.0240" stroke-width="0.36"/><line x1="0" y1="0" x2="-9.2000" y2="-3.0240" stroke-width="0.36"/><line x1="0" y1="0" x2="-5.4000" y2="-3.0240" stroke-width="0.36"/><line x1="0" y1="0" x2="-2.7000" y2="-3.0240" stroke-width="0.36"/><line x1="0" y1="0" x2="-0.9500" y2="-3.0240" stroke-width="0.36"/><line x1="0" y1="0" x2="0.9500" y2="-3.0240" stroke-width="0.36"/><line x1="0" y1="0" x2="2.7000" y2="-3.0240" stroke-width="0.36"/><line x1="0" y1="0" x2="5.4000" y2="-3.0240" stroke-width="0.36"/><line x1="0" y1="0" x2="9.2000" y2="-3.0240" stroke-width="0.36"/><line x1="0" y1="0" x2="14.0000" y2="-3.0240" stroke-width="0.36"/><line x1="0" y1="0" x2="18.3600" y2="0.0000" stroke-width="0.36"/><line x1="0" y1="0" x2="14.0000" y2="3.0240" stroke-width="0.36"/><line x1="0" y1="0" x2="9.2000" y2="3.0240" stroke-width="0.36"/><line x1="0" y1="0" x2="5.4000" y2="3.0240" stroke-width="0.36"/><line x1="0" y1="0" x2="2.7000" y2="3.0240" stroke-width="0.36"/><line x1="0" y1="0" x2="0.9500" y2="3.0240" stroke-width="0.36"/><line x1="0" y1="0" x2="-0.9500" y2="3.0240" stroke-width="0.36"/><line x1="0" y1="0" x2="-2.7000" y2="3.0240" stroke-width="0.36"/><line x1="0" y1="0" x2="-5.4000" y2="3.0240" stroke-width="0.36"/><line x1="0" y1="0" x2="-9.2000" y2="3.0240" stroke-width="0.36"/><line x1="0" y1="0" x2="-14.0000" y2="3.0240" stroke-width="0.36"/><line x1="0" y1="0" x2="-18.3600" y2="0.0000" stroke-width="0.36"/><path d="M-1.1241 -0.2428 Q-0.6871 -0.1866 -1.0925 -0.3591" stroke-width="0.32"/><path d="M-1.0925 -0.3591 Q-0.6497 -0.2855 -1.0034 -0.5619" stroke-width="0.32"/><path d="M-1.0034 -0.5619 Q-0.5485 -0.4401 -0.7659 -0.8578" stroke-width="0.32"/><path d="M-0.7659 -0.8578 Q-0.3443 -0.6060 -0.3447 -1.0971" stroke-width="0.32"/><path d="M-0.3447 -1.0971 Q0.0000 -0.6802 0.3447 -1.0971" stroke-width="0.32"/><path d="M0.3447 -1.0971 Q0.3443 -0.6060 0.7659 -0.8578" stroke-width="0.32"/><path d="M0.7659 -0.8578 Q0.5485 -0.4401 1.0034 -0.5619" stroke-width="0.32"/><path d="M1.0034 -0.5619 Q0.6497 -0.2855 1.0925 -0.3591" stroke-width="0.32"/><path d="M1.0925 -0.3591 Q0.6871 -0.1866 1.1241 -0.2428" stroke-width="0.32"/><path d="M1.1241 -0.2428 Q0.7050 -0.0753 1.1500 0.0000" stroke-width="0.32"/><path d="M1.1500 0.0000 Q0.7050 0.0753 1.1241 0.2428" stroke-width="0.32"/><path d="M1.1241 0.2428 Q0.6871 0.1866 1.0925 0.3591" stroke-width="0.32"/><path d="M1.0925 0.3591 Q0.6497 0.2855 1.0034 0.5619" stroke-width="0.32"/><path d="M1.0034 0.5619 Q0.5485 0.4401 0.7659 0.8578" stroke-width="0.32"/><path d="M0.7659 0.8578 Q0.3443 0.6060 0.3447 1.0971" stroke-width="0.32"/><path d="M0.3447 1.0971 Q0.0000 0.6802 -0.3447 1.0971" stroke-width="0.32"/><path d="M-0.3447 1.0971 Q-0.3443 0.6060 -0.7659 0.8578" stroke-width="0.32"/><path d="M-0.7659 0.8578 Q-0.5485 0.4401 -1.0034 0.5619" stroke-width="0.32"/><path d="M-1.0034 0.5619 Q-0.6497 0.2855 -1.0925 0.3591" stroke-width="0.32"/><path d="M-1.0925 0.3591 Q-0.6871 0.1866 -1.1241 0.2428" stroke-width="0.32"/><path d="M-1.1241 0.2428 Q-0.7050 0.0753 -1.1500 0.0000" stroke-width="0.32"/><path d="M-1.1500 0.0000 Q-0.7050 -0.0753 -1.1241 -0.2428" stroke-width="0.32"/><path d="M-1.7106 -0.3695 Q-1.0456 -0.2839 -1.6625 -0.5465" stroke-width="0.32"/><path d="M-1.6625 -0.5465 Q-0.9887 -0.4345 -1.5269 -0.8551" stroke-width="0.32"/><path d="M-1.5269 -0.8551 Q-0.8346 -0.6697 -1.1655 -1.3054" stroke-width="0.32"/><path d="M-1.1655 -1.3054 Q-0.5239 -0.9222 -0.5245 -1.6696" stroke-width="0.32"/><path d="M-0.5245 -1.6696 Q0.0000 -1.0351 0.5245 -1.6696" stroke-width="0.32"/><path d="M0.5245 -1.6696 Q0.5239 -0.9222 1.1655 -1.3054" stroke-width="0.32"/><path d="M1.1655 -1.3054 Q0.8346 -0.6697 1.5269 -0.8551" stroke-width="0.32"/><path d="M1.5269 -0.8551 Q0.9887 -0.4345 1.6625 -0.5465" stroke-width="0.32"/><path d="M1.6625 -0.5465 Q1.0456 -0.2839 1.7106 -0.3695" stroke-width="0.32"/><path d="M1.7106 -0.3695 Q1.0728 -0.1145 1.7500 0.0000" stroke-width="0.32"/><path d="M1.7500 0.0000 Q1.0728 0.1145 1.7106 0.3695" stroke-width="0.32"/><path d="M1.7106 0.3695 Q1.0456 0.2839 1.6625 0.5465" stroke-width="0.32"/><path d="M1.6625 0.5465 Q0.9887 0.4345 1.5269 0.8551" stroke-width="0.32"/><path d="M1.5269 0.8551 Q0.8346 0.6697 1.1655 1.3054" stroke-width="0.32"/><path d="M1.1655 1.3054 Q0.5239 0.9222 0.5245 1.6696" stroke-width="0.32"/><path d="M0.5245 1.6696 Q0.0000 1.0351 -0.5245 1.6696" stroke-width="0.32"/><path d="M-0.5245 1.6696 Q-0.5239 0.9222 -1.1655 1.3054" stroke-width="0.32"/><path d="M-1.1655 1.3054 Q-0.8346 0.6697 -1.5269 0.8551" stroke-width="0.32"/><path d="M-1.5269 0.8551 Q-0.9887 0.4345 -1.6625 0.5465" stroke-width="0.32"/><path d="M-1.6625 0.5465 Q-1.0456 0.2839 -1.7106 0.3695" stroke-width="0.32"/><path d="M-1.7106 0.3695 Q-1.0728 0.1145 -1.7500 0.0000" stroke-width="0.32"/><path d="M-1.7500 0.0000 Q-1.0728 -0.1145 -1.7106 -0.3695" stroke-width="0.32"/><path d="M-2.3459 -0.5067 Q-1.4340 -0.3894 -2.2800 -0.7494" stroke-width="0.32"/><path d="M-2.2800 -0.7494 Q-1.3559 -0.5958 -2.0940 -1.1726" stroke-width="0.32"/><path d="M-2.0940 -1.1726 Q-1.1447 -0.9185 -1.5984 -1.7903" stroke-width="0.32"/><path d="M-1.5984 -1.7903 Q-0.7185 -1.2648 -0.7193 -2.2897" stroke-width="0.32"/><path d="M-0.7193 -2.2897 Q0.0000 -1.4196 0.7193 -2.2897" stroke-width="0.32"/><path d="M0.7193 -2.2897 Q0.7185 -1.2648 1.5984 -1.7903" stroke-width="0.32"/><path d="M1.5984 -1.7903 Q1.1447 -0.9185 2.0940 -1.1726" stroke-width="0.32"/><path d="M2.0940 -1.1726 Q1.3559 -0.5958 2.2800 -0.7494" stroke-width="0.32"/><path d="M2.2800 -0.7494 Q1.4340 -0.3894 2.3459 -0.5067" stroke-width="0.32"/><path d="M2.3459 -0.5067 Q1.4712 -0.1571 2.4000 0.0000" stroke-width="0.32"/><path d="M2.4000 0.0000 Q1.4712 0.1571 2.3459 0.5067" stroke-width="0.32"/><path d="M2.3459 0.5067 Q1.4340 0.3894 2.2800 0.7494" stroke-width="0.32"/><path d="M2.2800 0.7494 Q1.3559 0.5958 2.0940 1.1726" stroke-width="0.32"/><path d="M2.0940 1.1726 Q1.1447 0.9185 1.5984 1.7903" stroke-width="0.32"/><path d="M1.5984 1.7903 Q0.7185 1.2648 0.7193 2.2897" stroke-width="0.32"/><path d="M0.7193 2.2897 Q0.0000 1.4196 -0.7193 2.2897" stroke-width="0.32"/><path d="M-0.7193 2.2897 Q-0.7185 1.2648 -1.5984 1.7903" stroke-width="0.32"/><path d="M-1.5984 1.7903 Q-1.1447 0.9185 -2.0940 1.1726" stroke-width="0.32"/><path d="M-2.0940 1.1726 Q-1.3559 0.5958 -2.2800 0.7494" stroke-width="0.32"/><path d="M-2.2800 0.7494 Q-1.4340 0.3894 -2.3459 0.5067" stroke-width="0.32"/><path d="M-2.3459 0.5067 Q-1.4712 0.1571 -2.4000 0.0000" stroke-width="0.32"/><path d="M-2.4000 0.0000 Q-1.4712 -0.1571 -2.3459 -0.5067" stroke-width="0.32"/><path d="M-3.0790 -0.6651 Q-1.8822 -0.5111 -2.9925 -0.9836" stroke-width="0.32"/><path d="M-2.9925 -0.9836 Q-1.7797 -0.7820 -2.7484 -1.5391" stroke-width="0.32"/><path d="M-2.7484 -1.5391 Q-1.5024 -1.2055 -2.0979 -2.3497" stroke-width="0.32"/><path d="M-2.0979 -2.3497 Q-0.9430 -1.6600 -0.9441 -3.0052" stroke-width="0.32"/><path d="M-0.9441 -3.0052 Q0.0000 -1.8632 0.9441 -3.0052" stroke-width="0.32"/><path d="M0.9441 -3.0052 Q0.9430 -1.6600 2.0979 -2.3497" stroke-width="0.32"/><path d="M2.0979 -2.3497 Q1.5024 -1.2055 2.7484 -1.5391" stroke-width="0.32"/><path d="M2.7484 -1.5391 Q1.7797 -0.7820 2.9925 -0.9836" stroke-width="0.32"/><path d="M2.9925 -0.9836 Q1.8822 -0.5111 3.0790 -0.6651" stroke-width="0.32"/><path d="M3.0790 -0.6651 Q1.9310 -0.2062 3.1500 0.0000" stroke-width="0.32"/><path d="M3.1500 0.0000 Q1.9310 0.2062 3.0790 0.6651" stroke-width="0.32"/><path d="M3.0790 0.6651 Q1.8822 0.5111 2.9925 0.9836" stroke-width="0.32"/><path d="M2.9925 0.9836 Q1.7797 0.7820 2.7484 1.5391" stroke-width="0.32"/><path d="M2.7484 1.5391 Q1.5024 1.2055 2.0979 2.3497" stroke-width="0.32"/><path d="M2.0979 2.3497 Q0.9430 1.6600 0.9441 3.0052" stroke-width="0.32"/><path d="M0.9441 3.0052 Q0.0000 1.8632 -0.9441 3.0052" stroke-width="0.32"/><path d="M-0.9441 3.0052 Q-0.9430 1.6600 -2.0979 2.3497" stroke-width="0.32"/><path d="M-2.0979 2.3497 Q-1.5024 1.2055 -2.7484 1.5391" stroke-width="0.32"/><path d="M-2.7484 1.5391 Q-1.7797 0.7820 -2.9925 0.9836" stroke-width="0.32"/><path d="M-2.9925 0.9836 Q-1.8822 0.5111 -3.0790 0.6651" stroke-width="0.32"/><path d="M-3.0790 0.6651 Q-1.9310 0.2062 -3.1500 0.0000" stroke-width="0.32"/><path d="M-3.1500 0.0000 Q-1.9310 -0.2062 -3.0790 -0.6651" stroke-width="0.32"/><path d="M-3.9098 -0.8445 Q-2.3900 -0.6490 -3.8000 -1.2490" stroke-width="0.32"/><path d="M-3.8000 -1.2490 Q-2.2599 -0.9931 -3.4900 -1.9544" stroke-width="0.32"/><path d="M-3.4900 -1.9544 Q-1.9078 -1.5308 -2.6641 -2.9838" stroke-width="0.32"/><path d="M2.6641 -2.9838 Q1.9078 -1.5308 3.4900 -1.9544" stroke-width="0.32"/><path d="M3.4900 -1.9544 Q2.2599 -0.9931 3.8000 -1.2490" stroke-width="0.32"/><path d="M3.8000 -1.2490 Q2.3900 -0.6490 3.9098 -0.8445" stroke-width="0.32"/><path d="M3.9098 -0.8445 Q2.4520 -0.2618 4.0000 0.0000" stroke-width="0.32"/><path d="M4.0000 0.0000 Q2.4520 0.2618 3.9098 0.8445" stroke-width="0.32"/><path d="M3.9098 0.8445 Q2.3900 0.6490 3.8000 1.2490" stroke-width="0.32"/><path d="M3.8000 1.2490 Q2.2599 0.9931 3.4900 1.9544" stroke-width="0.32"/><path d="M3.4900 1.9544 Q1.9078 1.5308 2.6641 2.9838" stroke-width="0.32"/><path d="M-2.6641 2.9838 Q-1.9078 1.5308 -3.4900 1.9544" stroke-width="0.32"/><path d="M-3.4900 1.9544 Q-2.2599 0.9931 -3.8000 1.2490" stroke-width="0.32"/><path d="M-3.8000 1.2490 Q-2.3900 0.6490 -3.9098 0.8445" stroke-width="0.32"/><path d="M-3.9098 0.8445 Q-2.4520 0.2618 -4.0000 0.0000" stroke-width="0.32"/><path d="M-4.0000 0.0000 Q-2.4520 -0.2618 -3.9098 -0.8445" stroke-width="0.32"/><path d="M-4.8873 -1.0557 Q-2.9876 -0.8113 -4.7500 -1.5613" stroke-width="0.32"/><path d="M-4.7500 -1.5613 Q-2.8249 -1.2413 -4.3625 -2.4430" stroke-width="0.32"/><path d="M4.3625 -2.4430 Q2.8249 -1.2413 4.7500 -1.5613" stroke-width="0.32"/><path d="M4.7500 -1.5613 Q2.9876 -0.8113 4.8873 -1.0557" stroke-width="0.32"/><path d="M4.8873 -1.0557 Q3.0651 -0.3273 5.0000 0.0000" stroke-width="0.32"/><path d="M5.0000 0.0000 Q3.0651 0.3273 4.8873 1.0557" stroke-width="0.32"/><path d="M4.8873 1.0557 Q2.9876 0.8113 4.7500 1.5613" stroke-width="0.32"/><path d="M4.7500 1.5613 Q2.8249 1.2413 4.3625 2.4430" stroke-width="0.32"/><path d="M-4.3625 2.4430 Q-2.8249 1.2413 -4.7500 1.5613" stroke-width="0.32"/><path d="M-4.7500 1.5613 Q-2.9876 0.8113 -4.8873 1.0557" stroke-width="0.32"/><path d="M-4.8873 1.0557 Q-3.0651 0.3273 -5.0000 0.0000" stroke-width="0.32"/><path d="M-5.0000 0.0000 Q-3.0651 -0.3273 -4.8873 -1.0557" stroke-width="0.32"/><path d="M-6.0602 -1.3090 Q-3.7046 -1.0060 -5.8900 -1.9360" stroke-width="0.32"/><path d="M5.8900 -1.9360 Q3.7046 -1.0060 6.0602 -1.3090" stroke-width="0.32"/><path d="M6.0602 -1.3090 Q3.8007 -0.4058 6.2000 0.0000" stroke-width="0.32"/><path d="M6.2000 0.0000 Q3.8007 0.4058 6.0602 1.3090" stroke-width="0.32"/><path d="M6.0602 1.3090 Q3.7046 1.0060 5.8900 1.9360" stroke-width="0.32"/><path d="M-5.8900 1.9360 Q-3.7046 1.0060 -6.0602 1.3090" stroke-width="0.32"/><path d="M-6.0602 1.3090 Q-3.8007 0.4058 -6.2000 0.0000" stroke-width="0.32"/><path d="M-6.2000 0.0000 Q-3.8007 -0.4058 -6.0602 -1.3090" stroke-width="0.32"/><path d="M-7.4287 -1.6046 Q-4.5411 -1.2331 -7.2200 -2.3732" stroke-width="0.32"/><path d="M7.2200 -2.3732 Q4.5411 -1.2331 7.4287 -1.6046" stroke-width="0.32"/><path d="M7.4287 -1.6046 Q4.6589 -0.4974 7.6000 0.0000" stroke-width="0.32"/><path d="M7.6000 0.0000 Q4.6589 0.4974 7.4287 1.6046" stroke-width="0.32"/><path d="M7.4287 1.6046 Q4.5411 1.2331 7.2200 2.3732" stroke-width="0.32"/><path d="M-7.2200 2.3732 Q-4.5411 1.2331 -7.4287 1.6046" stroke-width="0.32"/><path d="M-7.4287 1.6046 Q-4.6589 0.4974 -7.6000 0.0000" stroke-width="0.32"/><path d="M-7.6000 0.0000 Q-4.6589 -0.4974 -7.4287 -1.6046" stroke-width="0.32"/><path d="M-8.9926 -1.9424 Q-5.4971 -1.4927 -8.7400 -2.8728" stroke-width="0.32"/><path d="M8.7400 -2.8728 Q5.4971 -1.4927 8.9926 -1.9424" stroke-width="0.32"/><path d="M8.9926 -1.9424 Q5.6397 -0.6021 9.2000 0.0000" stroke-width="0.32"/><path d="M9.2000 0.0000 Q5.6397 0.6021 8.9926 1.9424" stroke-width="0.32"/><path d="M8.9926 1.9424 Q5.4971 1.4927 8.7400 2.8728" stroke-width="0.32"/><path d="M-8.7400 2.8728 Q-5.4971 1.4927 -8.9926 1.9424" stroke-width="0.32"/><path d="M-8.9926 1.9424 Q-5.6397 0.6021 -9.2000 0.0000" stroke-width="0.32"/><path d="M-9.2000 0.0000 Q-5.6397 -0.6021 -8.9926 -1.9424" stroke-width="0.32"/><path d="M10.7520 -2.3224 Q6.7431 -0.7200 11.0000 0.0000" stroke-width="0.32"/><path d="M11.0000 0.0000 Q6.7431 0.7200 10.7520 2.3224" stroke-width="0.32"/><path d="M-10.7520 2.3224 Q-6.7431 0.7200 -11.0000 0.0000" stroke-width="0.32"/><path d="M-11.0000 0.0000 Q-6.7431 -0.7200 -10.7520 -2.3224" stroke-width="0.32"/><path d="M12.6092 -2.7236 Q7.9079 -0.8443 12.9000 0.0000" stroke-width="0.32"/><path d="M12.9000 0.0000 Q7.9079 0.8443 12.6092 2.7236" stroke-width="0.32"/><path d="M-12.6092 2.7236 Q-7.9079 0.8443 -12.9000 0.0000" stroke-width="0.32"/><path d="M-12.9000 0.0000 Q-7.9079 -0.8443 -12.6092 -2.7236" stroke-width="0.32"/></g><circle cx="0" cy="0" r="0.55" fill="#000"/></svg>